<?xml version="1.0" encoding="UTF-8" standalone="no"?>
<!-- Created with Inkscape (http://www.inkscape.org/) -->

<svg
   xmlns:dc="http://purl.org/dc/elements/1.1/"
   xmlns:cc="http://creativecommons.org/ns#"
   xmlns:rdf="http://www.w3.org/1999/02/22-rdf-syntax-ns#"
   xmlns:svg="http://www.w3.org/2000/svg"
   xmlns="http://www.w3.org/2000/svg"
   xmlns:sodipodi="http://sodipodi.sourceforge.net/DTD/sodipodi-0.dtd"
   xmlns:inkscape="http://www.inkscape.org/namespaces/inkscape"
   width="247.50014"
   height="180.00853"
   id="svg2"
   version="1.1"
   inkscape:version="0.47 r22583"
   sodipodi:docname="camara.svg"
   inkscape:export-filename="/home/glengemann/documentos/PI concepto dificil de tragrar/Charla/png/camara.png"
   inkscape:export-xdpi="267"
   inkscape:export-ydpi="267">
  <defs
     id="defs4">
    <inkscape:perspective
       sodipodi:type="inkscape:persp3d"
       inkscape:vp_x="0 : 526.18109 : 1"
       inkscape:vp_y="0 : 1000 : 0"
       inkscape:vp_z="744.09448 : 526.18109 : 1"
       inkscape:persp3d-origin="372.04724 : 350.78739 : 1"
       id="perspective10" />
    <inkscape:perspective
       id="perspective2824"
       inkscape:persp3d-origin="0.5 : 0.33333333 : 1"
       inkscape:vp_z="1 : 0.5 : 1"
       inkscape:vp_y="0 : 1000 : 0"
       inkscape:vp_x="0 : 0.5 : 1"
       sodipodi:type="inkscape:persp3d" />
  </defs>
  <sodipodi:namedview
     id="base"
     pagecolor="#ffffff"
     bordercolor="#666666"
     borderopacity="1.0"
     inkscape:pageopacity="0.0"
     inkscape:pageshadow="2"
     inkscape:zoom="1.4"
     inkscape:cx="118.12151"
     inkscape:cy="125.19574"
     inkscape:document-units="px"
     inkscape:current-layer="layer1"
     showgrid="false"
     inkscape:window-width="1366"
     inkscape:window-height="687"
     inkscape:window-x="0"
     inkscape:window-y="25"
     inkscape:window-maximized="1" />
  <metadata
     id="metadata7">
    <rdf:RDF>
      <cc:Work
         rdf:about="">
        <dc:format>image/svg+xml</dc:format>
        <dc:type
           rdf:resource="http://purl.org/dc/dcmitype/StillImage" />
      </cc:Work>
    </rdf:RDF>
  </metadata>
  <g
     inkscape:label="Capa 1"
     inkscape:groupmode="layer"
     id="layer1"
     transform="translate(-125.99986,-540.89384)">
    <path
       style="fill:#999999;fill-opacity:1;stroke-width:0.29999999999999999;stroke-miterlimit:4;stroke-dasharray:none"
       d="m 137.5,719.52576 c -1.65,-0.73126 -4.26032,-2.51331 -5.80071,-3.96011 C 125.89102,710.11031 126,711.46383 126,644.78146 c 0,-59.52518 0.0562,-61.33254 2.03517,-65.42049 1.15653,-2.38907 3.81694,-5.43953 6.16225,-7.06572 3.63652,-2.52149 5.17756,-2.90317 12.96483,-3.21113 l 8.83775,-0.3495 0,-13.92039 0,-13.92039 21.25,0.26989 21.25,0.26989 0.27822,13.75 0.27822,13.75 80.15606,0 c 79.63826,0 80.18436,0.0137 84.53776,2.12115 2.63951,1.27776 5.44889,3.73377 7.06572,6.17697 l 2.68402,4.05582 0,63.65853 0,63.65853 -2.86163,4.12933 c -1.62761,2.34865 -4.67456,5.00696 -7.06572,6.1645 -4.15136,2.00964 -5.5768,2.03468 -113.63837,1.99603 -88.80391,-0.0318 -109.99983,-0.28979 -112.43428,-1.36872 z m 225.69959,-3.39255 c 2.03478,-1.26522 4.73478,-3.96522 6,-6 l 2.30041,-3.69959 0.28041,-59.28021 c 0.18241,-38.56171 -0.0809,-60.62203 -0.75339,-63.11945 -1.40878,-5.23179 -4.58086,-8.99327 -9.44842,-11.20401 -3.86112,-1.75363 -8.38434,-1.85358 -84.8286,-1.87437 l -80.75,-0.022 0,-14 0,-14 -18.47178,0 -18.47178,0 -0.27822,13.75 -0.27822,13.75 -9,0.54314 c -10.64702,0.64254 -14.38403,2.3134 -18.25426,8.16172 l -2.74574,4.14908 0,61.64606 0,61.64606 2.66828,4.03203 c 1.55621,2.3516 4.47361,4.92964 7,6.18573 l 4.33172,2.1537 108.5,-0.25876 108.5,-0.25876 3.69959,-2.30041 0,4e-5 z M 233,704.59305 c -11.20297,-3.3361 -17.62965,-7.244 -26.53652,-16.13617 -9.18941,-9.17424 -13.5406,-16.59491 -16.48804,-28.11927 -6.66778,-26.07078 3.58539,-53.60181 25.39514,-68.18905 19.30295,-12.91061 41.85453,-14.33014 63.55227,-4.00037 11.80221,5.61875 22.22483,16.03498 27.87968,27.86258 5.48073,11.46342 6.5596,17.18888 5.94219,31.53457 -0.61814,14.36233 -2.7678,21.26499 -9.98116,32.04986 -8.35289,12.4886 -21.87331,21.86219 -37.22366,25.80683 -8.88588,2.28344 -23.36397,1.9235 -32.5399,-0.80898 z m 29.5,-1.15878 c 8.95517,-1.87371 21.54476,-8.11683 28.20066,-13.98459 7.03459,-6.2016 14.77963,-18.05131 17.54323,-26.8407 1.84585,-5.87058 2.24193,-9.35746 2.17816,-19.17536 -0.067,-10.30527 -0.43736,-12.95209 -2.62282,-18.74155 -7.50021,-19.86866 -23.2512,-34.15743 -43.25933,-39.24342 -13.23408,-3.36405 -30.7852,-0.88134 -43.43869,6.14465 -19.30275,10.71806 -32.3405,34.60843 -30.74675,56.34032 2.68788,36.65115 36.80297,62.89545 72.14554,55.50065 z M 241,677.05542 c -5.64203,-1.85092 -10.80267,-5.20343 -15.12815,-9.82772 -13.97037,-14.93545 -11.17879,-39.95383 5.706,-51.13785 6.25085,-4.14039 11.32581,-5.55599 19.92215,-5.55705 12.66677,-0.002 23.78266,7.13569 29.6382,19.02998 7.91821,16.08416 1.70068,35.60461 -14.09227,44.24383 -5.76065,3.15125 -7.37222,3.55949 -15,3.79976 -4.70026,0.14806 -9.67093,-0.0999 -11.04593,-0.55095 z m 22.66371,-4.28973 c 15.82805,-7.39414 22.87191,-27.16898 15.07884,-42.33207 -7.40136,-14.40092 -24.23125,-21.09871 -39.00409,-15.52245 -7.02903,2.65322 -14.92436,9.99572 -18.01611,16.75461 -3.0813,6.73604 -3.038,17.88606 0.0962,24.76784 7.40823,16.2664 26.24666,23.61899 41.84518,16.33207 l -2e-5,0 z"
       id="path2830"
       sodipodi:nodetypes="csssscccccccccscccccsscccccsscccccccccccccccccccccssssssssccsssssssccssssssccsssscc" />
  </g>
</svg>
