<?xml version="1.0" encoding="UTF-8" standalone="no"?>
<!-- Created with Inkscape (http://www.inkscape.org/) -->

<svg
   xmlns:dc="http://purl.org/dc/elements/1.1/"
   xmlns:cc="http://creativecommons.org/ns#"
   xmlns:rdf="http://www.w3.org/1999/02/22-rdf-syntax-ns#"
   xmlns:svg="http://www.w3.org/2000/svg"
   xmlns="http://www.w3.org/2000/svg"
   xmlns:sodipodi="http://sodipodi.sourceforge.net/DTD/sodipodi-0.dtd"
   xmlns:inkscape="http://www.inkscape.org/namespaces/inkscape"
   width="95.450424"
   height="89.103958"
   id="svg22441"
   version="1.1"
   inkscape:version="0.48.0 r9654"
   sodipodi:docname="New document 20">
  <defs
     id="defs22443" />
  <sodipodi:namedview
     id="base"
     pagecolor="#ffffff"
     bordercolor="#666666"
     borderopacity="1.0"
     inkscape:pageopacity="0.0"
     inkscape:pageshadow="2"
     inkscape:zoom="0.35"
     inkscape:cx="139.86807"
     inkscape:cy="-95.448015"
     inkscape:document-units="px"
     inkscape:current-layer="layer1"
     showgrid="false"
     fit-margin-top="0"
     fit-margin-left="0"
     fit-margin-right="0"
     fit-margin-bottom="0"
     inkscape:window-width="1272"
     inkscape:window-height="966"
     inkscape:window-x="0"
     inkscape:window-y="0"
     inkscape:window-maximized="1" />
  <metadata
     id="metadata22446">
    <rdf:RDF>
      <cc:Work
         rdf:about="">
        <dc:format>image/svg+xml</dc:format>
        <dc:type
           rdf:resource="http://purl.org/dc/dcmitype/StillImage" />
        <dc:title></dc:title>
      </cc:Work>
    </rdf:RDF>
  </metadata>
  <g
     inkscape:label="Layer 1"
     inkscape:groupmode="layer"
     id="layer1"
     transform="translate(-235.13193,-347.81021)">
    <g
       id="g22392"
       transform="matrix(0.31289562,0,0,0.31289562,-86.428803,464.34742)">
      <g
         id="g22368"
         transform="translate(47.622945,-22.776192)">
        <path
           sodipodi:nodetypes="ccccccc"
           inkscape:connector-curvature="0"
           id="path22370"
           d="m 1078.5908,-271.26146 -34.5094,86.446 0,44.5171 103.5281,0 0,-44.5171 -34.5094,-86.446 z"
           style="color:#000000;fill:#cccccc;fill-opacity:1;fill-rule:nonzero;stroke:#000000;stroke-width:10;stroke-linecap:butt;stroke-linejoin:bevel;stroke-miterlimit:4;stroke-opacity:1;stroke-dasharray:none;stroke-dashoffset:0;marker:none;visibility:visible;display:inline;overflow:visible;enable-background:accumulate" />
        <path
           transform="matrix(0.9154863,0,0,0.9154863,92.613954,-25.725165)"
           d="m 1139.8449,-304.39047 c 0,24.30023 -19.6992,43.99946 -43.9994,43.99946 -24.3003,0 -43.9995,-19.69923 -43.9995,-43.99946 0,-24.30023 19.6992,-43.99946 43.9995,-43.99946 24.3002,0 43.9994,19.69923 43.9994,43.99946 z"
           sodipodi:ry="43.999462"
           sodipodi:rx="43.999462"
           sodipodi:cy="-304.39047"
           sodipodi:cx="1095.8455"
           id="path22372"
           style="color:#000000;fill:#cccccc;fill-opacity:1;fill-rule:nonzero;stroke:#000000;stroke-width:10.92315674;stroke-linecap:butt;stroke-linejoin:bevel;stroke-miterlimit:4;stroke-opacity:1;stroke-dasharray:none;stroke-dashoffset:0;marker:none;visibility:visible;display:inline;overflow:visible;enable-background:accumulate"
           sodipodi:type="arc" />
      </g>
      <g
         style="fill:#999999"
         transform="translate(149.08052,-22.776192)"
         id="g22374">
        <path
           style="color:#000000;fill:#999999;fill-opacity:1;fill-rule:nonzero;stroke:#000000;stroke-width:10;stroke-linecap:butt;stroke-linejoin:bevel;stroke-miterlimit:4;stroke-opacity:1;stroke-dasharray:none;stroke-dashoffset:0;marker:none;visibility:visible;display:inline;overflow:visible;enable-background:accumulate"
           d="m 1078.5908,-271.26146 -34.5094,86.446 0,44.5171 103.5281,0 0,-44.5171 -34.5094,-86.446 z"
           id="path22376"
           inkscape:connector-curvature="0"
           sodipodi:nodetypes="ccccccc" />
        <path
           sodipodi:type="arc"
           style="color:#000000;fill:#999999;fill-opacity:1;fill-rule:nonzero;stroke:#000000;stroke-width:10.92315674;stroke-linecap:butt;stroke-linejoin:bevel;stroke-miterlimit:4;stroke-opacity:1;stroke-dasharray:none;stroke-dashoffset:0;marker:none;visibility:visible;display:inline;overflow:visible;enable-background:accumulate"
           id="path22378"
           sodipodi:cx="1095.8455"
           sodipodi:cy="-304.39047"
           sodipodi:rx="43.999462"
           sodipodi:ry="43.999462"
           d="m 1139.8449,-304.39047 c 0,24.30023 -19.6992,43.99946 -43.9994,43.99946 -24.3003,0 -43.9995,-19.69923 -43.9995,-43.99946 0,-24.30023 19.6992,-43.99946 43.9995,-43.99946 24.3002,0 43.9994,19.69923 43.9994,43.99946 z"
           transform="matrix(0.9154863,0,0,0.9154863,92.613954,-25.725165)" />
      </g>
      <g
         style="fill:#f2f2f2"
         transform="translate(-11.388096,0)"
         id="g22358">
        <path
           style="color:#000000;fill:#f2f2f2;fill-opacity:1;fill-rule:nonzero;stroke:#000000;stroke-width:10;stroke-linecap:butt;stroke-linejoin:bevel;stroke-miterlimit:4;stroke-opacity:1;stroke-dasharray:none;stroke-dashoffset:0;marker:none;visibility:visible;display:inline;overflow:visible;enable-background:accumulate"
           d="m 1078.5908,-271.26146 -34.5094,86.446 0,44.5171 103.5281,0 0,-44.5171 -34.5094,-86.446 z"
           id="path22333"
           inkscape:connector-curvature="0"
           sodipodi:nodetypes="ccccccc" />
        <path
           sodipodi:type="arc"
           style="color:#000000;fill:#f2f2f2;fill-opacity:1;fill-rule:nonzero;stroke:#000000;stroke-width:10.92315674;stroke-linecap:butt;stroke-linejoin:bevel;stroke-miterlimit:4;stroke-opacity:1;stroke-dasharray:none;stroke-dashoffset:0;marker:none;visibility:visible;display:inline;overflow:visible;enable-background:accumulate"
           id="path22331"
           sodipodi:cx="1095.8455"
           sodipodi:cy="-304.39047"
           sodipodi:rx="43.999462"
           sodipodi:ry="43.999462"
           d="m 1139.8449,-304.39047 c 0,24.30023 -19.6992,43.99946 -43.9994,43.99946 -24.3003,0 -43.9995,-19.69923 -43.9995,-43.99946 0,-24.30023 19.6992,-43.99946 43.9995,-43.99946 24.3002,0 43.9994,19.69923 43.9994,43.99946 z"
           transform="matrix(0.9154863,0,0,0.9154863,92.613954,-25.725165)" />
      </g>
      <g
         style="fill:#ffffff"
         id="g22362"
         transform="translate(78.68139,13.458659)">
        <path
           sodipodi:nodetypes="ccccccc"
           inkscape:connector-curvature="0"
           id="path22364"
           d="m 1078.5908,-271.26146 -34.5094,86.446 0,44.5171 103.5281,0 0,-44.5171 -34.5094,-86.446 z"
           style="color:#000000;fill:#ffffff;fill-opacity:1;fill-rule:nonzero;stroke:#000000;stroke-width:10;stroke-linecap:butt;stroke-linejoin:bevel;stroke-miterlimit:4;stroke-opacity:1;stroke-dasharray:none;stroke-dashoffset:0;marker:none;visibility:visible;display:inline;overflow:visible;enable-background:accumulate" />
        <path
           transform="matrix(0.9154863,0,0,0.9154863,92.613954,-25.725165)"
           d="m 1139.8449,-304.39047 c 0,24.30023 -19.6992,43.99946 -43.9994,43.99946 -24.3003,0 -43.9995,-19.69923 -43.9995,-43.99946 0,-24.30023 19.6992,-43.99946 43.9995,-43.99946 24.3002,0 43.9994,19.69923 43.9994,43.99946 z"
           sodipodi:ry="43.999462"
           sodipodi:rx="43.999462"
           sodipodi:cy="-304.39047"
           sodipodi:cx="1095.8455"
           id="path22366"
           style="color:#000000;fill:#ffffff;fill-opacity:1;fill-rule:nonzero;stroke:#000000;stroke-width:10.92315674;stroke-linecap:butt;stroke-linejoin:bevel;stroke-miterlimit:4;stroke-opacity:1;stroke-dasharray:none;stroke-dashoffset:0;marker:none;visibility:visible;display:inline;overflow:visible;enable-background:accumulate"
           sodipodi:type="arc" />
      </g>
      <g
         style="fill:#4d4d4d"
         id="g22380"
         transform="translate(180.13897,30.023162)">
        <path
           sodipodi:nodetypes="ccccccc"
           inkscape:connector-curvature="0"
           id="path22382"
           d="m 1078.5908,-271.26146 -34.5094,86.446 0,44.5171 103.5281,0 0,-44.5171 -34.5094,-86.446 z"
           style="color:#000000;fill:#4d4d4d;fill-opacity:1;fill-rule:nonzero;stroke:#000000;stroke-width:10;stroke-linecap:butt;stroke-linejoin:bevel;stroke-miterlimit:4;stroke-opacity:1;stroke-dasharray:none;stroke-dashoffset:0;marker:none;visibility:visible;display:inline;overflow:visible;enable-background:accumulate" />
        <path
           transform="matrix(0.9154863,0,0,0.9154863,92.613954,-25.725165)"
           d="m 1139.8449,-304.39047 c 0,24.30023 -19.6992,43.99946 -43.9994,43.99946 -24.3003,0 -43.9995,-19.69923 -43.9995,-43.99946 0,-24.30023 19.6992,-43.99946 43.9995,-43.99946 24.3002,0 43.9994,19.69923 43.9994,43.99946 z"
           sodipodi:ry="43.999462"
           sodipodi:rx="43.999462"
           sodipodi:cy="-304.39047"
           sodipodi:cx="1095.8455"
           id="path22384"
           style="color:#000000;fill:#4d4d4d;fill-opacity:1;fill-rule:nonzero;stroke:#000000;stroke-width:10.92315674;stroke-linecap:butt;stroke-linejoin:bevel;stroke-miterlimit:4;stroke-opacity:1;stroke-dasharray:none;stroke-dashoffset:0;marker:none;visibility:visible;display:inline;overflow:visible;enable-background:accumulate"
           sodipodi:type="arc" />
      </g>
      <g
         transform="translate(35.199567,47.622947)"
         id="g22386">
        <path
           style="color:#000000;fill:#cccccc;fill-opacity:1;fill-rule:nonzero;stroke:#000000;stroke-width:10;stroke-linecap:butt;stroke-linejoin:bevel;stroke-miterlimit:4;stroke-opacity:1;stroke-dasharray:none;stroke-dashoffset:0;marker:none;visibility:visible;display:inline;overflow:visible;enable-background:accumulate"
           d="m 1078.5908,-271.26146 -34.5094,86.446 0,44.5171 103.5281,0 0,-44.5171 -34.5094,-86.446 z"
           id="path22388"
           inkscape:connector-curvature="0"
           sodipodi:nodetypes="ccccccc" />
        <path
           sodipodi:type="arc"
           style="color:#000000;fill:#cccccc;fill-opacity:1;fill-rule:nonzero;stroke:#000000;stroke-width:10.92315674;stroke-linecap:butt;stroke-linejoin:bevel;stroke-miterlimit:4;stroke-opacity:1;stroke-dasharray:none;stroke-dashoffset:0;marker:none;visibility:visible;display:inline;overflow:visible;enable-background:accumulate"
           id="path22390"
           sodipodi:cx="1095.8455"
           sodipodi:cy="-304.39047"
           sodipodi:rx="43.999462"
           sodipodi:ry="43.999462"
           d="m 1139.8449,-304.39047 c 0,24.30023 -19.6992,43.99946 -43.9994,43.99946 -24.3003,0 -43.9995,-19.69923 -43.9995,-43.99946 0,-24.30023 19.6992,-43.99946 43.9995,-43.99946 24.3002,0 43.9994,19.69923 43.9994,43.99946 z"
           transform="matrix(0.9154863,0,0,0.9154863,92.613954,-25.725165)" />
      </g>
    </g>
  </g>
</svg>
