<?xml version="1.0" encoding="UTF-8" standalone="no"?>
<svg id="svg2" xmlns:rdf="http://www.w3.org/1999/02/22-rdf-syntax-ns#" xmlns="http://www.w3.org/2000/svg" viewBox="0 0 420 480" version="1.1" xmlns:cc="http://creativecommons.org/ns#" xmlns:dc="http://purl.org/dc/elements/1.1/">
 <defs id="defs4"></defs>
 <metadata id="metadata7">
  <rdf:RDF>
   <cc:Work rdf:about="">
    <dc:format>image/svg+xml</dc:format>
    <dc:type rdf:resource="http://purl.org/dc/dcmitype/StillImage"/>
    <dc:title/>
   </cc:Work>
  </rdf:RDF>
 </metadata>
 <g id="layer1" transform="translate(670,-363.79074)">
  <path id="path3257" fill="#000" d="m-576,842.03c8.9197-35.771,17.384-71.802,26.985-107.37,4.435-22.559,8.3388-45.346,13.456-67.83,2.5362-16.83,10.68-34.001,3.6842-50.965-11.777-29.929-8.7896-62.671-8.586-94.081-1.2704-24.062-5.1108-48.266-2.5996-72.347,8.7773-21.499,25.862,3.1384,21.1,16.847,1.7069,15.715,3.3471,40.418,10.753,50.484-0.79956-19.473-4.0405-38.975-0.45553-58.411,2.84-16.101,0.17926-36.185,11.962-48.58,21.559-5.9672,13.562,23.01,14.345,35.507-0.50773,19.006,0.12883,38.198,3.1198,57,1.3586-34.621-0.16111-69.725,6.3965-103.88,16.283-17.291,26.225,13.76,23.081,27.552,2.7712,24.016,2.1757,48.151,2.0862,72.261,11.861-1.7114,11.46-27.67,15.461-39.585,5.0592-16.417-3.2928-38.811,10.662-51.008,21.54-2.9821,16.596,26.649,17.543,40.468,0.63851,22.63-1.3767,45.3-7.5636,67.123-4.0625,17.367-0.79144,37.218,13.697,48.75,18.435-4.5398,27.854-25.236,43.8-34.795,15.19-13.715,38.712,1.8223,18.495,17.039-8.1331,15.788-18.065,30.444-30.314,43.467-14.819,25.041-43.677,38.079-57.801,63.577-6.6322,22.603-7.2586,46.601-10.563,69.887-4.0732,32.769-8.3844,65.669-5.9322,98.762-1.8951,8.2877,7.5953,26.006-6.8999,21.88-41.442-0.29431-82.931,0.74303-124.34-0.78266l-1.2918-0.42243-0.28536-0.55151z"/>
 </g>
</svg>