<?xml version="1.0" encoding="UTF-8" standalone="no"?>
<svg id="svg2" xmlns:rdf="http://www.w3.org/1999/02/22-rdf-syntax-ns#" xmlns="http://www.w3.org/2000/svg" viewBox="0 0 420 480" version="1.1" xmlns:cc="http://creativecommons.org/ns#" xmlns:dc="http://purl.org/dc/elements/1.1/">
 <defs id="defs4"></defs>
 <metadata id="metadata7">
  <rdf:RDF>
   <cc:Work rdf:about="">
    <dc:format>image/svg+xml</dc:format>
    <dc:type rdf:resource="http://purl.org/dc/dcmitype/StillImage"/>
    <dc:title/>
   </cc:Work>
  </rdf:RDF>
 </metadata>
 <g id="layer1" transform="translate(-124.28571,-209.50504)">
  <path id="path3020" fill="#000" d="m246.29,688.4c10.425-33.531,12.985-68.77,21.311-102.79,5.958-32.43,12.759-65.281,11.617-98.372-3.7191-28.232-19.719-53.569-20.077-82.432-3.4167-15.677-2.2402-33.61-11.679-47.153-12.638-5.0945-21.337-23.737-1.6471-24.149,16.115-4.304,28.413,23.305,34.744,22.134,2.0894-24.17,3.4061-49.118,14.713-71.142,6.5995-12.612,7.3642-34.812,24.034-37.861,20.096,2.9667,7.4984,27.855,5.3338,40.462-1.7025,12.591-13.986,34.286-6.4523,41.781,9.2266-26.386,23.346-51.192,38.477-74.78,10.716-19.041,33.911,0.99565,19.952,16.179-10.377,23.249-23.459,45.535-28.759,70.658-5.1858,10.288,1.936,13.492,4.9057,1.6554,8.5485-21.633,20.813-41.464,30.393-62.625,4.4291-21.615,33.146-6.0393,20.659,10.832-7.2659,19.255-17.097,37.422-24.437,56.595-2.0514,7.6529-11.875,38.265,2.9096,21.82,13.677-16.048,23.906-34.485,33.905-52.92,14.505-17.721,23.979,9.6661,12.993,21.039-8.6454,22.102-19.853,43.101-31.152,63.885-8.7545,31.003-10.035,64.592-26.553,93.078-10.895,13.296-10.762,30.35-10.429,46.716-0.0265,49.501,0.94255,98.996,1.475,148.49-38.733-0.39295-77.588,1.0058-116.24-1.1054z"/>
 </g>
</svg>