<?xml version="1.0" encoding="utf-8"?>
<!-- Generator: Adobe Illustrator 12.0.1, SVG Export Plug-In . SVG Version: 6.00 Build 51448)  -->
<!DOCTYPE svg PUBLIC "-//W3C//DTD SVG 1.1//EN" "http://www.w3.org/Graphics/SVG/1.1/DTD/svg11.dtd" [
	<!ENTITY ns_svg "http://www.w3.org/2000/svg">
	<!ENTITY ns_xlink "http://www.w3.org/1999/xlink">
]>
<svg  version="1.1" id="Layer_1" xmlns="&ns_svg;" xmlns:xlink="&ns_xlink;" width="457.867" height="588.365"
	 viewBox="0 0 457.867 588.365" overflow="visible" enable-background="new 0 0 457.867 588.365" xml:space="preserve">
<g>
	<path fill-rule="evenodd" clip-rule="evenodd" fill="#FFFFFF" d="M382.581,23.688c-0.868,3.069-4.324,5.555-7,7
		c-3.426,1.851-7.495,1.744-11,3c-3.211,1.151-6.479,4.082-10,5c-2.839,0.74-7.125,0.154-11,1c-5.51,1.203-10.901,4.37-20,3
		c-1.977-3.356-5.048-5.619-7-9c-9.07-1.07-11.603,4.397-20,4c-2.019-7.352,4.572-6.095,10-6c5.484-2.322,12.396-3.501,19-6
		c2.1-0.794,3.381-2.535,5-3c3.246-0.933,7.826,0.094,11-1c1.844-0.635,3.306-2.629,5-3c4.696-1.027,13.263-1.866,20-2
		C372.699,16.566,381.737,15.782,382.581,23.688z"/>
	<path fill-rule="evenodd" clip-rule="evenodd" fill="#FFFFFF" d="M230.581,34.688c-1.677,4.269-8.017,5.75-9,11
		c-1.104,5.894,2.704,9.034,4,15c9.1,8.567,15.113,20.22,25,28c-22.796,2.794-27.608-21.056-43-29c-0.777-0.89-1.075-2.258-1-4
		c-8.474-3.859-13.437-11.23-20-17c6.634-6.056,17.091-1.517,27-2C219.209,36.414,224.357,34.813,230.581,34.688z"/>
	<path fill-rule="evenodd" clip-rule="evenodd" fill="#FFFFFF" d="M261.581,39.688c-0.591,4.591,0.311,7.689,2,10
		c-6.843,2.98-22.596,4.912-30,1C242.07,42.281,249.295,38.684,261.581,39.688z"/>
	<path fill-rule="evenodd" clip-rule="evenodd" fill="#FFFFFF" d="M305.581,47.688c-2.104,2.896-1.68,8.32-6,9
		c-0.994,11.673-10.97,14.363-11,27c5.51,0.51,8.357-1.643,8-7c8.402-6.264,7.883-21.451,17-27c14.876,4.526,32.017,1.816,47-1
		c-12.476,13.525-25.433,26.567-38,40c-19.181,6.801-37.835,5.728-62,4c-0.597-14.07-11.438-17.895-18-26
		c18.724-2.276,37.229-4.771,48-15c4.802,0.135,9.098-0.235,10-4C302.248,47.688,303.914,47.688,305.581,47.688z"/>
	<path fill-rule="evenodd" clip-rule="evenodd" fill="#FFFFFF" d="M406.581,76.688c-2.885,6.628-12.751,6.125-20,8
		c-3.116,0.806-6.222,1.164-10,2c-5.207,1.152-16.167,4.042-25,1C363.743,78.49,388.263,76.406,406.581,76.688z"/>
	<path fill-rule="evenodd" clip-rule="evenodd" d="M113.581,127.688c1,0,2,0,3,0c1.102,4.238,1.182,8.307,0,12
		c0.756,2.177,3.932,7.038,0,8C111.562,144.467,112.466,134.278,113.581,127.688z"/>
	<path fill-rule="evenodd" clip-rule="evenodd" d="M81.581,135.688c-4.529,6.804-10.863,11.804-14,20c-7.134,1.8-7.909-2.757-11-5
		C57.798,139.687,73.979,118.524,81.581,135.688z"/>
	<path fill-rule="evenodd" clip-rule="evenodd" d="M130.581,137.688c-2.492,0.841-5.357,1.309-9,1
		C115.729,126.446,132.691,125.638,130.581,137.688z"/>
	<path fill-rule="evenodd" clip-rule="evenodd" d="M86.581,161.688c-3.817,0.484-6.383-0.284-8-2
		C78.23,146.977,94.015,151.018,86.581,161.688z"/>
	<path fill-rule="evenodd" clip-rule="evenodd" d="M99.581,159.688c-2.582,4.674-7.998,7.593-12,12c-2.433,2.679-4.599,10.215-10,7
		c1.817-4.546,6.996-11.213,11-15C90.667,161.715,94.598,159.951,99.581,159.688z"/>
	<path fill-rule="evenodd" clip-rule="evenodd" fill="#FFFFFF" d="M414.581,169.688c7.215-0.881,9.704,2.962,13,6
		c-1.019,10.397-11.643,16.245-19,17c3.548-5.452,11.246-6.754,12-15C417.415,176.187,413.14,175.795,414.581,169.688z"/>
	<path fill-rule="evenodd" clip-rule="evenodd" d="M42.581,196.688c-0.802-3.469,1.489-3.844,1-7c-4.97-2.886-10.939,0.757-17,0
		c0.16-10.01,26.119-8.944,24,2C49.986,194.761,47.936,196.702,42.581,196.688z"/>
	<path fill-rule="evenodd" clip-rule="evenodd" d="M254.581,191.688c2.888,9.112,5.905,18.095,11,25c22.128-3.212,32.576-1.929,53,3
		c-0.232,5.899,6.881,4.453,8,9c1.85,7.517-3.982,7.351-6,11c-22.242,4.027-26.601-19.445-51-9c4.856,10.143,6.76,23.24,13,32
		c15.997-2.038,34.773,1.283,46,8c8.051,4.816,15.826,10.01,14,23c-0.596,4.237-1.705,11.951-4,17c-0.607,1.336-2.84,1.454-4,3
		c-2.067,2.754-2.843,7.608-4,9c-3.662,4.406-9.054,4.237-12,11c-5.655-0.989-5.549,3.784-9,5c1.322,5.423,2.53,14.061,7,19
		c-2.168,7.587,4.822,13.831-4,16c-7.483-6.184-6.592-20.742-11-30c-11.185,1.289-20.331,4.819-29,6
		c-0.699,11.957,10.339,19.682,5,30c-15.027,0.1-6.81-23.347-16-30c-21.748,1.457-38.962,0.066-51-10c-3.415-6.843-2.022-15.4,5-17
		c12.745-2.903,30.492,23.897,44,14c-4.329-11.338-4.752-26.582-11-36c-29.821,5.843-59.263-11.944-49-46
		c5.776-3.756,8.562-10.951,14-15c3.319-2.472,7.916-1.992,10-6c0.21-13.578-14.452-20.564-9-33c12.283,2.383,8.72,20.613,16,28
		c10.712-0.955,16.723-6.61,26-9c-1.428-10.351-12.2-17.016-7-28C251.248,191.688,252.914,191.688,254.581,191.688z
		 M235.581,242.688c2.922,10.745,6.88,20.453,13,28c9.265-3.381,17.006-2.779,26-7c-2.176-11.491-9.584-17.749-11-30
		C250.806,233.246,244.144,238.917,235.581,242.688z M227.581,246.688c-6.653,7.014-17.92,9.414-17,24c8.176,6.52,19.112,2.86,29,2
		C237.428,262.175,233.66,253.275,227.581,246.688z M293.581,296.688c6.078,7.255,7.316,19.351,12,28
		c12.412-4.569,29.124-16.369,20-33C316.113,290.004,295.989,285.775,293.581,296.688z M256.581,303.688
		c5.609,9.391,4.86,25.14,12,33c10.073-1.985,20.475-2.53,29-8c-2.111-9.556-4.606-18.727-9-26c-0.236-4.43-0.722-8.611-5-9
		C276.401,296.438,260.512,294.848,256.581,303.688z"/>
	<path fill-rule="evenodd" clip-rule="evenodd" fill="#FFFFFF" d="M263.581,233.688c1.416,12.251,8.824,18.509,11,30
		c-8.994,4.221-16.735,3.619-26,7c-6.12-7.547-10.078-17.255-13-28C244.144,238.917,250.806,233.246,263.581,233.688z"/>
	<path fill-rule="evenodd" clip-rule="evenodd" fill="#FFFFFF" d="M239.581,272.688c-9.888,0.86-20.824,4.52-29-2
		c-0.92-14.586,10.347-16.986,17-24C233.66,253.275,237.428,262.175,239.581,272.688z"/>
	<path fill-rule="evenodd" clip-rule="evenodd" fill="#FFFFFF" d="M325.581,291.688c9.124,16.631-7.588,28.431-20,33
		c-4.684-8.649-5.922-20.745-12-28C295.989,285.775,316.113,290.004,325.581,291.688z"/>
	<path fill-rule="evenodd" clip-rule="evenodd" fill="#FFFFFF" d="M283.581,293.688c4.278,0.389,4.764,4.57,5,9
		c4.394,7.273,6.889,16.444,9,26c-8.525,5.47-18.927,6.015-29,8c-7.14-7.86-6.391-23.609-12-33
		C260.512,294.848,276.401,296.438,283.581,293.688z"/>
	<path fill-rule="evenodd" clip-rule="evenodd" d="M49.581,334.688c10.315,2,21.602,3.791,34,6c0,1.667,0,3.333,0,5
		c-9.686-0.157-27.382-1.12-34-5C49.581,338.688,49.581,336.688,49.581,334.688z"/>
	<path fill-rule="evenodd" clip-rule="evenodd" d="M83.581,353.688c-4.176,4.639-12.241,0.728-17,0c-3.244-0.496-7.254-0.514-11-1
		c-0.12-2.88-4.265-1.735-4-5c0.804-0.529,1.624-1.043,3-1C61.987,349.896,78.585,346.512,83.581,353.688z"/>
	<path fill-rule="evenodd" clip-rule="evenodd" d="M122.581,353.688c3.547,5.909-1.77,19.959-10,17
		C112.132,361.239,114.139,354.247,122.581,353.688z"/>
	<path fill-rule="evenodd" clip-rule="evenodd" d="M217.581,393.688c-0.473,3.14,2.691,2.642,3,5c-1.992,4.342-3.847,8.819-11,8
		C206.585,399.323,211.582,394.978,217.581,393.688z"/>
	<path fill-rule="evenodd" clip-rule="evenodd" d="M153.581,394.688c3.514,5.079,0.737,13.466-4,16
		C141.505,408.671,146.14,393.508,153.581,394.688z"/>
	<path fill-rule="evenodd" clip-rule="evenodd" fill="#FFFFFF" d="M138.581,469.688c-4.155,3.043-5.987,0.555-10-1
		C124.255,460.065,141.394,458.954,138.581,469.688z"/>
	<path fill-rule="evenodd" clip-rule="evenodd" fill="#FFFFFF" d="M144.581,464.688c4.557-1.224,3.923,2.743,8,2
		c0.664,5.33-0.582,8.751-4,10C139.985,474.578,138.611,470.382,144.581,464.688z"/>
	<path fill-rule="evenodd" clip-rule="evenodd" fill="#FFFFFF" d="M347.581,470.688c0.729,2.729-1.987,2.013-2,4
		c-3.988,0.988-3.012-2.988-7-2C337.142,463.766,345.44,467.457,347.581,470.688z"/>
	<path fill-rule="evenodd" clip-rule="evenodd" fill="#FFFFFF" d="M165.581,469.688c1.292,4.958-2.42,4.913-2,9
		C147.054,482.236,157.145,462.09,165.581,469.688z"/>
	<path fill-rule="evenodd" clip-rule="evenodd" fill="#FFFFFF" d="M178.581,474.688c-0.112,4.592-5.377,8.11-10,5
		C167.944,472.643,175.322,469.552,178.581,474.688z"/>
	<path fill-rule="evenodd" clip-rule="evenodd" fill="#FFFFFF" d="M335.581,477.688c-3.362,4.215-9.42-2.042-8-5
		C331.195,470.051,334.835,474.304,335.581,477.688z"/>
	<path fill-rule="evenodd" clip-rule="evenodd" fill="#FFFFFF" d="M185.581,474.688c1.479,0.521,2.521,1.479,4,2
		c-0.738,3.595-1.983,6.684-7,6C181.369,477.809,184.839,477.613,185.581,474.688z"/>
	<path fill-rule="evenodd" clip-rule="evenodd" fill="#FFFFFF" d="M304.581,477.688c0,1.333,0,2.667,0,4
		c-3.121,2.392-8.632,0.489-8-4C299.668,477.85,302.234,475.326,304.581,477.688z"/>
	<path fill-rule="evenodd" clip-rule="evenodd" fill="#FFFFFF" d="M140.581,477.688c3.078,0.589,7.078,0.256,7,4
		C144.468,484.693,138.088,480.29,140.581,477.688z"/>
	<path fill-rule="evenodd" clip-rule="evenodd" fill="#FFFFFF" d="M322.581,486.688c-3.57-1.096-5.904-3.43-7-7
		C320.893,474.247,330.833,484.187,322.581,486.688z"/>
	<path fill-rule="evenodd" clip-rule="evenodd" fill="#FFFFFF" d="M357.581,486.688c-1.419-0.086-2.832-0.165-3,1
		c-5.03-0.636-7.226-4.107-9-8C351.114,476.834,356.021,482.329,357.581,486.688z"/>
	<path fill-rule="evenodd" clip-rule="evenodd" fill="#FFFFFF" d="M277.581,484.688c1.019,4.353-2.068,4.598-3,7
		c-3.86-2.807-8.885-4.448-12-8C266.017,476.914,272.975,483.766,277.581,484.688z"/>
	<path fill-rule="evenodd" clip-rule="evenodd" fill="#FFFFFF" d="M295.581,490.688c-4.674-0.66-7.34-3.326-8-8
		C293.355,479.998,297.984,485.457,295.581,490.688z"/>
	<path fill-rule="evenodd" clip-rule="evenodd" fill="#FFFFFF" d="M160.581,484.688c-0.529,0.804-1.043,1.623-1,3
		c-3.657-0.343-7.896-0.104-8-4C154.832,482.044,157.771,483.299,160.581,484.688z"/>
	<path fill-rule="evenodd" clip-rule="evenodd" fill="#FFFFFF" d="M336.581,483.688c1.667,0,3.333,0,5,0
		c0.211,2.913,3.923,4.959,2,7c-1.907,1.877-1.81-0.594-5,0C339.569,486.7,335.593,487.676,336.581,483.688z"/>
	<path fill-rule="evenodd" clip-rule="evenodd" fill="#FFFFFF" d="M172.581,486.688c1.207,4.206-1.615,4.385-2,7
		c-2.356,0.022-2.944-1.723-6-1C162.857,486.55,168.602,483.948,172.581,486.688z"/>
	<path fill-rule="evenodd" clip-rule="evenodd" fill="#FFFFFF" d="M315.581,492.688c-4.55,3.228-11.47-3.207-10-6
		C310.196,483.868,315.671,487.596,315.581,492.688z"/>
	<path fill-rule="evenodd" clip-rule="evenodd" fill="#FFFFFF" d="M183.581,487.688c1.374,6.431-4.668,10.159-8,6
		C177.898,491.338,178.858,487.632,183.581,487.688z"/>
	<path fill-rule="evenodd" clip-rule="evenodd" fill="#FFFFFF" d="M191.581,487.688c3.3,2.406-1.273,5.314-2,7
		C186.281,492.282,190.854,489.374,191.581,487.688z"/>
	<path fill-rule="evenodd" clip-rule="evenodd" fill="#FFFFFF" d="M335.581,495.688c-3.891,2.65-8.929-0.657-8-6
		C330.691,487.817,336.436,490.419,335.581,495.688z"/>
	<path fill-rule="evenodd" clip-rule="evenodd" fill="#FFFFFF" d="M280.581,489.688c5.078,0.978,8.646,3.978,7,9
		c-5.382,0.382-7.73-2.27-9-6C280.715,493.156,280.485,491.259,280.581,489.688z"/>
	<path fill-rule="evenodd" clip-rule="evenodd" fill="#FFFFFF" d="M121.581,493.688c0.649,3.649-0.674,5.326-2,7
		c-3.812-0.188-6.58-1.42-7-5C114.234,490.453,117.273,492.547,121.581,493.688z"/>
	<path fill-rule="evenodd" clip-rule="evenodd" fill="#FFFFFF" d="M138.581,494.688c-0.777,0.89-1.075,2.258-1,4
		c-1.419-0.086-2.832-0.165-3,1c-2.824-0.843-2.755-4.578-6-5C129.854,489.734,136.175,492.503,138.581,494.688z"/>
	<path fill-rule="evenodd" clip-rule="evenodd" fill="#FFFFFF" d="M358.581,491.688c2.933,1.734,5.764,3.569,6,8
		c-5.187,0.854-6.765-1.902-8-5C356.03,492.471,358.49,493.264,358.581,491.688z"/>
	<path fill-rule="evenodd" clip-rule="evenodd" fill="#FFFFFF" d="M299.581,492.688c4.317,0.349,6.651,2.683,7,7
		C303.413,502.059,295.727,497.338,299.581,492.688z"/>
	<path fill-rule="evenodd" clip-rule="evenodd" fill="#FFFFFF" d="M369.581,554.688c-3.815,0.148-4.815-2.518-8-3
		c1.809-6.858,7.973-9.36,13-13c0.502-4.426,3.291-9.256,4-13c0.385-2.029-1.979-2.317-2-3c-0.099-3.081,5.696-9.708,8-13
		c4.492-6.42,7.819-15.444,18-17c5.099,4.678,6.936,14.702,3,24c-0.319,0.755-2.722,1.299-3,2c-1.101,2.773-0.303,3.454-2,6
		c-0.547,0.82-1.559,1.337-2,2c-2.876,4.319-1.884,4.103-5,7c-3.168,2.945-10.534,7.623-16,10
		C376.281,548.722,372.216,550.99,369.581,554.688z"/>
	<path fill-rule="evenodd" clip-rule="evenodd" fill="#FFFFFF" d="M152.581,494.688c2.122,4.502-1.032,11.358-8,10
		c-1.483-1.184-1.556-3.777-3-5C143.801,496.575,147.91,495.35,152.581,494.688z"/>
	<path fill-rule="evenodd" clip-rule="evenodd" fill="#FFFFFF" d="M325.581,504.688c-1.667,0-3.333,0-5,0
		c0.757-3.757-2.617-3.383-4-5C317.757,491.981,327.413,497.636,325.581,504.688z"/>
	<path fill-rule="evenodd" clip-rule="evenodd" fill="#FFFFFF" d="M353.581,502.688c-3.95-0.05-5.95-2.05-6-6
		C349.931,495.069,353.637,498.775,353.581,502.688z"/>
	<path fill-rule="evenodd" clip-rule="evenodd" fill="#FFFFFF" d="M165.581,497.688c-0.04,6.985-3.954,11.904-10,10
		C153.598,503.238,158.859,493.433,165.581,497.688z"/>
	<path fill-rule="evenodd" clip-rule="evenodd" fill="#FFFFFF" d="M124.581,500.688c3.237-1.67,6.999-1.677,8,2
		C134.531,509.851,114.854,505.706,124.581,500.688z"/>
	<path fill-rule="evenodd" clip-rule="evenodd" fill="#FFFFFF" d="M301.581,505.688c0.745,3.078-2.745,1.922-2,5
		c-3.944-2.389-9.395-3.272-9-10C295.787,497.984,296.565,505.214,301.581,505.688z"/>
	<path fill-rule="evenodd" clip-rule="evenodd" fill="#FFFFFF" d="M177.581,501.688c-1.951,5.684-5.072,10.47-11,7
		C169.562,505.645,171.087,498.168,177.581,501.688z"/>
	<path fill-rule="evenodd" clip-rule="evenodd" fill="#FFFFFF" d="M339.581,500.688c2.33,2.004,5.674,2.992,5,8
		c-1.163-0.163-1.779,0.221-2,1c-3.1-0.566-2.63-4.704-6-5C336.875,502.649,339.287,502.727,339.581,500.688z"/>
	<path fill-rule="evenodd" clip-rule="evenodd" fill="#FFFFFF" d="M107.581,501.688c1.333,0,2.667,0,4,0
		c2.017,2.369,2.899,6.959,0,9c-2.043-0.957-3.957-2.043-6-3C106.969,506.41,106.193,502.966,107.581,501.688z"/>
	<path fill-rule="evenodd" clip-rule="evenodd" fill="#FFFFFF" d="M311.581,504.688c2.59,1.41,6.767,1.233,6,6
		c-3.988,0.549-3.012,0.549-7,0C310.151,506.819,309.486,507.13,311.581,504.688z"/>
	<path fill-rule="evenodd" clip-rule="evenodd" fill="#FFFFFF" d="M138.581,505.688c1.907,0.426,1.81,2.857,5,2
		c0.649,3.649-0.674,5.326-2,7c-3.705,0.039-5.797-1.536-8-3C134.616,509.056,137.546,508.32,138.581,505.688z"/>
	<path fill-rule="evenodd" clip-rule="evenodd" fill="#FFFFFF" d="M367.581,506.688c-4.281,3.719-5.691,10.309-9,15
		c-1.408-0.501-5.648-0.889-7-2c-0.567-0.466-3.97-6.835-4-6C347.787,508.084,360.448,504.052,367.581,506.688z"/>
	<path fill-rule="evenodd" clip-rule="evenodd" fill="#FFFFFF" d="M329.581,506.688c4.365,0.635,6.273,3.727,7,8
		C332.667,519.409,324.54,510.672,329.581,506.688z"/>
	<path fill-rule="evenodd" clip-rule="evenodd" fill="#FFFFFF" d="M124.581,512.688c-0.34,3.326-3.788,3.545-5,6
		c-2.323-0.677-2.677-3.323-5-4C114.799,508.109,122.317,507.242,124.581,512.688z"/>
	<path fill-rule="evenodd" clip-rule="evenodd" fill="#FFFFFF" d="M101.581,510.688c2.263,1.07,4.397,2.27,6,4
		c0.114,3.448-4.114,2.552-4,6c-2.932-0.734-4.3-3.033-6-5C98.258,513.365,100.904,513.011,101.581,510.688z"/>
	<path fill-rule="evenodd" clip-rule="evenodd" fill="#FFFFFF" d="M157.581,513.688c-1.578,2.423-3.578,4.423-6,6
		c-2.409,0.409-2.174-1.826-5-1C145.878,511.54,153.452,510.673,157.581,513.688z"/>
	<path fill-rule="evenodd" clip-rule="evenodd" fill="#FFFFFF" d="M304.581,511.688c1.313,1.02,3.687,0.98,5,2c0,1.667,0,3.333,0,5
		C305.017,518.535,300.42,514.874,304.581,511.688z"/>
	<path fill-rule="evenodd" clip-rule="evenodd" fill="#FFFFFF" d="M320.581,513.688c2.951,1.382,4.049,4.618,7,6
		c-0.354,1.313-1.761,1.573-2,3C321.694,520.936,319.149,518.238,320.581,513.688z"/>
	<path fill-rule="evenodd" clip-rule="evenodd" fill="#FFFFFF" d="M168.581,516.688c-1.62,4.018-4.113,6.769-9,5
		C160.31,517.36,164.75,512.03,168.581,516.688z"/>
	<path fill-rule="evenodd" clip-rule="evenodd" fill="#FFFFFF" d="M136.581,519.688c-1.096,3.57-3.429,5.904-7,7
		c-1.077-2.257-3.753-2.913-5-5C126.633,514.493,132.061,515.655,136.581,519.688z"/>
	<path fill-rule="evenodd" clip-rule="evenodd" fill="#FFFFFF" d="M114.581,520.688c0.725,3.059-1.725,2.941-1,6
		c-6.159,1.646-7.413-1.922-5-7C112.45,519.258,112.139,518.593,114.581,520.688z"/>
	<path fill-rule="evenodd" clip-rule="evenodd" fill="#FFFFFF" d="M94.581,520.688c3.629-0.962,0.84,4.493,4,4
		c-0.707,3.595-4.693,1.406-6,0C92.594,522.701,95.31,523.417,94.581,520.688z"/>
	<path fill-rule="evenodd" clip-rule="evenodd" fill="#FFFFFF" d="M319.581,530.688c-4.643-0.357-6.594-3.406-8-7
		C315.433,520.013,320.272,524.209,319.581,530.688z"/>
	<path fill-rule="evenodd" clip-rule="evenodd" fill="#FFFFFF" d="M148.581,525.688c-0.73,4.037-4.916,6.161-9,4
		C139.615,523.96,145.742,520.738,148.581,525.688z"/>
	<path fill-rule="evenodd" clip-rule="evenodd" fill="#FFFFFF" d="M126.581,530.688c-1.431,5.183-7.945,4.152-11,1
		C116.503,525.716,124.402,525.902,126.581,530.688z"/>
	<path fill-rule="evenodd" clip-rule="evenodd" fill="#FFFFFF" d="M160.581,528.688c-0.844,3.014-5.638,5.632-9,3
		C152.234,527.623,157.804,524.936,160.581,528.688z"/>
	<path fill-rule="evenodd" clip-rule="evenodd" fill="#FFFFFF" d="M101.581,528.688c1,0,2,0,3,0c1.151,1.182,1.132,3.535,1,6
		c-2.599-0.599-3.599,0.401-3,3C97.937,536.105,98.623,531.868,101.581,528.688z"/>
	<path fill-rule="evenodd" clip-rule="evenodd" fill="#FFFFFF" d="M138.581,534.688c0.479,3.146-1.424,3.909-2,6
		c-4.557,1.223-3.923-2.743-8-2C129.604,535.296,134.873,532.219,138.581,534.688z"/>
	<path fill-rule="evenodd" clip-rule="evenodd" fill="#FFFFFF" d="M112.581,535.688c2.097,1.902,5.275,2.725,5,7
		c-3.332,0.335-4.436,2.897-9,2c0.368-1.701-0.78-1.887-2-2C107.693,539.466,110.34,537.781,112.581,535.688z"/>
	<path fill-rule="evenodd" clip-rule="evenodd" fill="#FFFFFF" d="M148.581,538.688c-0.102,2.545-3.727,2.362-5,1
		C143.683,537.143,147.308,537.326,148.581,538.688z"/>
	<path fill-rule="evenodd" clip-rule="evenodd" fill="#FFFFFF" d="M128.581,544.688c-0.758,2.575-3.192,3.475-7,3c0-1,0-2,0-3
		C122.916,543.261,127.247,543.261,128.581,544.688z"/>
	<path fill-rule="evenodd" clip-rule="evenodd" fill="#FFFFFF" d="M126.581,569.688c-9.844-0.49-13.259-7.408-17-14
		c1.992-4.812,6.638,0.089,10,0C119.421,562.395,128.368,564.609,126.581,569.688z"/>
	<path fill-rule="evenodd" clip-rule="evenodd" fill="#FFFFFF" d="M371.581,564.688c-2.236,6.764-4.21,13.79-15,12
		C347.662,567.081,364.279,552.277,371.581,564.688z"/>
	<path fill-rule="evenodd" clip-rule="evenodd" d="M334.581,583.688c-3.196,3.463-11.544,5.438-18,4c-7.087-1.578-17.839-2.304-30-2
		c-2.035,0.051-1.958,1.622-4,2c-7.837,1.451-25.316-0.861-37,0c-9.844,0.726-18.573,1.064-30,0c-16.784-1.563-36.863-2.413-36-21
		c19.626-0.654,48.677,5.562,76,4c7.121-0.407,14.314-1.77,21-2c9.183-0.316,17.805-0.653,26,0
		C314.593,569.646,333.134,569.495,334.581,583.688z"/>
	<path fill-rule="evenodd" clip-rule="evenodd" fill="#FFFFFF" d="M311.581,12.688c-4.55,6.124-20.634,9.362-21,23
		c-2.359,8.308-12.565,8.768-19,13c-4.727-2.94-3.817-11.516-5-18c-8.409-6.805-21.354-7.068-34-6c-15.781,1.333-34.57,5.282-51,4
		c0.21-4.79,7.782-2.218,9-6c17.679-1.321,30.478-7.522,48-9c3.512,2.822,7.745,4.921,11,8
		C266.306,20.436,294.956,12.687,311.581,12.688z"/>
	<path fill-rule="evenodd" clip-rule="evenodd" fill="#FFFFFF" d="M40.581,83.688c0.782,4.802-2.251,14.401-3,21
		C26.255,101.766,37.657,87.93,40.581,83.688z"/>
	<path fill-rule="evenodd" clip-rule="evenodd" fill="#FFFFFF" d="M399.581,163.688c2.037,7.296,9.133,9.534,12,16
		c-2.159,7.84-11.398,8.602-11,19c0.354,1.313,1.761,1.573,2,3c13.788,0.938,17.503-12.913,28-12c-0.699,13.354-22.778,13.849-25,29
		c11.578,2.568,17.62-18.62,30-12c-3.468,7.865-15.309,7.358-15,19c8.047-0.324,14.03-10.987,23-4c-1.726,4.792-3.598,1.034-8,1
		c-5.416,3.251-10.609,6.724-13,13c-0.049,3.382,2.328,4.338,4,6c3.891-0.776,8.187-1.146,10-4c5.098,1.259,4.555,6.37,6,11
		c2.585,8.283,4.111,12.954,5,25c1.054,14.293,3.608,28.437,2,46c-0.305,3.326-1.4,7.062-2,13c-0.736,7.284-3.65,12.557-6,20
		c-1.226,3.883-1.935,8.252-3,11c-0.396,1.022-2.757,1.456-3,2c-0.598,1.335,0.728,3.744,0,5c-1.605,2.77-6.489,6.525-6,13
		c-2.846,1.821-3.647,5.686-7,7c-0.885,3.587-3.139,8.408-5,12c-0.362,0.7-2.057-0.483-2,1c0.22,5.697-14.819,16.135-21,22
		c-1.294,1.228-1.821,4.069-3,5c-1.456,1.149-7.854,3.649-10,5c-3.028,1.906-5.745,3.354-8,6c-6.815,1.185-12.359,3.641-16,8
		c-12.071,1.435-23.475,9.438-37,11c-2.297,0.266-5.562-0.438-8,0c-4.112,0.737-7.931,3.326-12,4c-3.289,0.545-6.722-0.234-10,0
		c-9.331,0.666-16.706,2.799-26,2c-0.416-0.036-4.837,0.052-5,0c-1.073-0.343-0.692-1.873-2-2c-8.835-0.855-19.546,2.463-27-4
		c-18.191-1.185-32.437-2.998-48-10c-1.21-0.544-1.871-2.629-3-3c-3.053-1.004-6.227,0.135-9-1c-1.099-0.45-2.486-2.283-4-3
		c-3.979-1.885-10.479-3.638-15-6c-2.092-1.094-4.028-3.933-6-5c-5.322-2.881-11.821-4.84-17-9c-5.416-4.351-15.157-9.56-22-14
		c-0.553-4.113-2.866-6.468-3-11c-2.322-1.345-5.678-1.655-8-3c-0.798-1.868-1.671-3.662-2-6c-9.823-1.844-9.395-13.938-16-19
		c-1.068-5.735,1.392-7.941,2-12c-8.491-0.021-16.928-1.207-27-2c-6.368-7.722-16.204-10.649-20-19c-0.617-1.358,0.385-3.545,0-5
		c-3.258-12.323-1.673-26.533,5-36c7.973-11.311,22.605-20.181,31-24c-3.191,11.043-20.762,13.627-23,24
		c-3.603,16.697,17.952,10.778,28,17c-9.106,4.366-16.594,0.336-26,3c-1.604,12.606,11.195,11.861,22,15
		c4.072,1.183,10.234,7.063,17,6c-1.428-11.653-14.926-6.188-21-14c2.205-5.903,11.228-1.478,17-2c5.421-13.098-10.809-13.184-16-19
		c2.365-4.302,2.672-10.661,6-14c-2.757-8.059,0.434-10.031,0-20c0.441-2.892,2.108-4.559,5-5c0-2.333,0-4.667,0-7
		c4.295-5.038,8.71-9.956,11-17c0.169-2.503-1.536-3.13-3-4c3.033-6.264,6.6-10.622,11-16c6.265-7.657,13.912-17.853,20-27
		c3.926-5.899,8.301-13.441,15-18c1.02-1.314,0.98-3.686,2-5c12.372-10.628,22.267-23.733,34-35c5.167,0.167,4.62-5.38,10-5
		c5.751-9.249,15.46-14.54,22-23c4.426-1.574,7.605-4.395,11-7c13.56,6.567,28.187,10.869,50,12c19.431,1.008,40.748,4.591,55,0
		c3.85-1.24,7.33-6.127,11-6c4.879,0.17,8.133,7.416,13,11c1.161,0.855,3.729,1.214,5,2c1.618,1,2.564,2.179,4,3
		c3.496,2.001,7.498,2.912,9,4c2.538,1.839,3.658,5.095,6,7c3.31,2.693,7.237,3.567,10,6c1.071,0.943,0.53,2.716,2,4
		c0.663,0.58,3.422,0.347,4,1c0.9,1.017,0.048,3.082,1,4C386.596,153.49,394.031,157.81,399.581,163.688z M249.581,191.688
		c-5.2,10.984,5.572,17.649,7,28c-9.277,2.39-15.288,8.045-26,9c-7.28-7.387-3.717-25.617-16-28c-5.452,12.436,9.21,19.422,9,33
		c-2.084,4.008-6.681,3.528-10,6c-5.438,4.049-8.224,11.244-14,15c-10.263,34.056,19.179,51.843,49,46
		c6.248,9.418,6.671,24.662,11,36c-13.508,9.897-31.255-16.903-44-14c-7.022,1.6-8.415,10.157-5,17
		c12.038,10.066,29.252,11.457,51,10c9.19,6.653,0.973,30.1,16,30c5.339-10.318-5.699-18.043-5-30c8.669-1.181,17.815-4.711,29-6
		c4.408,9.258,3.517,23.816,11,30c8.822-2.169,1.832-8.413,4-16c-4.47-4.939-5.678-13.577-7-19c3.451-1.216,3.345-5.989,9-5
		c2.946-6.763,8.338-6.594,12-11c1.157-1.392,1.933-6.246,4-9c1.16-1.546,3.393-1.664,4-3c2.295-5.049,3.404-12.763,4-17
		c1.826-12.99-5.949-18.184-14-23c-11.227-6.717-30.003-10.038-46-8c-6.24-8.76-8.144-21.857-13-32
		c24.399-10.445,28.758,13.027,51,9c2.018-3.649,7.85-3.483,6-11c-1.119-4.547-8.232-3.101-8-9c-20.424-4.929-30.872-6.212-53-3
		c-5.095-6.905-8.112-15.888-11-25C252.914,191.688,251.248,191.688,249.581,191.688z M49.581,340.688c6.618,3.88,24.314,4.843,34,5
		c0-1.667,0-3.333,0-5c-12.398-2.209-23.685-4-34-6C49.581,336.688,49.581,338.688,49.581,340.688z M54.581,346.688
		c-1.376-0.043-2.196,0.471-3,1c-0.265,3.265,3.88,2.12,4,5c3.746,0.486,7.756,0.504,11,1c4.759,0.728,12.824,4.639,17,0
		C78.585,346.512,61.987,349.896,54.581,346.688z M112.581,370.688c8.23,2.959,13.547-11.091,10-17
		C114.139,354.247,112.132,361.239,112.581,370.688z M209.581,406.688c7.153,0.819,9.008-3.658,11-8c-0.309-2.358-3.473-1.86-3-5
		C211.582,394.978,206.585,399.323,209.581,406.688z M149.581,410.688c4.737-2.534,7.514-10.921,4-16
		C146.14,393.508,141.505,408.671,149.581,410.688z"/>
	<path fill-rule="evenodd" clip-rule="evenodd" d="M325.581,11.688c-4.574,5.092-10.824,8.509-18,11c2.271,3.797,6.859,0.974,10,0
		c10.258-3.18,22.734-11.702,36-14c6.067-1.051,11.081-1.037,19-1c1.721,0.008,4.771-0.358,6,0c9.046,2.633,15.726,14.593,9,25
		c-4.072,1.594-6.77,4.564-8,9c-4.952,1.048-7.328,4.672-9,9c-2.826-0.826-2.591,1.409-5,1c-7.181,12.152-19.852,18.815-27,31
		c5.536,0.974,9.519-4.133,15-6c2.341-0.797,5.331-0.298,8-1c2.175-0.572,3.797-2.291,6-3c11.653-3.753,27.807-5.532,38-5
		c8.187,0.427,19.036,2.838,18,12c-0.629,5.559-8.071,6.998-13,10c-1.855,1.13-2.4,3.347-4,4c-2.847,1.161-6.568,1.018-10,2
		c-1.287,0.368-2.846,1.772-4,2c-18.737,3.696-35.7-1.229-53,2c-3.986,0.319-7.389,0.055-9-2c-1.83,2.33,1.73,5.674,6,5
		c0.708,4.625,6.862,3.805,8,8c1.667,0,3.333,0,5,0c20.553,14.447,40.773,29.226,56,49c9.314,2.019,16.998,5.669,25,9
		c3.549,8.829,1.548,17.075,8,23c1.069,3.736-2.483,2.85-2,6c1.748,2.918,4.738,4.595,7,7c0.769,3.769-1.22,4.78-1,8
		c3.09,2.91,8.597,3.403,10,8c-0.1,5.9-4.745,7.255-7,11c-1.315,5.8,3.278,10.065,5,15c0.517,1.481-0.366,3.468,0,5
		c0.644,2.69,3.386,5.532,4,8c2.614,10.508,0.736,23.212,2,35c1.051,9.81,2.272,24.667,0,38c-1.146,6.729-1.986,14.322-4,21
		c-0.953,3.162-3.904,5.775-5,9c-1.783,5.247-1.267,11.485-3,16c-4.67,12.165-15.104,20.707-18,31c-3.14-0.473-2.642,2.691-5,3
		c-6.055,13.945-21.62,18.38-29,31c-3.979-1.79-5.131,2.909-7,4c-2.424,1.415-6.426,0.403-7,4c-10.775,2.558-18.446,8.22-28,12
		c9.4,12.266,19.512,23.822,24,41c4.674-0.66,7.34-3.326,8-8c7.446-2.409,11.29-13.45,20-13c4.839,0.25,7.54,4.855,12,8
		c0.42,4.58-1.288,11.288,2,13c-3.7,2.451-1.314,6.953-2,10c-1.666,7.412-6.719,13.021-8,20c-4.625,1.375-7.027,4.973-9,9
		c-10.936,1.398-15.602,9.064-23,14c6.604,11.861-3.355,21.09-8,28c-16.671,1.59-26.694-11.005-35-21c-0.535-7.868,0.39-14.277,4-18
		c-3.217-3.116-5.065-7.602-11-8c-3.678,2.656-3.396,9.271-6,13c-8.561,1.227-7.657-7.009-15-7c-19.072-21.594-41.562-39.772-61-61
		c-10.822-1.912-25.722-4.853-36-4c-2.734,2.932-4.4,6.934-4,13c-1.45,5.217-7.163,6.171-7,13c-20.085,19.582-38.474,40.859-69,50
		c3.133,8.149,13.369,9.496,16,19c0.541,1.955-2.253,2.021-3,7c-22.693,6.673-39.043-6.662-47-21c-1.517-8.371,3.467-17.372-2-21
		c-3.866,0.801-4.755,4.578-7,7c-1.333,0-2.667,0-4,0c-12.559-11.226-2.967-29.345,6-38c1.076-19.925,14.088-27.912,25-38
		c10.947,0.386,5.062,17.604,14,20c4.41-4.833-2.769-9.812-5-14c1.12-9.854-9.658-17.869-2-25c6.405-0.565,6.441,5.324,12,3
		c-6.175-8.802-18.104-10.339-26-17c-5.375-4.534-8.332-11.231-15-14c-12.572-17.428-29.292-30.708-35-55
		c-9.287-7.507-20.992-14.52-27-28c-1.079-2.42-3.407-5.335-4-7c-0.729-2.044,1.327-2.794,1-4c-0.208-0.766-1.86-0.679-2-2
		c-1.754-16.513,5.575-22.207,10-36c5.926-1.407,7.899-6.767,13-9c0-2.667,0-5.333,0-8c3.484-7.183,6.12-15.214,7-25
		c3.947-3.386,6.402-8.264,7-15c4.272-2.062,5.212-7.454,7-12c-1.758-4.242-6.102-5.898-9-9c-8.338-1.031-14.642,2.536-21,1
		c-6.11-1.476-7.061-8.131-13-9c-0.759-7.341-7.646-10.769-7-18c0.437-4.891,5.553-8.7,8-13c-6.619-5.715-10.638-14.029-18-19
		c-7.113-12.107-7.406-26.601-1-39c3.624-0.376,5.016-2.984,6-6c7.074,0.074,8.297-5.703,13-8c-0.146-7.277,5.025-17.544,8-25
		c16.2-8.312,27.385-26.371,53-22c10.246,8.088,27.404,9.262,40,15c1.408,2.592,3.383,4.617,5,7c2.847-1.869,8.71,0.159,11,2
		c0.101,3.101-1.223,4.777-2,7c-12.188-4.834-18.652,0.176-29,4c-1.958-1.869-0.309-3.663,0-6c-4.276,1.492-15.638,9.063-24,4
		c-6.461,0.81-10.667,7.768-17,3c-4.954,4.046-6.266,11.734-17,10c-4.35,5.983-4.326,16.341-12,19c-17.507-2.958-35.015,9.731-28,25
		c4.381-4.953,4.366-14.3,16-12c0.562,6.438,3.172,10.828,9,12c-0.599,9.918,9.085,11.498,6,21c-1.121,2.879-7.319,0.681-8,4
		c3.884,3.783,13.236,2.097,14,9c-7.023,2.647-10.309-5.084-19-2c-4.464,1.584-7.171,7.88-7,12c0.577,13.876,36.438,27.28,37,6
		c6.794-1.127,3.027,8.306,4,13c1.088,3.246,4.893,3.774,7,6c2.754-3.246,6.13-5.87,7-11c5.178-1.51,5.974-7.246,9-11
		c1.551-1.924,4.491-3.023,6-5c2.913-3.817,4.598-8.901,8-13c3.792-4.568,10.676-11.419,14-18c4.714-0.933,4.899-2.924,10-8
		c2.134-2.124,5.528-4.117,7-6c0.967-1.237,0.979-3.889,2-5c3.187-3.467,7.604-4.378,8-8c0.504-4.616-3.476-7.821-7-12
		c-5.413,1.587-11.579,2.421-19,2c-0.939-3.728-3.777-5.556-3-11c4.11-4.062,14.508-0.694,17-4c-1.672-4.995-9.478-3.855-8-12
		c8.335-1.669,6.995,6.339,13,7c1.378,5.289,5.01,8.324,8,12c-0.539,6.206,3.611,7.722,4,13c22.929-10.071,39.852-26.148,65-34
		c14.203,8.433,33.994,9.842,55,12c10.621,1.091,22.209,2.898,33,2c1.707-0.142,3.918-1.795,6-2c6.086-0.598,17.369-0.287,21-7
		c-6.51-0.964-12.228,3.662-19,5c-1.826,0.361-3.673-1.012-4-1c-1.845,0.067-3.584,1.891-5,2c-31.834,2.454-59.764-5.277-82-12
		c-7.926-6.436-12.879-15.75-20-23c-1.694-1.725-3.961-4.237-7-4c-5.169-14.164-17.836-20.831-26-32c-1.36-6.027,1.976-7.358,2-12
		c24.603-3.38,49.4-14.37,79-16c1.846,3.487,4.109,6.558,7,9c15.129-1.379,28.771-9.043,44-11
		C308.197-0.933,320.806-0.564,325.581,11.688z M249.581,21.688c-3.255-3.079-7.488-5.178-11-8c-17.522,1.478-30.321,7.679-48,9
		c-1.218,3.782-8.79,1.21-9,6c16.43,1.282,35.219-2.667,51-4c12.646-1.068,25.591-0.805,34,6c1.183,6.484,0.273,15.06,5,18
		c6.435-4.232,16.641-4.692,19-13c0.366-13.638,16.45-16.876,21-23C294.956,12.687,266.306,20.436,249.581,21.688z M366.581,16.688
		c-6.737,0.134-15.304,0.973-20,2c-1.694,0.371-3.156,2.365-5,3c-3.174,1.094-7.754,0.067-11,1c-1.619,0.465-2.9,2.206-5,3
		c-6.604,2.499-13.516,3.678-19,6c-5.428-0.095-12.019-1.352-10,6c8.397,0.397,10.93-5.07,20-4c1.952,3.381,5.023,5.644,7,9
		c9.099,1.37,14.49-1.797,20-3c3.875-0.846,8.161-0.26,11-1c3.521-0.918,6.789-3.849,10-5c3.505-1.256,7.574-1.149,11-3
		c2.676-1.445,6.132-3.931,7-7C381.737,15.782,372.699,16.566,366.581,16.688z M213.581,36.688c-9.909,0.483-20.366-4.056-27,2
		c6.563,5.77,11.526,13.141,20,17c-0.075,1.742,0.223,3.11,1,4c15.392,7.944,20.204,31.794,43,29c-9.887-7.78-15.9-19.433-25-28
		c-1.296-5.966-5.104-9.106-4-15c0.983-5.25,7.323-6.731,9-11C224.357,34.813,219.209,36.414,213.581,36.688z M233.581,50.688
		c7.404,3.912,23.157,1.98,30-1c-1.689-2.311-2.591-5.409-2-10C249.295,38.684,242.07,42.281,233.581,50.688z M300.581,47.688
		c-0.902,3.765-5.198,4.135-10,4c-10.771,10.229-29.276,12.724-48,15c6.562,8.105,17.403,11.93,18,26
		c24.165,1.728,42.819,2.801,62-4c12.567-13.433,25.524-26.475,38-40c-14.983,2.816-32.124,5.526-47,1
		c-9.117,5.549-8.598,20.736-17,27c0.357,5.357-2.49,7.51-8,7c0.03-12.637,10.006-15.327,11-27c4.32-0.68,3.896-6.104,6-9
		C303.914,47.688,302.248,47.688,300.581,47.688z M351.581,87.688c8.833,3.042,19.793,0.152,25-1c3.778-0.836,6.884-1.194,10-2
		c7.249-1.875,17.115-1.372,20-8C388.263,76.406,363.743,78.49,351.581,87.688z M37.581,104.688c0.749-6.599,3.782-16.198,3-21
		C37.657,87.93,26.255,101.766,37.581,104.688z M380.581,147.688c-0.952-0.918-0.1-2.983-1-4c-0.578-0.653-3.337-0.42-4-1
		c-1.47-1.284-0.929-3.057-2-4c-2.763-2.433-6.69-3.307-10-6c-2.342-1.905-3.462-5.161-6-7c-1.502-1.088-5.504-1.999-9-4
		c-1.436-0.821-2.382-2-4-3c-1.271-0.786-3.839-1.145-5-2c-4.867-3.584-8.121-10.83-13-11c-3.67-0.127-7.15,4.76-11,6
		c-14.252,4.591-35.569,1.008-55,0c-21.813-1.131-36.44-5.433-50-12c-3.395,2.605-6.574,5.426-11,7c-6.54,8.46-16.249,13.751-22,23
		c-5.38-0.38-4.833,5.167-10,5c-11.733,11.267-21.628,24.372-34,35c-1.02,1.314-0.98,3.686-2,5c-6.699,4.559-11.074,12.101-15,18
		c-6.088,9.147-13.735,19.343-20,27c-4.4,5.378-7.967,9.736-11,16c1.464,0.87,3.169,1.497,3,4c-2.29,7.044-6.705,11.962-11,17
		c0,2.333,0,4.667,0,7c-2.892,0.441-4.559,2.108-5,5c0.434,9.969-2.757,11.941,0,20c-3.328,3.339-3.635,9.698-6,14
		c5.191,5.816,21.421,5.902,16,19c-5.772,0.522-14.795-3.903-17,2c6.074,7.812,19.572,2.347,21,14c-6.766,1.063-12.928-4.817-17-6
		c-10.805-3.139-23.604-2.394-22-15c9.406-2.664,16.894,1.366,26-3c-10.048-6.222-31.603-0.303-28-17
		c2.238-10.373,19.809-12.957,23-24c-8.395,3.819-23.027,12.689-31,24c-6.673,9.467-8.258,23.677-5,36c0.385,1.455-0.617,3.642,0,5
		c3.796,8.351,13.632,11.278,20,19c10.072,0.793,18.509,1.979,27,2c-0.608,4.059-3.068,6.265-2,12c6.605,5.062,6.177,17.156,16,19
		c0.329,2.338,1.202,4.132,2,6c2.322,1.345,5.678,1.655,8,3c0.134,4.532,2.447,6.887,3,11c6.843,4.44,16.584,9.649,22,14
		c5.179,4.16,11.678,6.119,17,9c1.972,1.067,3.908,3.906,6,5c4.521,2.362,11.021,4.115,15,6c1.514,0.717,2.901,2.55,4,3
		c2.773,1.135,5.947-0.004,9,1c1.129,0.371,1.79,2.456,3,3c15.563,7.002,29.809,8.815,48,10c7.454,6.463,18.165,3.145,27,4
		c1.308,0.127,0.927,1.657,2,2c0.163,0.052,4.584-0.036,5,0c9.294,0.799,16.669-1.334,26-2c3.278-0.234,6.711,0.545,10,0
		c4.069-0.674,7.888-3.263,12-4c2.438-0.438,5.703,0.266,8,0c13.525-1.562,24.929-9.565,37-11c3.641-4.359,9.185-6.815,16-8
		c2.255-2.646,4.972-4.094,8-6c2.146-1.351,8.544-3.851,10-5c1.179-0.931,1.706-3.772,3-5c6.181-5.865,21.22-16.303,21-22
		c-0.057-1.483,1.638-0.3,2-1c1.861-3.592,4.115-8.413,5-12c3.353-1.314,4.154-5.179,7-7c-0.489-6.475,4.395-10.23,6-13
		c0.728-1.256-0.598-3.665,0-5c0.243-0.544,2.604-0.978,3-2c1.065-2.748,1.774-7.117,3-11c2.35-7.443,5.264-12.716,6-20
		c0.6-5.938,1.695-9.674,2-13c1.608-17.563-0.946-31.707-2-46c-0.889-12.046-2.415-16.717-5-25c-1.445-4.63-0.902-9.741-6-11
		c-1.813,2.854-6.109,3.224-10,4c-1.672-1.662-4.049-2.618-4-6c2.391-6.276,7.584-9.749,13-13c4.402,0.034,6.274,3.792,8-1
		c-8.97-6.987-14.953,3.676-23,4c-0.309-11.642,11.532-11.135,15-19c-12.38-6.62-18.422,14.568-30,12
		c2.222-15.151,24.301-15.646,25-29c-10.497-0.913-14.212,12.938-28,12c-0.239-1.427-1.646-1.687-2-3
		c-0.398-10.398,8.841-11.16,11-19c-2.867-6.466-9.963-8.704-12-16C394.031,157.81,386.596,153.49,380.581,147.688z
		 M420.581,177.688c-0.754,8.246-8.452,9.548-12,15c7.357-0.755,17.981-6.603,19-17c-3.296-3.038-5.785-6.881-13-6
		C413.14,175.795,417.415,176.187,420.581,177.688z M128.581,468.688c4.013,1.555,5.845,4.043,10,1
		C141.394,458.954,124.255,460.065,128.581,468.688z M148.581,476.688c3.418-1.249,4.664-4.67,4-10c-4.077,0.743-3.443-3.224-8-2
		C138.611,470.382,139.985,474.578,148.581,476.688z M338.581,472.688c3.988-0.988,3.012,2.988,7,2c0.013-1.987,2.729-1.271,2-4
		C345.44,467.457,337.142,463.766,338.581,472.688z M163.581,478.688c-0.42-4.087,3.292-4.042,2-9
		C157.145,462.09,147.054,482.236,163.581,478.688z M168.581,479.688c4.623,3.11,9.888-0.408,10-5
		C175.322,469.552,167.944,472.643,168.581,479.688z M327.581,472.688c-1.42,2.958,4.638,9.215,8,5
		C334.835,474.304,331.195,470.051,327.581,472.688z M182.581,482.688c5.017,0.684,6.262-2.405,7-6c-1.479-0.521-2.521-1.479-4-2
		C184.839,477.613,181.369,477.809,182.581,482.688z M296.581,477.688c-0.632,4.489,4.879,6.392,8,4c0-1.333,0-2.667,0-4
		C302.234,475.326,299.668,477.85,296.581,477.688z M147.581,481.688c0.078-3.744-3.922-3.411-7-4
		C138.088,480.29,144.468,484.693,147.581,481.688z M315.581,479.688c1.096,3.57,3.43,5.904,7,7
		C330.833,484.187,320.893,474.247,315.581,479.688z M345.581,479.688c1.774,3.893,3.97,7.364,9,8c0.168-1.165,1.581-1.086,3-1
		C356.021,482.329,351.114,476.834,345.581,479.688z M262.581,483.688c3.115,3.552,8.14,5.193,12,8c0.932-2.402,4.019-2.647,3-7
		C272.975,483.766,266.017,476.914,262.581,483.688z M287.581,482.688c0.66,4.674,3.326,7.34,8,8
		C297.984,485.457,293.355,479.998,287.581,482.688z M151.581,483.688c0.104,3.896,4.343,3.657,8,4c-0.043-1.377,0.471-2.196,1-3
		C157.771,483.299,154.832,482.044,151.581,483.688z M338.581,490.688c3.19-0.594,3.093,1.877,5,0c1.923-2.041-1.789-4.087-2-7
		c-1.667,0-3.333,0-5,0C335.593,487.676,339.569,486.7,338.581,490.688z M164.581,492.688c3.056-0.723,3.644,1.022,6,1
		c0.385-2.615,3.207-2.794,2-7C168.602,483.948,162.857,486.55,164.581,492.688z M305.581,486.688c-1.47,2.793,5.45,9.228,10,6
		C315.671,487.596,310.196,483.868,305.581,486.688z M175.581,493.688c3.332,4.159,9.374,0.431,8-6
		C178.858,487.632,177.898,491.338,175.581,493.688z M189.581,494.688c0.727-1.686,5.3-4.594,2-7
		C190.854,489.374,186.281,492.282,189.581,494.688z M327.581,489.688c-0.929,5.343,4.109,8.65,8,6
		C336.436,490.419,330.691,487.817,327.581,489.688z M278.581,492.688c1.27,3.73,3.618,6.382,9,6c1.646-5.022-1.922-8.022-7-9
		C280.485,491.259,280.715,493.156,278.581,492.688z M112.581,495.688c0.42,3.58,3.188,4.812,7,5c1.326-1.674,2.649-3.351,2-7
		C117.273,492.547,114.234,490.453,112.581,495.688z M128.581,494.688c3.245,0.422,3.176,4.157,6,5c0.168-1.165,1.581-1.086,3-1
		c-0.075-1.742,0.223-3.11,1-4C136.175,492.503,129.854,489.734,128.581,494.688z M356.581,494.688c1.235,3.098,2.813,5.854,8,5
		c-0.236-4.431-3.067-6.266-6-8C358.49,493.264,356.03,492.471,356.581,494.688z M306.581,499.688c-0.349-4.317-2.683-6.651-7-7
		C295.727,497.338,303.413,502.059,306.581,499.688z M377.581,543.688c5.466-2.377,12.832-7.055,16-10c3.116-2.897,2.124-2.681,5-7
		c0.441-0.663,1.453-1.18,2-2c1.697-2.546,0.899-3.227,2-6c0.278-0.701,2.681-1.245,3-2c3.936-9.298,2.099-19.322-3-24
		c-10.181,1.556-13.508,10.58-18,17c-2.304,3.292-8.099,9.919-8,13c0.021,0.683,2.385,0.971,2,3c-0.709,3.744-3.498,8.574-4,13
		c-5.027,3.64-11.191,6.142-13,13c3.185,0.482,4.185,3.148,8,3C372.216,550.99,376.281,548.722,377.581,543.688z M141.581,499.688
		c1.444,1.223,1.517,3.816,3,5c6.968,1.358,10.122-5.498,8-10C147.91,495.35,143.801,496.575,141.581,499.688z M316.581,499.688
		c1.383,1.617,4.757,1.243,4,5c1.667,0,3.333,0,5,0C327.413,497.636,317.757,491.981,316.581,499.688z M347.581,496.688
		c0.05,3.95,2.05,5.95,6,6C353.637,498.775,349.931,495.069,347.581,496.688z M155.581,507.688c6.046,1.904,9.96-3.015,10-10
		C158.859,493.433,153.598,503.238,155.581,507.688z M132.581,502.688c-1.001-3.677-4.763-3.67-8-2
		C114.854,505.706,134.531,509.851,132.581,502.688z M290.581,500.688c-0.395,6.728,5.056,7.611,9,10c-0.745-3.078,2.745-1.922,2-5
		C296.565,505.214,295.787,497.984,290.581,500.688z M166.581,508.688c5.928,3.47,9.049-1.316,11-7
		C171.087,498.168,169.562,505.645,166.581,508.688z M336.581,504.688c3.37,0.296,2.9,4.434,6,5c0.221-0.779,0.837-1.163,2-1
		c0.674-5.008-2.67-5.996-5-8C339.287,502.727,336.875,502.649,336.581,504.688z M105.581,507.688c2.043,0.957,3.957,2.043,6,3
		c2.899-2.041,2.017-6.631,0-9c-1.333,0-2.667,0-4,0C106.193,502.966,106.969,506.41,105.581,507.688z M310.581,510.688
		c3.988,0.549,3.012,0.549,7,0c0.767-4.767-3.41-4.59-6-6C309.486,507.13,310.151,506.819,310.581,510.688z M133.581,511.688
		c2.203,1.464,4.295,3.039,8,3c1.326-1.674,2.649-3.351,2-7c-3.19,0.857-3.093-1.574-5-2
		C137.546,508.32,134.616,509.056,133.581,511.688z M347.581,513.688c0.03-0.835,3.433,5.534,4,6c1.352,1.111,5.592,1.499,7,2
		c3.309-4.691,4.719-11.281,9-15C360.448,504.052,347.787,508.084,347.581,513.688z M336.581,514.688c-0.727-4.273-2.635-7.365-7-8
		C324.54,510.672,332.667,519.409,336.581,514.688z M114.581,514.688c2.323,0.677,2.677,3.323,5,4c1.212-2.455,4.66-2.674,5-6
		C122.317,507.242,114.799,508.109,114.581,514.688z M97.581,515.688c1.7,1.967,3.068,4.266,6,5c-0.114-3.448,4.114-2.552,4-6
		c-1.603-1.73-3.737-2.93-6-4C100.904,513.011,98.258,513.365,97.581,515.688z M146.581,518.688c2.826-0.826,2.591,1.409,5,1
		c2.422-1.577,4.422-3.577,6-6C153.452,510.673,145.878,511.54,146.581,518.688z M309.581,518.688c0-1.667,0-3.333,0-5
		c-1.313-1.02-3.687-0.98-5-2C300.42,514.874,305.017,518.535,309.581,518.688z M325.581,522.688c0.239-1.427,1.646-1.687,2-3
		c-2.951-1.382-4.049-4.618-7-6C319.149,518.238,321.694,520.936,325.581,522.688z M159.581,521.688c4.887,1.769,7.38-0.982,9-5
		C164.75,512.03,160.31,517.36,159.581,521.688z M124.581,521.688c1.247,2.087,3.923,2.743,5,5c3.571-1.096,5.904-3.43,7-7
		C132.061,515.655,126.633,514.493,124.581,521.688z M108.581,519.688c-2.413,5.078-1.159,8.646,5,7c-0.725-3.059,1.725-2.941,1-6
		C112.139,518.593,112.45,519.258,108.581,519.688z M92.581,524.688c1.307,1.406,5.293,3.595,6,0c-3.16,0.493-0.371-4.962-4-4
		C95.31,523.417,92.594,522.701,92.581,524.688z M311.581,523.688c1.406,3.594,3.357,6.643,8,7
		C320.272,524.209,315.433,520.013,311.581,523.688z M139.581,529.688c4.084,2.161,8.27,0.037,9-4
		C145.742,520.738,139.615,523.96,139.581,529.688z M115.581,531.688c3.055,3.152,9.569,4.183,11-1
		C124.402,525.902,116.503,525.716,115.581,531.688z M151.581,531.688c3.362,2.632,8.156,0.014,9-3
		C157.804,524.936,152.234,527.623,151.581,531.688z M102.581,537.688c-0.599-2.599,0.401-3.599,3-3c0.132-2.465,0.151-4.818-1-6
		c-1,0-2,0-3,0C98.623,531.868,97.937,536.105,102.581,537.688z M128.581,538.688c4.077-0.743,3.443,3.223,8,2
		c0.576-2.091,2.479-2.854,2-6C134.873,532.219,129.604,535.296,128.581,538.688z M106.581,542.688c1.22,0.113,2.368,0.299,2,2
		c4.564,0.897,5.668-1.665,9-2c0.275-4.275-2.903-5.098-5-7C110.34,537.781,107.693,539.466,106.581,542.688z M143.581,539.688
		c1.273,1.362,4.898,1.545,5-1C147.308,537.326,143.683,537.143,143.581,539.688z M121.581,544.688c0,1,0,2,0,3
		c3.808,0.475,6.242-0.425,7-3C127.247,543.261,122.916,543.261,121.581,544.688z M119.581,555.688c-3.362,0.089-8.008-4.812-10,0
		c3.741,6.592,7.156,13.51,17,14C128.368,564.609,119.421,562.395,119.581,555.688z M356.581,576.688c10.79,1.79,12.764-5.236,15-12
		C364.279,552.277,347.662,567.081,356.581,576.688z"/>
</g>
</svg>
