<?xml version="1.0" encoding="UTF-8" standalone="no"?>
<!-- Created with Inkscape (http://www.inkscape.org/) -->

<svg
   xmlns:dc="http://purl.org/dc/elements/1.1/"
   xmlns:cc="http://creativecommons.org/ns#"
   xmlns:rdf="http://www.w3.org/1999/02/22-rdf-syntax-ns#"
   xmlns:svg="http://www.w3.org/2000/svg"
   xmlns="http://www.w3.org/2000/svg"
   xmlns:sodipodi="http://sodipodi.sourceforge.net/DTD/sodipodi-0.dtd"
   xmlns:inkscape="http://www.inkscape.org/namespaces/inkscape"
   width="1303.9679"
   height="613.34589"
   id="svg2"
   version="1.1"
   inkscape:version="0.47 r22583"
   sodipodi:docname="Documento nuevo 1">
  <defs
     id="defs4">
    <inkscape:perspective
       sodipodi:type="inkscape:persp3d"
       inkscape:vp_x="0 : 526.18109 : 1"
       inkscape:vp_y="0 : 1000 : 0"
       inkscape:vp_z="744.09448 : 526.18109 : 1"
       inkscape:persp3d-origin="372.04724 : 350.78739 : 1"
       id="perspective10" />
    <inkscape:perspective
       id="perspective2835"
       inkscape:persp3d-origin="210 : 160 : 1"
       inkscape:vp_z="420 : 240 : 1"
       inkscape:vp_y="0 : 1000 : 0"
       inkscape:vp_x="0 : 240 : 1"
       sodipodi:type="inkscape:persp3d" />
    <inkscape:perspective
       id="perspective2855"
       inkscape:persp3d-origin="210 : 160 : 1"
       inkscape:vp_z="420 : 240 : 1"
       inkscape:vp_y="0 : 1000 : 0"
       inkscape:vp_x="0 : 240 : 1"
       sodipodi:type="inkscape:persp3d" />
    <inkscape:perspective
       id="perspective2867"
       inkscape:persp3d-origin="210 : 160 : 1"
       inkscape:vp_z="420 : 240 : 1"
       inkscape:vp_y="0 : 1000 : 0"
       inkscape:vp_x="0 : 240 : 1"
       sodipodi:type="inkscape:persp3d" />
    <inkscape:perspective
       id="perspective2879"
       inkscape:persp3d-origin="210 : 160 : 1"
       inkscape:vp_z="420 : 240 : 1"
       inkscape:vp_y="0 : 1000 : 0"
       inkscape:vp_x="0 : 240 : 1"
       sodipodi:type="inkscape:persp3d" />
    <inkscape:perspective
       id="perspective2891"
       inkscape:persp3d-origin="210 : 160 : 1"
       inkscape:vp_z="420 : 240 : 1"
       inkscape:vp_y="0 : 1000 : 0"
       inkscape:vp_x="0 : 240 : 1"
       sodipodi:type="inkscape:persp3d" />
  </defs>
  <sodipodi:namedview
     id="base"
     pagecolor="#ffffff"
     bordercolor="#666666"
     borderopacity="1.0"
     inkscape:pageopacity="0.0"
     inkscape:pageshadow="2"
     inkscape:zoom="0.35"
     inkscape:cx="894.15579"
     inkscape:cy="435.18549"
     inkscape:document-units="px"
     inkscape:current-layer="layer1"
     showgrid="false"
     inkscape:window-width="1366"
     inkscape:window-height="687"
     inkscape:window-x="0"
     inkscape:window-y="25"
     inkscape:window-maximized="1" />
  <metadata
     id="metadata7">
    <rdf:RDF>
      <cc:Work
         rdf:about="">
        <dc:format>image/svg+xml</dc:format>
        <dc:type
           rdf:resource="http://purl.org/dc/dcmitype/StillImage" />
        <dc:title></dc:title>
      </cc:Work>
    </rdf:RDF>
  </metadata>
  <g
     inkscape:label="Capa 1"
     inkscape:groupmode="layer"
     id="layer1"
     transform="translate(786.0491,-312.6246)">
    <text
       xml:space="preserve"
       style="font-size:174.77508545px;font-style:normal;font-weight:normal;fill:#000000;fill-opacity:1;stroke:none;font-family:Bitstream Vera Sans"
       x="-783.8006"
       y="464.32938"
       id="text2816"><tspan
         sodipodi:role="line"
         id="tspan2818"
         x="-783.8006"
         y="464.32938"
         style="font-style:normal;font-variant:normal;font-weight:bold;font-stretch:normal;font-family:Nina-dal;-inkscape-font-specification:Nina-dal Medium">Cultura Libre</tspan></text>
    <text
       xml:space="preserve"
       style="font-size:40px;font-style:normal;font-weight:normal;fill:#000000;fill-opacity:1;stroke:none;font-family:Bitstream Vera Sans"
       x="680"
       y="582.36218"
       id="text2820"><tspan
         sodipodi:role="line"
         id="tspan2822"
         x="680"
         y="582.36218"></tspan></text>
    <text
       xml:space="preserve"
       style="font-size:40px;font-style:normal;font-weight:normal;fill:#000000;fill-opacity:1;stroke:none;font-family:Bitstream Vera Sans"
       x="1067.1429"
       y="482.36218"
       id="text2824"><tspan
         sodipodi:role="line"
         id="tspan2826"
         x="1067.1429"
         y="482.36218"></tspan></text>
    <g
       transform="translate(317.99541,82.182986)"
       id="layer1-6"
       style="fill:#800000">
      <path
         d="m -549.98,841.04 c 0.79118,-22.047 10.183,-42.326 14.674,-63.703 7.8363,-35.668 19.131,-70.194 29.953,-104.98 8.2024,-17.09 7.4136,-37.843 -7.9416,-50.83 -10.447,-12.539 -19.668,-26.449 -21.178,-43.007 -6.0323,-16.504 -17.488,-32.265 -15.432,-50.67 3.07,-16.466 -6.2436,-31.398 -5.7781,-47.46 11.292,-12.221 30.288,3.6495 33.212,17.092 6.1366,8.7551 6.0221,29.999 13.861,32.337 2.8531,-19.239 -5.7091,-37.398 -8.1342,-56.277 -0.42233,-17.391 2.1698,-35.014 4.2632,-52.393 -2.9025,-15.91 15.017,-37.289 26.481,-17.219 7.2839,16.336 -2.6324,33.531 -0.0179,50.448 -2.037,8.6348 7.0216,39.029 7.845,15.186 5.6394,-27.711 19.285,-53.57 39.348,-73.623 15.774,-8.5528 26.992,18.276 15.677,29.143 -7.3432,16.211 -20.168,30.534 -23.146,48.35 -0.16682,15.695 12.439,-13.145 17.294,-16.095 12.02,-11.619 18.299,-32.061 35.211,-37.514 19.57,3.937 10.847,30.757 -0.88772,39.42 -8.8591,11.916 -18.956,25.614 -19.436,41.203 -1.3751,7.2762 -2.9771,27.026 5.9965,11.491 7.036,-11.627 20.724,-13.288 29.231,-23.02 8.7347,-10.683 31.485,-23.19 29.486,1.0055 2.7579,7.4474 -5.8317,10.892 -9.6427,15.992 -12.354,10.342 -24.17,21.171 -33.147,34.721 -11.078,15.111 -5.1468,35.193 -7.3239,52.564 -2.5008,25.487 -1.4427,52.207 -13.436,75.631 -11.701,32.808 -13.997,68.586 -16.37,103.28 -1.6478,23.857 -0.0614,47.921 -2.9528,71.675 h -117.73 c 0.007,-0.91666 0.013,-1.8334 0.0195,-2.75 z"
         id="path3295"
         style="fill:#800000" />
    </g>
    <flowRoot
       xml:space="preserve"
       id="flowRoot2840"
       style="font-size:40px;font-style:normal;font-weight:normal;fill:#000000;fill-opacity:1;stroke:none;font-family:Bitstream Vera Sans"><flowRegion
         id="flowRegion2842"><rect
           id="rect2844"
           width="268.57144"
           height="60"
           x="468.57144"
           y="540.93359" /></flowRegion><flowPara
         id="flowPara2846"></flowPara></flowRoot>    <g
       transform="translate(596.22936,70.086402)"
       id="layer1-9"
       style="fill:#800000">
      <path
         d="m -576,842.03 c 8.9197,-35.771 17.384,-71.802 26.985,-107.37 4.435,-22.559 8.3388,-45.346 13.456,-67.83 2.5362,-16.83 10.68,-34.001 3.6842,-50.965 -11.777,-29.929 -8.7896,-62.671 -8.586,-94.081 -1.2704,-24.062 -5.1108,-48.266 -2.5996,-72.347 8.7773,-21.499 25.862,3.1384 21.1,16.847 1.7069,15.715 3.3471,40.418 10.753,50.484 -0.79956,-19.473 -4.0405,-38.975 -0.45553,-58.411 2.84,-16.101 0.17926,-36.185 11.962,-48.58 21.559,-5.9672 13.562,23.01 14.345,35.507 -0.50773,19.006 0.12883,38.198 3.1198,57 1.3586,-34.621 -0.16111,-69.725 6.3965,-103.88 16.283,-17.291 26.225,13.76 23.081,27.552 2.7712,24.016 2.1757,48.151 2.0862,72.261 11.861,-1.7114 11.46,-27.67 15.461,-39.585 5.0592,-16.417 -3.2928,-38.811 10.662,-51.008 21.54,-2.9821 16.596,26.649 17.543,40.468 0.63851,22.63 -1.3767,45.3 -7.5636,67.123 -4.0625,17.367 -0.79144,37.218 13.697,48.75 18.435,-4.5398 27.854,-25.236 43.8,-34.795 15.19,-13.715 38.712,1.8223 18.495,17.039 -8.1331,15.788 -18.065,30.444 -30.314,43.467 -14.819,25.041 -43.677,38.079 -57.801,63.577 -6.6322,22.603 -7.2586,46.601 -10.563,69.887 -4.0732,32.769 -8.3844,65.669 -5.9322,98.762 -1.8951,8.2877 7.5953,26.006 -6.8999,21.88 -41.442,-0.29431 -82.931,0.74303 -124.34,-0.78266 l -1.2918,-0.42243 -0.28536,-0.55151 z"
         id="path3257"
         style="fill:#800000" />
    </g>
    <g
       transform="translate(878.27017,74.676287)"
       id="layer1-1"
       style="fill:#800000">
      <path
         d="m -473.18,839.04 c 1.1346,-14.091 -2.1296,-28.752 1.007,-42.518 -2.8107,-15.146 1.8095,-32.943 -2.0301,-48.732 -3.0021,-23.246 -8.4011,-47.277 -15.432,-69.778 -4.177,-16.166 -10.624,-31.683 -16.173,-47.319 -5.8861,-15.121 -21.702,-23.761 -30.217,-37.466 -9.5593,-13.522 -14.313,-29.604 -25.734,-42.018 -5.3499,-6.455 -22.967,-15.723 -14.643,-24.815 9.1335,-6.4511 19.06,-0.22848 27.965,3.6418 12.359,7.6153 18.764,30.543 36.81,19.209 10.361,-13.226 8.1402,-31.862 8.789,-47.911 0.0104,-16.927 -2.2247,-33.51 -3.7439,-50.182 -0.23522,-10.002 -3.2357,-29.582 9.0854,-32.362 14.172,4.1767 11.523,27.384 13.952,39.799 3.5908,12.165 1.6541,26.488 6.9499,38.451 14.281,11.17 15.609,-14.758 15.99,-24.215 1.7611,-18.567 2.5338,-37.246 4.3059,-55.785 0.56891,-14.304 20.942,-14.476 16.727,1.5362 0.70354,21.347 2.4268,42.793 2.6834,64.091 -1.0543,10.578 1.2198,26.444 9.8956,10.873 6.6339,-14.66 11.72,-29.949 13.801,-45.967 2.6723,-9.8844 3.2979,-37.78 19.242,-26.46 4.5201,4.7591 0.0949,12.059 0.51693,17.982 -2.8097,14.944 -3.5182,28.486 -3.9052,44.076 -0.62515,12.381 0.75575,10.289 5.0476,2.1777 4.3443,-7.2226 6.6163,-15.195 10.82,-23.059 2.7028,-18.265 25.248,-13.906 15.295,3.6445 -2.952,12.297 -7.0711,24.808 -11.821,35.856 -2.7996,9.7752 -7.8135,18.829 -11.706,27.717 -3.9922,14.467 -8.8244,28.896 -12.294,43.758 -1.8372,14.883 -8.3552,28.605 -11.872,42.819 -0.0218,18.647 -3.0036,39.038 6.5187,55.858 4.5624,13.237 8.5556,26.038 11.517,40.086 3.8793,18.832 8.0561,38.028 11.519,56.598 3.142,15.704 5.1179,31.568 8.4946,47.482 -1.0613,7.4524 10.104,27.98 -1.3144,27.684 h -95.662 c -0.12783,-1.5833 -0.25573,-3.1667 -0.38351,-4.75 z"
         id="path3105"
         style="fill:#800000" />
    </g>
    <g
       transform="translate(-765.51983,228.40397)"
       id="layer1-99">
      <path
         d="m 246.29,688.4 c 10.425,-33.531 12.985,-68.77 21.311,-102.79 5.958,-32.43 12.759,-65.281 11.617,-98.372 -3.7191,-28.232 -19.719,-53.569 -20.077,-82.432 -3.4167,-15.677 -2.2402,-33.61 -11.679,-47.153 -12.638,-5.0945 -21.337,-23.737 -1.6471,-24.149 16.115,-4.304 28.413,23.305 34.744,22.134 2.0894,-24.17 3.4061,-49.118 14.713,-71.142 6.5995,-12.612 7.3642,-34.812 24.034,-37.861 20.096,2.9667 7.4984,27.855 5.3338,40.462 -1.7025,12.591 -13.986,34.286 -6.4523,41.781 9.2266,-26.386 23.346,-51.192 38.477,-74.78 10.716,-19.041 33.911,0.99565 19.952,16.179 -10.377,23.249 -23.459,45.535 -28.759,70.658 -5.1858,10.288 1.936,13.492 4.9057,1.6554 8.5485,-21.633 20.813,-41.464 30.393,-62.625 4.4291,-21.615 33.146,-6.0393 20.659,10.832 -7.2659,19.255 -17.097,37.422 -24.437,56.595 -2.0514,7.6529 -11.875,38.265 2.9096,21.82 13.677,-16.048 23.906,-34.485 33.905,-52.92 14.505,-17.721 23.979,9.6661 12.993,21.039 -8.6454,22.102 -19.853,43.101 -31.152,63.885 -8.7545,31.003 -10.035,64.592 -26.553,93.078 -10.895,13.296 -10.762,30.35 -10.429,46.716 -0.0265,49.501 0.94255,98.996 1.475,148.49 -38.733,-0.39295 -77.588,1.0058 -116.24,-1.1054 z"
         id="path3020"
         style="fill:#800000" />
    </g>
    <g
       transform="translate(-1013.9471,208.14474)"
       id="layer1-60"
       style="fill:#800000">
      <path
         d="m 311.74,669.76 c -1.1088,-25.696 0.60244,-51.52 6.9218,-76.505 4.9526,-22.29 6.7962,-45.034 5.612,-67.842 -1.0249,-18.041 0.90922,-36.744 -4.3128,-54.249 -10.54,-13.828 -27.306,-21.927 -41.568,-31.621 -13.253,-8.9051 -18.061,-25.602 -29.894,-36.307 -6.2506,-7.5223 -13.413,-14.179 -20.601,-20.779 10.422,-10.722 27.067,-2.391 36.742,5.4388 7.7219,4.7144 29.143,28.008 25.944,5.3104 -4.4464,-16.212 -11.989,-31.08 -22.061,-44.468 -5.7663,-12.259 -10.965,-25.167 -13.529,-38.444 -9.3994,-17.632 19.318,-21.021 21.209,-3.5921 6.9422,14.075 14.351,27.819 23.861,40.221 4.2088,9.003 15.586,10.74 8.3783,-1.5742 -4.8107,-21.834 -13.487,-43.541 -12.106,-66.178 11.486,-16.291 25.619,8.3579 25.287,20.877 5.8832,16.756 7.6165,35.253 16.961,50.594 14.293,10.139 7.6928,-19.563 9.2029,-28.129 0.001,-11.391 2e-4,-22.782 4.8e-4,-34.173 14.24,-12.249 23.48,10.662 21.737,22.771 1.8139,16.282 0.0766,32.84 2.5302,49.024 14.091,6.7016 18.954,-21.906 26.359,-30.874 0.4388,-14.956 25.952,-19.713 20.927,-1.3156 -5.01,18.302 -17.677,33.932 -20.812,52.683 1.6422,17.256 6.8557,34.694 2.1423,52.019 -2.9235,16.678 -9.8415,33.895 -3.2251,50.637 10.159,38.04 13.83,77.393 19.9,116.22 0.20648,30.003 0.41297,60.005 0.61947,90.008 h -105.46 c -0.25551,-6.5833 -0.51108,-13.167 -0.76656,-19.75 z"
         id="path1"
         style="fill:#800000" />
    </g>
  </g>
</svg>
