<?xml version="1.0" encoding="UTF-8"?>
<!DOCTYPE svg PUBLIC "-//W3C//DTD SVG 1.1//EN" "http://www.w3.org/Graphics/SVG/1.1/DTD/svg11.dtd">
<!-- Creator: CorelDRAW -->
<svg xmlns="http://www.w3.org/2000/svg" xml:space="preserve" width="170.751mm" height="91.4635mm" style="shape-rendering:geometricPrecision; text-rendering:geometricPrecision; image-rendering:optimizeQuality; fill-rule:evenodd; clip-rule:evenodd"
viewBox="0 0 167.49 89.7172"
 xmlns:xlink="http://www.w3.org/1999/xlink">
 <defs>
  <style type="text/css">
   <![CDATA[
    .fil0 {fill:black}
    .fil1 {fill:white}
   ]]>
  </style>
 </defs>
 <g id="Contorno">
  <metadata id="CorelCorpID_0Corel-Layer"/>
  <g id="_48090480">
   <path id="_47261864" class="fil0" d="M135.723 89.7172c-1.13462,-0.709098 -2.12739,-1.27645 -3.12007,-1.84371 0,-0.567259 0,-1.13452 0,-1.70187 0.567259,-0.425419 1.13452,-0.709098 1.84361,-0.992678 -2.69455,-4.11284 -4.82184,-8.50927 -3.68733,-13.6148 4.24232,0 9.00061,4.18867 12.7639,0.425419 0.567357,-0.141839 1.27645,-0.283678 1.98555,-0.283678 0,-5.67278 0.141839,-11.3457 0.28358,-17.0184 -5.10552,-4.53826 -8.08375,-2.55281 -8.08375,-9.78563 3.82917,-11.6293 3.82917,-11.6293 5.81462,-15.4585 -1.56003,-3.54549 -3.40365,-6.38198 -3.68733,-8.08375 -1.13452,-0.283678 -2.26913,-0.567357 -3.26181,-0.850937 -1.41829,1.4182 0.709098,20.4222 0.709098,22.9749 -1.36797,7.66343 -3.12399,9.22396 -11.913,9.50205 -3.54549,-0.837498 -18.8281,-12.057 -22.4076,-14.1821 -6.66566,3.26181 -13.7566,-8.22569 -18.1531,-6.8074 -2.41097,8.08375 -1.41829,17.5857 -2.41097,26.2368 -4.11284,0 -7.94201,-2.12729 -11.3457,-4.39643 0,-1.84371 0,-1.84371 0.567259,-2.83639 1.13452,-0.283678 1.13452,-0.283678 6.66556,1.27636 3.26191,-8.08375 1.56003,-18.4367 4.39643,-27.2296 6.0983,0 8.65111,7.80007 15.3167,6.94924 0,-5.95656 -6.52372,-16.0258 3.54559,-18.1532 3.82917,0.992776 7.80007,1.98555 11.7711,2.97833 1.56003,-1.70187 3.68733,-3.97101 3.68733,-6.38198 -2.55271,-2.26913 -6.0983,-4.6801 -8.36743,-6.94924 -4.82184,-0.709098 -9.64379,-1.4182 -14.3239,-1.98545 0,-0.283678 0,-0.567357 0,-0.850937 9.64379,-1.70187 21.2731,-0.567259 25.6696,9.21837 -0.28358,4.39643 -0.28358,4.39643 -0.709098,4.96368 2.41097,2.41097 7.51649,1.27636 10.9202,1.27636 -1.27636,-4.25459 -2.69465,-8.36743 -6.8074,-10.3529 6.52372,0.709098 13.1894,1.56003 19.8549,2.41097 6.38188,1.84361 8.50927,2.83639 14.0402,-0.992776 1.56003,0.425517 1.56003,0.425517 2.69465,1.4182 0,9.21837 -18.4367,2.69465 -21.5568,1.56003 -2.26913,-0.28358 -4.53826,-0.425419 -6.8074,-0.567259 2.12729,9.92747 7.94201,6.52372 17.0185,9.50205 1.98545,-0.425517 2.83639,-2.12739 4.96368,-2.55281 0,0.709098 0,1.56003 0.141839,2.41097 -4.39643,4.39643 -4.39643,3.68733 -10.7784,2.97823 3.97101,6.66556 5.10552,5.67278 0.850937,11.7711 -3.12007,10.6366 -3.12007,10.6366 -3.12007,12.4803 3.26191,2.55281 3.26191,2.55281 6.24014,4.11284 9.50195,-6.52382 9.21837,-5.95656 6.94924,-18.0113 -3.54559,-4.96368 -3.54559,-6.8074 0.425419,-11.3457 0.425517,0.141839 0.850937,0.283678 1.4182,0.425517 0,1.84361 -0.141741,2.83639 -1.4182,4.11275 3.26191,9.78563 3.26191,9.78563 3.82917,13.1894 0.425517,0.28358 0.850937,0.567259 1.4182,0.850937 0.992776,6.52372 -4.68001,10.211 -9.50195,13.7566 -1.4182,5.81462 -1.27636,11.9129 -1.56003,17.8694 6.94924,-1.4182 12.1966,-3.26191 19.004,-2.83639 -0.425517,5.67278 -3.26191,10.7784 -6.52382,15.4585 4.11284,0.992678 4.11284,0.992678 6.0983,2.12729 -1.84361,3.82917 -9.92737,3.40365 -9.92737,-2.12729 0.992678,-1.70187 4.68001,-8.36743 3.97091,-10.4948 -3.12007,0.567357 -5.3892,1.70187 -8.79285,1.98555 0.992776,4.6801 -0.141839,7.23282 -2.26913,11.3457 -2.12729,0.28358 -4.39643,1.27636 -6.38198,0.28358 -0.800126,-0.621405 -0.272496,-0.350086 -1.56003,-1.27636 -0.28358,-2.12729 -0.425419,-4.11275 -0.567259,-6.0983 -2.42431,-0.950891 -0.985517,-0.350086 -3.68733,-0.992776 -1.56003,-0.567259 -2.97823,-1.13452 -4.39643,-1.70178 0.992678,2.12729 3.12007,7.51649 5.10552,8.50927 0,1.13452 0,2.41087 0.141839,3.68733 -0.992776,0.141741 -1.98555,0.425419 -2.97823,0.709098z"/>
   <path id="_47709112" class="fil0" d="M98.2819 88.299c0.850937,-3.54559 4.96368,-4.96378 8.08375,-6.38198 3.68733,-2.83639 7.37475,-5.53104 11.0621,-8.22559 0,-0.283678 0,-0.567259 0,-0.709098 -13.8985,3.97101 -26.2369,8.93469 -39.8517,14.1821 -6.38198,0 -6.38198,0 -10.9202,-0.709098 0.283678,-0.567259 0.567357,-1.13452 0.850937,-1.70187 3.68733,0 7.51649,0 11.3457,0 10.7784,-3.97101 21.8405,-10.4947 33.1861,-12.7639 4.6801,-1.98545 8.50927,-2.83639 10.3529,-3.82917 0,-3.97101 -0.992776,-10.0693 -5.95646,-10.7784 -2.24961,4.82135 -2.94645,5.21558 -6.24014,8.50927 -10.211,3.12007 -21.1313,7.94201 -31.9097,7.09107 -5.24736,-1.4182 -10.9202,-1.13462 -15.6002,-2.41097 -0.141839,-0.850937 -0.283678,-1.70187 -0.283678,-2.55281 9.92747,1.13462 20.8477,3.40375 30.7752,1.56003 4.96368,-1.56003 12.9057,-2.83639 15.8839,-7.51649 -6.60808,0 -6.00178,1.60359 -9.78563,-3.26191 -11.0621,2.12739 -23.4005,7.51649 -34.7462,7.51649 -0.992678,-2.97823 -0.992678,-2.97823 -0.992678,-5.10552 2.55271,-1.98545 3.68733,-3.26191 7.09098,-2.83639 0,0.850937 -0.992678,2.12729 -0.992678,3.82917 10.0692,-0.992776 19.4294,-3.82917 29.0732,-6.66556 0.361268,-5.54114 5.97775,-12.3284 12.764,-8.65111 7.80007,3.12007 15.8839,13.1894 15.8839,21.6986 -4.11284,3.11997 -22.1241,14.1821 -22.5496,16.3093 6.8074,-0.992776 13.6148,-1.84371 20.4222,-2.69455 0,1.13452 0,2.26913 0.141839,3.40365 -1.27636,0.992776 -1.27636,0.992776 -2.69455,0.992776 -0.141839,-0.709098 -0.283678,-1.4182 -0.425517,-1.98555 -7.51649,0 -16.4512,2.41097 -23.9677,3.68743z"/>
   <path id="_47717800" class="fil0" d="M13.7566 87.4481c-5.67288,-3.40375 -2.55281,-12.6221 2.69455,-14.3239 -0.992678,-2.97833 -2.97823,-5.10562 -3.82917,-8.22569 -12.3383,0 -7.65833,15.8839 -2.83639,20.7059 -2.69455,0.992776 -2.69455,0.992776 -3.97101,0.992776 -0.141741,-0.850937 -0.28358,-1.56003 -0.425419,-2.26913 0.283678,-0.283678 0.709098,-0.567259 1.13452,-0.850937 -4.53826,-9.92747 -4.53826,-9.92747 -5.3891,-10.6366 -0.425517,0.141839 -0.850937,0.283678 -1.13462,0.425419 0,-3.97091 1.56003,-7.51649 5.67288,-9.36011 3.82917,-8.50927 5.3891,-12.764 2.55271,-21.8405 0,-4.96368 3.12007,-6.24004 2.26913,-11.9129 -7.80017,-2.55281 -7.37465,-8.22559 -5.10552,-15.033 1.24291,-3.27701 5.69799,-7.97271 8.50927,-4.11284 2.83639,5.67288 -0.567357,13.7566 0.567259,20.564 2.77557,-1.18091 0.709098,0.141839 5.3892,-2.83639 1.91012,0.879972 1.56003,16.1676 2.41097,24.2514 0.576773,1.74258 0.465637,1.12392 1.4182,2.55281 4.96368,2.41087 4.96368,6.0983 2.41097,9.78563 -0.567357,-0.141839 -0.992776,-0.141839 -1.4182,-0.141839 0.992678,-3.40375 0.992678,-3.40375 0.709098,-4.96368 -6.94924,-3.40375 -6.24014,-20.1386 -7.23291,-26.8042 -0.425419,-0.141839 -0.709098,-0.283678 -0.992776,-0.283678 -5.53094,5.53104 -1.27636,17.444 -2.26913,24.9605 0.283678,3.12007 0.567357,6.24014 0.992776,9.36021 1.84371,1.27636 3.97101,2.69455 4.82194,4.53826 -4.53826,3.12007 -6.66556,6.24014 -7.37475,11.4875 2.69465,0.283678 3.68743,0.425419 5.10562,2.55281 -2.41097,0 -3.12007,-0.141839 -4.6801,1.4182z"/>
   <path id="_47725648" class="fil0" d="M30.7752 87.4481c-1.84371,-0.850937 -3.68743,-1.70187 -5.53104,-2.41097 0,-0.425517 0,-0.850937 0,-1.13462 0.992776,-0.28358 2.12729,-0.425419 3.26191,-0.567259 -7.80017,-9.78563 -3.54559,-11.3457 5.24736,-16.3093 0.709098,-0.850937 1.56003,-1.70187 2.41087,-2.55281 8.79295,-5.24736 17.3022,-13.0475 19.9968,-23.2587 -1.27636,-0.141741 -2.55271,-0.28358 -3.68733,-0.425419 -3.68733,3.68733 -6.8074,8.93469 -12.4803,8.36743 -1.55994,-8.93469 -3.68733,-17.8694 -2.97823,-26.946 1.27645,-3.11997 2.69465,-6.0983 4.11284,-9.07653 0.283678,0 0.567259,0.141839 0.992776,0.283678 0,3.68733 -1.56003,7.51649 -2.69465,11.062 0.141839,6.0983 0,13.1894 2.41097,18.8623 4.82194,0.28358 7.80017,-6.38198 10.3529,-9.64389 1.84371,0 3.12007,1.4182 5.67288,1.13462 1.4182,-6.94924 0.283678,-15.033 3.40365,-21.415 1.98555,0 3.97101,0 5.95656,0 0.709098,1.13462 1.4182,2.41097 2.12729,3.68733 0,6.24014 -0.283678,14.1821 -6.94924,16.3094 -0.992776,-0.567357 -0.992776,-0.567357 -1.70187,-0.141839 -0.425419,5.95646 -0.850937,5.3892 4.25468,7.94191 7.09098,8.93479 -10.9202,18.5786 -8.50927,28.2224 0.992776,0.709098 2.12729,1.41829 3.26191,2.12739 -0.141839,1.13452 -0.283678,2.41087 -0.425517,3.68733 -2.55281,0.992678 -2.55281,0.992678 -5.10552,0.992678 0.28358,-0.992678 0.567259,-1.98545 0.850937,-2.83639 -3.40375,-4.39643 -3.26191,-4.82184 -3.26191,-10.7784 4.53826,-4.96368 9.50195,-10.9201 10.4947,-17.444 -1.84361,-1.13452 -2.26913,-0.850937 -4.53826,-0.28358 -2.41097,8.79285 -11.7711,14.4657 -18.2949,19.9967 0,1.56003 10.2111,6.24014 11.3457,6.66566 0,0.567259 0,1.13452 0,1.84361 -1.98545,1.84371 -3.82917,2.83639 -10.3529,9.21837 1.4182,1.4182 6.24014,1.4182 8.50927,1.70187 0.141839,0.709098 0.425419,1.4182 0.709098,2.12729 -5.95646,-0.425419 -11.3457,1.84371 -12.1966,-4.39643 0.567259,-0.425517 1.27636,-0.850937 1.98545,-1.27645 0.567259,-4.11275 7.65833,-6.0983 6.8074,-8.79285 -4.82184,-1.84371 -4.82184,-1.84371 -11.9129,-3.26191 -4.82194,3.26191 -4.82194,3.26191 -6.38198,3.68733 -2.26913,5.24746 3.97101,10.0693 4.6801,15.0331 -0.709098,0 -1.27636,0 -1.84361,0z"/>
   <path id="_47722664" class="fil1" d="M146.501 85.0371c-0.567357,-0.141839 -0.992776,-0.283678 -1.41829,-0.425517 -0.28358,-1.56003 -0.567259,-3.11997 -0.709098,-4.53826 1.56003,-1.98545 2.55281,-2.41087 4.96378,-3.11997 0.709098,2.41087 0.709098,2.41087 0.567259,6.24004 -0.948635,0.947556 -0.317127,0.560588 -1.4182,1.4182 -0.709098,0.141839 -1.4182,0.283678 -1.98545,0.425517z"/>
   <path id="_47727360" class="fil1" d="M2.41097 69.4367c1.13452,-2.83639 2.97823,-3.82917 5.24736,-5.67278 1.98545,-5.53104 1.98545,-5.53104 4.25459,-9.50205 0.283678,-0.141741 0.567357,-0.141741 0.992776,-0.141741 -0.141839,2.55271 -0.283678,5.24736 -0.425419,7.94191 -1.98555,1.84371 -6.0983,3.97101 -10.0693,7.37465z"/>
   <path id="_47727200" class="fil1" d="M106.24 57.3732c0.000490453,0 -3.42768,0.0659169 -3.12007,-1.70187 0,-0.709098 0,-1.27636 0,-1.84361 -0.248464,-4.37808 0.935785,-4.35405 3.68733,-5.24736 0.567259,0 1.27636,0 1.98545,0 1.98555,2.55271 3.54559,4.82184 3.12007,8.36743 -1.98545,0.141839 -3.82917,0.28358 -5.67278,0.425419z"/>
   <path id="_47731008" class="fil1" d="M12.3384 52.8437c0,-4.53826 -1.13462,-9.07653 -1.98555,-13.6148 0.485255,-0.996602 0.188236,-0.641513 0.992776,-0.992776 0.283678,0 0.567259,0 0.992776,0 0,3.97101 1.4182,10.9202 0,14.6076z"/>
   <path id="_47732760" class="fil1" d="M120.973 45.3272c-3.40365,-2.26913 -6.8074,-4.39643 -10.0693,-6.52372 -0.141839,-6.8074 2.97823,-12.3384 4.25468,-18.8623 0.567259,-0.709098 1.27636,-1.27636 1.98545,-1.84361 3.97101,4.96368 15.7421,18.4367 14.4657,24.9605 -2.31161,4.96153 -3.06367,4.9783 -10.6366,2.26913z"/>
   <path id="_47734496" class="fil1" d="M133.737 41.0726c-2.97823,-7.51649 -6.38188,-14.324 -11.3457,-20.4223 3.26191,-0.709098 6.38198,-0.567259 9.92747,-0.425419 0.850937,5.67288 4.11284,15.4585 1.4182,20.8477z"/>
   <path id="_47730984" class="fil1" d="M62.4012 29.3015c-3.48016,-5.30877 -2.41431,-12.4059 2.41097,-13.1894 6.52372,2.12739 1.31765,11.8371 -2.41097,13.1894z"/>
   <path id="_47736864" class="fil1" d="M100.267 26.8905c-3.54549,-5.3892 0.425517,-10.3529 6.38198,-9.21837 0.850937,1.56003 1.84361,3.12007 2.83639,4.82194 -1.56003,4.6801 -4.6801,3.82917 -9.21837,4.39643z"/>
   <path id="_47738248" class="fil1" d="M8.21686 25.2975c-1.20936,-0.0179506 -2.90839,-0.323895 -1.70187,-3.54559 0.567357,-2.12729 2.12739,-7.65833 3.40375,-8.93469 0.850937,0 1.90168,-1.55945 2.55281,0.283678 -0.425517,3.54549 -0.850937,7.23282 -1.27645,10.9201 -1.27636,0.992776 -1.27636,0.992776 -2.97823,1.27645z"/>
  </g>
 </g>
</svg>
