<?xml version="1.0" encoding="UTF-8" standalone="no"?>
<!-- Created with Inkscape (http://www.inkscape.org/) -->

<svg
   xmlns:dc="http://purl.org/dc/elements/1.1/"
   xmlns:cc="http://creativecommons.org/ns#"
   xmlns:rdf="http://www.w3.org/1999/02/22-rdf-syntax-ns#"
   xmlns:svg="http://www.w3.org/2000/svg"
   xmlns="http://www.w3.org/2000/svg"
   xmlns:sodipodi="http://sodipodi.sourceforge.net/DTD/sodipodi-0.dtd"
   xmlns:inkscape="http://www.inkscape.org/namespaces/inkscape"
   width="429.73001"
   height="404.82999"
   id="svg10054"
   version="1.1"
   inkscape:version="0.48.2 r9819"
   sodipodi:docname="New document 59">
  <defs
     id="defs10056" />
  <sodipodi:namedview
     id="base"
     pagecolor="#ffffff"
     bordercolor="#666666"
     borderopacity="1.0"
     inkscape:pageopacity="0.0"
     inkscape:pageshadow="2"
     inkscape:zoom="1"
     inkscape:cx="148.86733"
     inkscape:cy="198.41608"
     inkscape:document-units="px"
     inkscape:current-layer="layer1"
     showgrid="false"
     fit-margin-top="0"
     fit-margin-left="0"
     fit-margin-right="0"
     fit-margin-bottom="0"
     inkscape:window-width="1920"
     inkscape:window-height="1018"
     inkscape:window-x="-8"
     inkscape:window-y="-8"
     inkscape:window-maximized="1" />
  <metadata
     id="metadata10059">
    <rdf:RDF>
      <cc:Work
         rdf:about="">
        <dc:format>image/svg+xml</dc:format>
        <dc:type
           rdf:resource="http://purl.org/dc/dcmitype/StillImage" />
        <dc:title></dc:title>
      </cc:Work>
    </rdf:RDF>
  </metadata>
  <g
     inkscape:label="Layer 1"
     inkscape:groupmode="layer"
     id="layer1"
     transform="translate(-204.13267,-291.94767)">
    <path
       inkscape:connector-curvature="0"
       id="path9732"
       d="m 440.74126,583.53493 c -0.2082,0.13099 -0.55154,0.0387 -1.03,-0.2391 -0.4771,-0.27791 -1.08931,-0.74097 -1.85734,-1.31901 -0.76803,-0.57803 -1.69324,-1.27069 -2.79357,-1.98134 -1.10034,-0.71065 -2.37578,-1.43862 -3.81118,-2.06811 -1.39954,-0.61478 -2.95904,-1.13827 -4.62333,-1.49173 -1.6629,-0.35346 -3.42647,-0.53603 -5.19831,-0.49621 -2.09036,0.044 -4.21242,0.40689 -6.20489,1.03269 -1.99108,0.6258 -3.8484,1.51232 -5.46029,2.54153 -1.57053,0.9987 -2.92733,2.13854 -4.06213,3.24971 -1.13619,1.11115 -2.05313,2.19244 -2.79772,3.10835 -0.74458,0.91592 -1.32095,1.66658 -1.78562,2.15728 -0.46468,0.49069 -0.82181,0.72119 -1.08379,0.63672 -0.26198,-0.0845 -0.43021,-0.48539 -0.44537,-1.20521 -0.0138,-0.71983 0.12409,-1.76037 0.53361,-3.04587 0.40815,-1.28552 1.08931,-2.81612 2.14552,-4.42137 1.05621,-1.60524 2.49299,-3.28194 4.33101,-4.78724 1.89042,-1.54493 4.1876,-2.88249 6.72471,-3.80225 2.53849,-0.91974 5.31138,-1.41692 8.05808,-1.4115 2.32062,0.007 4.59437,0.36775 6.67645,0.99868 2.08346,0.63095 3.97251,1.52976 5.5844,2.56049 1.65188,1.05839 3.00179,2.24453 4.05385,3.39368 1.05208,1.14915 1.81045,2.25954 2.32753,3.21137 0.51569,0.95183 0.79422,1.74487 0.89626,2.31859 0.0965,0.57371 0.0275,0.92882 -0.17788,1.05985 z"
       style="color:#000000;fill:#5f5f5f;fill-opacity:0.99990216;fill-rule:nonzero;stroke:none;stroke-width:4.47805357;marker:none;visibility:visible;display:inline;overflow:visible;enable-background:accumulate" />
    <path
       inkscape:connector-curvature="0"
       id="path9734"
       d="m 400.66736,585.14569 c -0.13788,0.23606 -0.58601,0.28449 -1.33887,0.19735 -0.75424,-0.0871 -1.81045,-0.30754 -3.14657,-0.54186 -1.33612,-0.23432 -2.95628,-0.47998 -4.79982,-0.5871 -1.84491,-0.10713 -3.91459,-0.073 -6.08079,0.24383 -2.20204,0.31981 -4.51715,0.93859 -6.76883,1.887 -2.25169,0.9484 -4.43581,2.22524 -6.36759,3.76907 -1.74702,1.39238 -3.30513,3.00834 -4.61506,4.71676 -1.30992,1.70842 -2.37164,3.50673 -3.18793,5.26219 -0.83283,1.78302 -1.41885,3.52961 -1.84215,5.11258 -0.4247,1.58296 -0.68944,3.00261 -0.89351,4.17917 -0.20407,1.17654 -0.34885,2.11141 -0.51708,2.75784 -0.16822,0.64644 -0.36263,1.00535 -0.61083,1.04408 -0.24819,0.0387 -0.55293,-0.24338 -0.87282,-0.86752 -0.3199,-0.62413 -0.65358,-1.5923 -0.89212,-2.89359 -0.23854,-1.30129 -0.37919,-2.93765 -0.27716,-4.83478 0.0965,-1.89716 0.45089,-4.0552 1.18031,-6.3193 0.71839,-2.22794 1.80355,-4.54178 3.27756,-6.74174 1.47262,-2.19996 3.33271,-4.28181 5.49614,-6.0543 2.4006,-1.96337 5.14868,-3.51891 7.98087,-4.57108 2.8308,-1.05217 5.73745,-1.60093 8.45243,-1.7099 2.66947,-0.10465 5.12799,0.20898 7.22386,0.73182 2.09587,0.52282 3.82772,1.2496 5.15832,1.9735 1.32923,0.72387 2.25859,1.44158 2.81978,2.01329 0.55982,0.57172 0.75286,0.99663 0.62186,1.23269 z"
       style="color:#000000;fill:#5f5f5f;fill-opacity:0.99990216;fill-rule:nonzero;stroke:none;stroke-width:4.47805357;marker:none;visibility:visible;display:inline;overflow:visible;enable-background:accumulate" />
    <path
       inkscape:connector-curvature="0"
       id="path9736"
       d="m 358.91126,616.30293 c 0.17787,0.17951 0.11031,0.58745 -0.13789,1.21655 -0.25233,0.62908 -0.69081,1.48195 -1.20789,2.57419 -0.51707,1.09224 -1.10998,2.42728 -1.62981,3.99539 -0.52121,1.56808 -0.96796,3.37098 -1.17341,5.33237 -0.20683,1.93152 -0.17512,4.03255 0.16684,6.16448 0.34334,2.13196 0.9983,4.29093 1.97591,6.29623 1.07276,2.21047 2.55641,4.2578 4.27172,5.98548 1.71669,1.72767 3.65813,3.13112 5.62025,4.15901 1.92902,1.01604 3.89252,1.68326 5.69195,2.11647 1.79941,0.43321 3.43336,0.63532 4.79154,0.75508 1.35818,0.11968 2.44334,0.16102 3.2031,0.25436 0.75838,0.0933 1.19409,0.24224 1.26717,0.50174 0.0689,0.2595 -0.21785,0.63098 -0.91281,1.05539 -0.69494,0.4244 -1.79665,0.89976 -3.30374,1.25663 -1.50573,0.35687 -3.42096,0.59011 -5.63404,0.47422 -2.2117,-0.11597 -4.72399,-0.58752 -7.28316,-1.60635 -2.59777,-1.0395 -5.20244,-2.63855 -7.48722,-4.74966 -2.2834,-2.11112 -4.23863,-4.73026 -5.60922,-7.62704 -1.23684,-2.62683 -1.97867,-5.43458 -2.24341,-8.16536 -0.26474,-2.73076 -0.0552,-5.37928 0.49087,-7.74407 0.55707,-2.40029 1.44644,-4.48308 2.42818,-6.18011 0.98313,-1.69702 2.05451,-3.01117 3.01971,-3.97085 0.96521,-0.95967 1.82286,-1.56922 2.46128,-1.89694 0.63841,-0.32773 1.05758,-0.37674 1.23408,-0.19721 z"
       style="color:#000000;fill:#5f5f5f;fill-opacity:0.99990216;fill-rule:nonzero;stroke:none;stroke-width:4.47805357;marker:none;visibility:visible;display:inline;overflow:visible;enable-background:accumulate" />
    <path
       inkscape:connector-curvature="0"
       id="path9738"
       d="m 385.54676,642.97494 c 0.22475,0.0869 0.30197,0.53606 0.29231,1.32013 0,0.78406 -0.1103,1.90608 -0.13926,3.33439 -0.0276,1.42831 0,3.16728 0.27302,5.12146 0.27577,1.95418 0.79836,4.12548 1.73874,6.30393 0.90592,2.11309 2.21721,4.24896 3.92425,6.18396 1.7084,1.935 3.8098,3.66448 6.17868,4.94101 0,0 0,0 0,0 2.83357,1.53826 6.11663,2.41966 9.36937,2.60837 1.70428,0.0946 3.40442,0.003 5.03561,-0.26119 1.6312,-0.26348 3.19207,-0.69805 4.63574,-1.2754 1.70703,-0.67482 3.26653,-1.55445 4.65091,-2.52629 1.38299,-0.97184 2.59088,-2.03532 3.62503,-3.09493 1.13618,-1.16789 2.06415,-2.333 2.82253,-3.39663 0.75975,-1.06366 1.35129,-2.02629 1.82975,-2.81973 0.47847,-0.79345 0.84662,-1.4182 1.14859,-1.8293 0.30335,-0.41112 0.54051,-0.60869 0.72804,-0.56603 0.18753,0.0426 0.32265,0.32602 0.37919,0.85612 0.0552,0.53009 0.0275,1.3078 -0.14754,2.30845 -0.17512,1.00066 -0.50328,2.22512 -1.06586,3.60478 -0.56395,1.37966 -1.36646,2.91478 -2.47781,4.484 -1.00934,1.42753 -2.27651,2.88448 -3.82497,4.24583 -1.54847,1.36137 -3.3796,2.62599 -5.47271,3.64765 -1.77735,0.86094 -3.72018,1.53441 -5.7664,1.96892 -2.04486,0.43453 -4.19175,0.62976 -6.35657,0.55645 -2.06553,-0.0659 -4.15037,-0.37627 -6.17454,-0.93354 -2.02417,-0.55726 -3.98768,-1.36135 -5.81605,-2.39239 0,0 0,0 0,0 -3.0266,-1.71805 -5.61197,-4.0161 -7.60994,-6.56533 -1.99798,-2.54923 -3.40717,-5.34243 -4.25655,-8.05829 -0.87006,-2.80373 -1.14308,-5.48032 -1.07552,-7.79701 0.0689,-2.3167 0.4702,-4.27555 0.95693,-5.79888 0.48537,-1.52333 1.0507,-2.61625 1.52089,-3.2987 0.47158,-0.68241 0.848,-0.95863 1.07414,-0.87181 z"
       style="color:#000000;fill:#5f5f5f;fill-opacity:0.99990216;fill-rule:nonzero;stroke:none;stroke-width:4.47805357;marker:none;visibility:visible;display:inline;overflow:visible;enable-background:accumulate" />
    <path
       inkscape:connector-curvature="0"
       id="path9740"
       d="m 399.9214,587.90802 c -0.21372,0.0403 -0.42607,0.0855 -0.63565,0.13596 -1.50848,0.36428 -2.89148,0.98466 -4.07868,1.75292 -1.1872,0.76826 -2.18136,1.68319 -2.96318,2.63466 -0.79836,0.97227 -1.37197,1.97274 -1.77046,2.89681 -0.39849,0.92406 -0.62325,1.77178 -0.73907,2.47616 -0.1103,0.70438 -0.12409,1.26607 -0.0827,1.65002 0.0414,0.38395 0.13789,0.59091 0.25647,0.60645 0.1241,0.0155 0.25647,-0.16028 0.42607,-0.48622 0.1696,-0.32596 0.37505,-0.80258 0.65496,-1.38388 0.27991,-0.58131 0.63703,-1.26801 1.11412,-1.99938 0.47571,-0.73136 1.07138,-1.50774 1.81596,-2.2451 0.72804,-0.72287 1.60224,-1.41171 2.60881,-1.99253 1.00657,-0.5808 2.14551,-1.05326 3.36443,-1.33832 0.1696,-0.0399 0.34058,-0.0761 0.51294,-0.10865 1.22167,-0.23048 2.44747,-0.2623 3.60021,-0.14183 1.15272,0.12051 2.23375,0.39318 3.19758,0.76209 1.0438,0.39787 1.95798,0.90954 2.73153,1.43374 0.77492,0.52422 1.4092,1.06101 1.92213,1.52785 0.51294,0.46686 0.90591,0.86396 1.20237,1.12529 0.29784,0.26134 0.50053,0.38671 0.60946,0.32609 0.11031,-0.0605 0.12409,-0.30449 0,-0.70559 -0.11031,-0.4011 -0.35162,-0.95955 -0.75976,-1.61273 -0.40676,-0.6532 -0.98726,-1.4011 -1.77597,-2.14315 -0.78871,-0.74204 -1.78701,-1.47758 -2.99765,-2.07345 -1.11826,-0.54924 -2.4075,-0.97151 -3.80566,-1.17987 -1.39817,-0.20838 -2.90526,-0.20195 -4.41788,0.0826 z"
       style="color:#000000;fill:#5f5f5f;fill-opacity:0.99990216;fill-rule:nonzero;stroke:none;stroke-width:5.45599985;marker:none;visibility:visible;display:inline;overflow:visible;enable-background:accumulate" />
    <path
       inkscape:connector-curvature="0"
       id="path9742"
       d="m 424.80023,668.86595 c 0.25922,-0.12975 0.62876,-0.0274 1.10447,0.25186 0.47571,0.27924 1.06034,0.73426 1.77873,1.27814 0.71976,0.54386 1.57604,1.17623 2.57848,1.78809 1.00243,0.61186 2.15102,1.20219 3.40854,1.64947 1.3306,0.47823 2.80875,0.80309 4.32412,0.91841 1.51675,0.11527 3.06383,0.0205 4.5144,-0.28305 1.59258,-0.32361 3.10244,-0.92195 4.42477,-1.61962 1.32233,-0.69768 2.45575,-1.49128 3.38787,-2.20563 0.93349,-0.71436 1.67117,-1.3485 2.25857,-1.75693 0.58878,-0.40842 1.03553,-0.58893 1.34301,-0.44608 0.30749,0.14287 0.47709,0.61343 0.40539,1.40639 -0.0689,0.79296 -0.3916,1.91066 -1.10447,3.19106 -0.71425,1.28038 -1.83113,2.71858 -3.39614,4.01094 -0.78182,0.64619 -1.67394,1.25411 -2.6612,1.7822 -0.98727,0.52808 -2.07105,0.97589 -3.22379,1.30724 -2.08208,0.5905 -4.34204,0.77818 -6.51788,0.5384 -2.17585,-0.23978 -4.26207,-0.90453 -6.0408,-1.85087 -1.67807,-0.89663 -3.05418,-2.02023 -4.09936,-3.15861 -1.04656,-1.13838 -1.76357,-2.28716 -2.21584,-3.28011 -0.45088,-0.99295 -0.64117,-1.82905 -0.65909,-2.42833 -0.0138,-0.59929 0.1241,-0.96317 0.39022,-1.09297 z"
       style="color:#000000;fill:#5f5f5f;fill-opacity:0.99990216;fill-rule:nonzero;stroke:none;stroke-width:4.47805357;marker:none;visibility:visible;display:inline;overflow:visible;enable-background:accumulate" />
    <path
       inkscape:connector-curvature="0"
       id="path9744"
       d="m 441.23765,652.42699 c 0.31714,-0.0499 0.70185,0.42323 1.21616,1.31878 0.51294,0.89552 1.1679,2.21471 2.12069,3.77667 0.95142,1.56197 2.21308,3.36778 3.87461,5.13138 1.66291,1.76361 3.72844,3.47902 6.13318,4.78726 1.37887,0.75838 2.87769,1.38758 4.44545,1.86206 1.56777,0.47448 3.20173,0.79411 4.8412,0.95094 1.63809,0.15683 3.27893,0.15079 4.86324,-0.007 1.58294,-0.15799 3.10796,-0.46786 4.52957,-0.89993 2.14275,-0.64497 4.06903,-1.55958 5.71263,-2.52623 1.6436,-0.96666 3.00592,-1.9831 4.10488,-2.8627 1.10033,-0.8796 1.94281,-1.62153 2.57846,-2.09201 0.63429,-0.47048 1.06725,-0.66853 1.30441,-0.52567 0.23855,0.14285 0.28129,0.62835 0.0552,1.43865 -0.222,0.8103 -0.71149,1.94669 -1.58431,3.28002 -0.87282,1.33333 -2.13448,2.86229 -3.85393,4.34452 -1.71944,1.48224 -3.90356,2.91242 -6.49306,3.9848 -1.7291,0.7111 -3.61952,1.2512 -5.60232,1.56529 -1.9828,0.31408 -4.05524,0.40165 -6.12904,0.24023 -2.07244,-0.16141 -4.14487,-0.5719 -6.12354,-1.21719 -1.97728,-0.64529 -3.86081,-1.52507 -5.57198,-2.59053 -1.48366,-0.93182 -2.82253,-1.99215 -3.99733,-3.11864 -1.17616,-1.12649 -2.18825,-2.31859 -3.04177,-3.51499 -1.70427,-2.39282 -2.75911,-4.78918 -3.34788,-6.81129 -0.29508,-1.01107 -0.47708,-1.93169 -0.57774,-2.73489 -0.0965,-0.80319 -0.1241,-1.48908 -0.0965,-2.04365 0.0552,-1.10915 0.31162,-1.68575 0.62876,-1.7357 z"
       style="color:#000000;fill:#5f5f5f;fill-opacity:0.99990216;fill-rule:nonzero;stroke:none;stroke-width:4.47805357;marker:none;visibility:visible;display:inline;overflow:visible;enable-background:accumulate" />
    <path
       inkscape:connector-curvature="0"
       id="path9746"
       d="m 478.2229,658.64653 c 0.15994,-0.25285 0.5805,-0.33185 1.22581,-0.2988 0.64393,0.0331 1.51675,0.17481 2.59226,0.30527 1.07414,0.13044 2.3551,0.2469 3.77119,0.21756 1.41609,-0.0294 2.96732,-0.20637 4.50888,-0.64007 1.67394,-0.46272 3.3727,-1.2407 4.91289,-2.28186 1.53881,-1.04115 2.91078,-2.33987 3.97802,-3.75863 1.05759,-1.39084 1.8394,-2.93159 2.39371,-4.40585 0.55568,-1.47425 0.88661,-2.87946 1.11412,-4.07477 0.22614,-1.19531 0.35437,-2.18404 0.51569,-2.89096 0.16271,-0.70694 0.3654,-1.13504 0.67427,-1.22103 0.30887,-0.0859 0.72666,0.17266 1.17479,0.83329 0.44951,0.66063 0.92659,1.72983 1.22167,3.1864 0.29508,1.45658 0.3985,3.30416 0.0689,5.35906 -0.32679,2.05489 -1.09206,4.31166 -2.41577,6.43445 -0.67289,1.07088 -1.47676,2.09172 -2.38957,3.02255 -0.91281,0.93082 -1.93455,1.77126 -3.02936,2.49144 -1.09482,0.72017 -2.26134,1.31984 -3.45819,1.78357 -1.19686,0.46376 -2.42266,0.79152 -3.63192,0.98464 -2.23238,0.34911 -4.35308,0.22872 -6.15938,-0.15797 -1.80632,-0.3867 -3.29963,-1.03202 -4.41926,-1.7062 -1.11826,-0.67418 -1.86974,-1.37216 -2.29167,-1.93614 -0.42194,-0.56397 -0.52259,-0.99307 -0.36126,-1.24595 z"
       style="color:#000000;fill:#5f5f5f;fill-opacity:0.99990216;fill-rule:nonzero;stroke:none;stroke-width:4.47805357;marker:none;visibility:visible;display:inline;overflow:visible;enable-background:accumulate" />
    <path
       inkscape:connector-curvature="0"
       id="path9748"
       d="m 476.58206,656.48435 c 0.24129,-0.26321 0.46743,-0.53707 0.67701,-0.81961 0.74045,-0.99969 1.2658,-2.09035 1.58983,-3.16938 0.32541,-1.07903 0.45227,-2.14564 0.42883,-3.12351 -0.0276,-1.00351 -0.20269,-1.90338 -0.45089,-2.66227 -0.24681,-0.75889 -0.5612,-1.37759 -0.86868,-1.85053 -0.30749,-0.47297 -0.60808,-0.80144 -0.84801,-0.99589 -0.23854,-0.19443 -0.41779,-0.25609 -0.51707,-0.19207 -0.0965,0.064 -0.1103,0.24916 -0.069,0.53638 0.0414,0.28721 0.13926,0.67775 0.24406,1.1634 0.11031,0.48564 0.21648,1.06752 0.28129,1.72999 0.0689,0.66248 0.0827,1.40615 0,2.19464 -0.0827,0.76841 -0.2675,1.58602 -0.57774,2.40348 -0.31025,0.81747 -0.74597,1.63441 -1.3182,2.38054 -0.16132,0.21091 -0.33368,0.4168 -0.51707,0.6165 -0.62738,0.68339 -1.34577,1.25378 -2.09036,1.70318 -0.74596,0.44941 -1.51813,0.7775 -2.26823,0.99436 -0.86179,0.25172 -1.70565,0.3599 -2.46678,0.38916 -0.76113,0.0292 -1.44092,-0.0202 -2.00901,-0.0821 -0.56947,-0.0619 -1.02863,-0.13554 -1.36232,-0.16066 -0.33368,-0.0251 -0.54327,-3.1e-4 -0.60255,0.11238 -0.0552,0.11279 0.0413,0.30728 0.29507,0.55458 0.25923,0.24729 0.68254,0.54646 1.27682,0.82632 0.59292,0.27987 1.35818,0.53922 2.27099,0.68117 0.91281,0.14195 1.97454,0.16503 3.11209,-0.0328 0.98728,-0.17378 2.01866,-0.51415 3.01282,-1.04477 0.99554,-0.53062 1.95247,-1.25173 2.77979,-2.15245 z"
       style="color:#000000;fill:#5f5f5f;fill-opacity:0.99990216;fill-rule:nonzero;stroke:none;stroke-width:4.47805357;marker:none;visibility:visible;display:inline;overflow:visible;enable-background:accumulate" />
    <path
       inkscape:connector-curvature="0"
       id="path9750"
       d="m 502.74873,636.42459 c -0.12409,-0.22526 -0.0414,-0.5578 0.19029,-0.99524 0.23579,-0.43744 0.626,-0.98219 1.09344,-1.65857 0.46743,-0.67638 1.01071,-1.4872 1.52916,-2.44247 0.51707,-0.9553 1.00932,-2.05625 1.3499,-3.26729 0.34334,-1.20191 0.54327,-2.53501 0.54327,-3.91076 0,-1.37573 -0.20131,-2.79077 -0.626,-4.11915 -0.43572,-1.38284 -1.12929,-2.70916 -1.97866,-3.87526 -0.85077,-1.16612 -1.85734,-2.1686 -2.90803,-2.95954 -1.04104,-0.79042 -2.14827,-1.38896 -3.18931,-1.84463 -1.03966,-0.45568 -2.01314,-0.7698 -2.83908,-1.01893 -0.82455,-0.24911 -1.50158,-0.4358 -1.98142,-0.63471 -0.48123,-0.1989 -0.76528,-0.41275 -0.8094,-0.67333 -0.0414,-0.26057 0.1503,-0.56921 0.62049,-0.88295 0.47157,-0.31376 1.22167,-0.63138 2.24617,-0.83427 1.02588,-0.2029 2.32752,-0.28728 3.81945,-0.0976 1.49193,0.18969 3.17277,0.65832 4.85498,1.53149 1.68911,0.88327 3.3396,2.16352 4.72123,3.78783 1.38024,1.62432 2.48609,3.58969 3.14794,5.71698 0.63013,2.04482 0.83559,4.18297 0.66048,6.2004 -0.17512,2.01742 -0.72943,3.90956 -1.51537,5.52576 -0.79699,1.62475 -1.8077,2.94138 -2.82944,3.94254 -1.02035,1.00119 -2.04898,1.69012 -2.93697,2.1324 -0.88661,0.44227 -1.63258,0.64181 -2.17033,0.68127 -0.53776,0.0395 -0.86868,-0.0787 -0.99279,-0.304 z"
       style="color:#000000;fill:#5f5f5f;fill-opacity:0.99990216;fill-rule:nonzero;stroke:none;stroke-width:4.47805357;marker:none;visibility:visible;display:inline;overflow:visible;enable-background:accumulate" />
    <path
       inkscape:connector-curvature="0"
       id="path9752"
       d="m 494.64102,603.86545 c -0.0827,-0.58374 -0.18753,-1.15735 -0.32955,-1.71637 -0.39987,-1.56654 -1.04104,-3.00112 -1.8201,-4.2449 -0.77905,-1.24377 -1.696,-2.29667 -2.64741,-3.14499 -0.97762,-0.87206 -1.98556,-1.52422 -2.91905,-1.99882 -0.93487,-0.47457 -1.79529,-0.77288 -2.51643,-0.95219 -0.71977,-0.17932 -1.30027,-0.2412 -1.70014,-0.23646 -0.40125,0.004 -0.62325,0.0746 -0.64806,0.18817 -0.0275,0.11348 0.14753,0.26385 0.4757,0.46211 0.32817,0.19828 0.81353,0.44617 1.40782,0.77991 0.59291,0.33374 1.29613,0.75466 2.04624,1.30128 0.74872,0.54662 1.5457,1.21973 2.30545,2.04423 0.73907,0.80098 1.44643,1.74951 2.04761,2.83225 0.60119,1.08272 1.09758,2.2993 1.41058,3.60435 0.11031,0.46455 0.20132,0.94133 0.26474,1.42722 0.17236,1.30757 0.15444,2.60554 0,3.82782 -0.16546,1.22227 -0.47846,2.36832 -0.88936,3.39806 -0.48536,1.22253 -1.10861,2.28848 -1.74702,3.18553 -0.63841,0.89704 -1.292,1.62623 -1.86147,2.20989 -0.56809,0.58364 -1.05483,1.02397 -1.37748,1.35277 -0.32266,0.32881 -0.48398,0.54893 -0.42331,0.66268 0.0552,0.11377 0.33782,0.11335 0.80112,-0.0257 0.46467,-0.13891 1.11274,-0.41899 1.87249,-0.89417 0.75976,-0.4752 1.62844,-1.14813 2.48885,-2.06176 0.86179,-0.91363 1.71255,-2.06977 2.39784,-3.46668 0.57637,-1.17787 1.02726,-2.51729 1.27821,-3.96381 0.25096,-1.44652 0.30059,-2.9996 0.0965,-4.57048 z"
       style="color:#000000;fill:#5f5f5f;fill-opacity:0.99990216;fill-rule:nonzero;stroke:none;stroke-width:4.47805357;marker:none;visibility:visible;display:inline;overflow:visible;enable-background:accumulate" />
    <path
       inkscape:connector-curvature="0"
       id="path9754"
       d="m 482.73592,591.58029 c -0.27302,-0.0247 -0.52397,-0.23183 -0.77906,-0.56626 -0.25371,-0.33443 -0.51569,-0.79676 -0.83559,-1.33086 -0.31852,-0.53412 -0.70046,-1.14182 -1.17893,-1.74545 -0.47708,-0.60363 -1.05207,-1.20354 -1.72358,-1.6813 -0.67978,-0.49836 -1.5002,-0.90473 -2.38267,-1.16701 -0.88248,-0.26225 -1.8201,-0.37942 -2.69844,-0.3035 -0.76527,0.0557 -1.54157,0.25371 -2.26133,0.54634 -0.71839,0.29262 -1.37749,0.67949 -1.94006,1.11589 -0.58051,0.44262 -1.08103,0.95888 -1.5071,1.46632 -0.42607,0.50744 -0.77768,1.00657 -1.08379,1.44029 -0.30748,0.43372 -0.56947,0.80301 -0.82042,1.06346 -0.25233,0.26046 -0.49502,0.41226 -0.74321,0.41396 -0.24682,0.002 -0.50053,-0.14782 -0.72528,-0.47938 -0.22475,-0.33157 -0.42193,-0.84715 -0.5088,-1.54146 -0.0827,-0.69432 -0.069,-1.56882 0.17925,-2.55424 0.24268,-0.98541 0.7046,-2.08124 1.47125,-3.14592 0.75148,-1.03732 1.7746,-2.01167 3.02246,-2.7664 1.2465,-0.75476 2.71774,-1.2862 4.28551,-1.4797 1.827,-0.21298 3.6857,0.0469 5.32931,0.69814 1.64361,0.6512 3.06383,1.68795 4.11866,2.89653 1.02174,1.18834 1.65326,2.47907 1.98694,3.65842 0.33369,1.17934 0.37368,2.24536 0.26751,3.08756 -0.11032,0.8422 -0.35713,1.4627 -0.63015,1.85107 -0.27439,0.38839 -0.56947,0.54816 -0.84248,0.5235 z"
       style="color:#000000;fill:#5f5f5f;fill-opacity:0.99990216;fill-rule:nonzero;stroke:none;stroke-width:4.47805357;marker:none;visibility:visible;display:inline;overflow:visible;enable-background:accumulate" />
    <path
       inkscape:connector-curvature="0"
       id="path9756"
       d="m 467.03894,586.06692 c -0.35988,0.13375 -0.86731,-0.16779 -1.53743,-0.78096 -0.66875,-0.61317 -1.50986,-1.53512 -2.59364,-2.57359 -1.08517,-1.03847 -2.41853,-2.19103 -3.98491,-3.23037 -1.56502,-1.03934 -3.35892,-1.95825 -5.2452,-2.56432 -1.30579,-0.42778 -2.67224,-0.71236 -4.0249,-0.86733 -1.35267,-0.15499 -2.69155,-0.18091 -3.94493,-0.119 -1.24511,0.0651 -2.41025,0.21564 -3.45267,0.39192 -1.04104,0.17628 -1.96075,0.37736 -2.73705,0.53694 -0.77767,0.15956 -1.41196,0.27642 -1.89456,0.29341 -0.48122,0.017 -0.81077,-0.0672 -0.9652,-0.28155 -0.15581,-0.21435 -0.13788,-0.5597 0.0827,-1.01991 0.22476,-0.46019 0.66048,-1.03508 1.33199,-1.65748 0.67288,-0.62241 1.58431,-1.29085 2.7329,-1.89964 1.14722,-0.60881 2.53159,-1.15544 4.09385,-1.52674 1.5719,-0.37754 3.32581,-0.57556 5.14453,-0.5129 1.82011,0.0626 3.70225,0.38772 5.50442,0.98742 1.29614,0.43747 2.5316,1.009 3.67054,1.67914 1.13756,0.67013 2.17585,1.43834 3.09003,2.25696 0.91556,0.81862 1.70703,1.68707 2.37027,2.55446 0.66185,0.86738 1.19685,1.7332 1.61189,2.55158 0.41641,0.81837 0.71424,1.589 0.91418,2.27693 0.20132,0.68793 0.30611,1.29306 0.33782,1.79418 0.069,1.00224 -0.14892,1.57716 -0.51018,1.71086 z"
       style="color:#000000;fill:#5f5f5f;fill-opacity:0.99990216;fill-rule:nonzero;stroke:none;stroke-width:4.47805357;marker:none;visibility:visible;display:inline;overflow:visible;enable-background:accumulate" />
    <path
       inkscape:connector-curvature="0"
       id="path9758"
       d="m 513.80446,581.4051 c -0.35161,0.23294 -0.91143,0.13016 -1.6436,-0.1845 -0.73218,-0.31463 -1.64637,-0.83486 -2.74119,-1.38974 -1.09481,-0.55488 -2.37578,-1.14156 -3.76705,-1.60598 -1.39127,-0.46442 -2.88596,-0.80197 -4.35445,-0.92772 0,0 0,0 0,0 -1.2658,-0.1172 -2.53849,-0.0905 -3.72431,0.0172 -1.18582,0.10756 -2.28339,0.2945 -3.23205,0.46444 -0.94866,0.16996 -1.75116,0.32067 -2.37441,0.35 -0.62462,0.0294 -1.07275,-0.0666 -1.29888,-0.34905 -0.22476,-0.28243 -0.22614,-0.75471 0.0689,-1.37937 0.29646,-0.62468 0.89488,-1.40057 1.83527,-2.17219 0.94039,-0.77163 2.22824,-1.53187 3.78636,-2.07065 1.55811,-0.53878 3.38372,-0.84708 5.27139,-0.78758 0,0 0,0 0,0 1.10309,0.04 2.21032,0.20345 3.27204,0.47886 1.06173,0.27541 2.07795,0.66244 3.00868,1.13046 0.93073,0.46803 1.77598,1.01648 2.51367,1.60289 0.73631,0.58642 1.36369,1.21018 1.87801,1.82641 0.51293,0.61622 0.91143,1.2244 1.20651,1.78598 0.2937,0.56156 0.4826,1.07624 0.58326,1.51779 0.0965,0.44155 0.1103,0.80994 0.0689,1.09357 -0.0552,0.28363 -0.17512,0.4827 -0.35023,0.59917 z"
       style="color:#000000;fill:#5f5f5f;fill-opacity:0.99990216;fill-rule:nonzero;stroke:none;stroke-width:4.47805357;marker:none;visibility:visible;display:inline;overflow:visible;enable-background:accumulate" />
    <path
       inkscape:connector-curvature="0"
       id="path9760"
       d="m 515.27708,647.14451 c 0.27302,-0.0762 0.61222,0.0587 0.97762,0.44958 0.36539,0.3908 0.75562,1.04066 1.05483,1.95621 0.30059,0.91555 0.50328,2.09936 0.45641,3.47306 -0.0414,1.37371 -0.35024,2.93636 -1.0314,4.51035 -0.71701,1.64177 -1.83389,3.2448 -3.27618,4.57064 -1.44366,1.32584 -3.20723,2.36737 -5.08524,2.98329 0,0 0,0 0,0 -1.44092,0.4681 -2.91492,0.67984 -4.30895,0.66928 -1.39541,-0.011 -2.70947,-0.24192 -3.86495,-0.61559 -1.20099,-0.39003 -2.21307,-0.92685 -3.02109,-1.4962 -0.80664,-0.56935 -1.40782,-1.16962 -1.82562,-1.71315 -0.41779,-0.54353 -0.65358,-1.02986 -0.74596,-1.41316 -0.0965,-0.3833 -0.0414,-0.66403 0.1241,-0.83786 0.16132,-0.17384 0.43296,-0.24164 0.79974,-0.23013 0.36677,0.011 0.82869,0.10148 1.38024,0.22487 0.55155,0.12341 1.19272,0.27968 1.91386,0.41475 0.71977,0.13513 1.51951,0.24865 2.36751,0.28299 0.81628,0.0346 1.68773,-0.003 2.57434,-0.13847 0.88798,-0.13568 1.78976,-0.36936 2.64879,-0.71273 0,0 0,0 0,0 1.11137,-0.43815 2.18412,-1.08489 3.12864,-1.86366 0.94315,-0.77876 1.75392,-1.68622 2.3813,-2.6296 0.60532,-0.89974 1.06035,-1.85927 1.40506,-2.76773 0.34333,-0.90846 0.57912,-1.76583 0.77079,-2.50157 0.19166,-0.73575 0.34333,-1.35173 0.5212,-1.80223 0.17925,-0.45051 0.38746,-0.73669 0.66048,-0.81294 z"
       style="color:#000000;fill:#5f5f5f;fill-opacity:0.99990216;fill-rule:nonzero;stroke:none;stroke-width:4.47805357;marker:none;visibility:visible;display:inline;overflow:visible;enable-background:accumulate" />
    <path
       inkscape:connector-curvature="0"
       id="path9762"
       d="m 534.25024,627.43521 c 0.19993,-0.13719 0.51984,-0.10686 0.94452,0.1241 0.42469,0.23092 0.95417,0.66391 1.52227,1.33195 0.56809,0.66805 1.17203,1.57323 1.70151,2.72022 0.52949,1.14701 0.98038,2.53717 1.2203,4.1201 0.23027,1.53657 0.25785,3.24015 0,4.99585 -0.25509,1.75569 -0.79561,3.56107 -1.63258,5.27177 -1.02587,2.08734 -2.48333,3.98751 -4.19174,5.51264 -1.70841,1.52515 -3.66226,2.67183 -5.61059,3.39582 -1.88767,0.6966 -3.73121,0.99158 -5.35137,1.02081 -1.61879,0.0292 -3.01282,-0.20202 -4.10074,-0.52772 -1.08654,-0.32571 -1.87111,-0.74183 -2.35372,-1.12379 -0.4826,-0.38194 -0.66737,-0.72846 -0.59429,-0.99658 0.0689,-0.26811 0.40539,-0.45924 0.95417,-0.61035 0.54879,-0.1511 1.31406,-0.26493 2.25169,-0.4255 0.93762,-0.16058 2.04761,-0.37046 3.25412,-0.71937 1.20512,-0.3489 2.50539,-0.83835 3.77118,-1.53287 1.31131,-0.71353 2.60606,-1.65954 3.76016,-2.79874 1.15411,-1.13922 2.16344,-2.46813 2.92182,-3.8871 0.62875,-1.16662 1.1017,-2.40921 1.42574,-3.64406 0.32265,-1.23485 0.49777,-2.46057 0.5543,-3.61138 0.0552,-1.1857 0,-2.3035 -0.11031,-3.30264 -0.1103,-0.99915 -0.26198,-1.88039 -0.38746,-2.62155 -0.12409,-0.74118 -0.21923,-1.34373 -0.22751,-1.79678 0,-0.45304 0.0689,-0.75761 0.27577,-0.89482 z"
       style="color:#000000;fill:#5f5f5f;fill-opacity:0.99990216;fill-rule:nonzero;stroke:none;stroke-width:4.47805357;marker:none;visibility:visible;display:inline;overflow:visible;enable-background:accumulate" />
    <path
       inkscape:connector-curvature="0"
       id="path9764"
       d="m 552.01138,612.68704 c 0.1958,-0.1634 0.51431,-0.18513 0.94865,-0.0235 0.43297,0.16167 0.98175,0.50876 1.57328,1.08648 0.59154,0.5777 1.22444,1.38875 1.7746,2.445 0.54879,1.05626 1.01071,2.3594 1.23409,3.85369 0.21648,1.47739 0.19166,3.11555 -0.15168,4.76944 -0.34334,1.65391 -1.00657,3.31977 -1.97867,4.82772 -1.05345,1.62253 -2.43645,3.01425 -3.97388,4.05883 -1.53881,1.0446 -3.22378,1.74092 -4.8536,2.09462 -1.61051,0.34493 -3.12726,0.35303 -4.42064,0.16731 -1.29337,-0.18572 -2.36475,-0.56091 -3.17552,-0.9774 -0.80939,-0.4165 -1.35956,-0.8716 -1.67532,-1.26612 -0.31437,-0.39451 -0.39711,-0.72809 -0.29093,-0.97331 0.1103,-0.24521 0.40262,-0.40355 0.85075,-0.50949 0.44952,-0.1059 1.05346,-0.16159 1.78149,-0.23491 0.72804,-0.0734 1.58294,-0.16587 2.5123,-0.35038 0.92797,-0.18451 1.93178,-0.46171 2.91629,-0.89123 0.99829,-0.43004 2.00211,-1.02602 2.92319,-1.7716 0.9197,-0.74557 1.75391,-1.6385 2.41025,-2.62165 0.61497,-0.91221 1.09482,-1.92785 1.43264,-2.95894 0.33782,-1.03109 0.53362,-2.07558 0.60532,-3.06346 0.0827,-0.99948 0.0276,-1.961 -0.0689,-2.82918 -0.0965,-0.86819 -0.24819,-1.64374 -0.37505,-2.30442 -0.12409,-0.66068 -0.22889,-1.20825 -0.24406,-1.63377 -0.0138,-0.42551 0.0552,-0.73035 0.24958,-0.89376 z"
       style="color:#000000;fill:#5f5f5f;fill-opacity:0.99990216;fill-rule:nonzero;stroke:none;stroke-width:4.47805357;marker:none;visibility:visible;display:inline;overflow:visible;enable-background:accumulate" />
    <path
       inkscape:connector-curvature="0"
       id="path9766"
       d="m 532.26882,594.34115 c -0.12411,-0.23139 -0.069,-0.56862 0.21234,-0.98866 0.28267,-0.42004 0.79423,-0.92283 1.56639,-1.4148 0.77216,-0.49195 1.80769,-0.97086 3.08313,-1.28974 1.27684,-0.31889 2.79358,-0.4738 4.44408,-0.31202 1.65877,0.16669 3.41683,0.65526 5.08249,1.49971 1.66429,0.84448 3.23068,2.04467 4.51302,3.51845 1.23822,1.43183 2.17998,3.08334 2.77841,4.77452 0.59842,1.69117 0.85627,3.41749 0.83283,5.00973 -0.0276,1.60017 -0.33782,3.03537 -0.77354,4.22338 -0.43434,1.188 -0.99416,2.13014 -1.53744,2.8208 -0.54464,0.69064 -1.07275,1.13259 -1.50296,1.36406 -0.4302,0.23146 -0.76113,0.25472 -0.97623,0.11197 -0.2151,-0.14271 -0.31576,-0.451 -0.33782,-0.89964 -0.0138,-0.44863 0.0276,-1.03902 0.0965,-1.75506 0.0689,-0.71606 0.14064,-1.55965 0.14892,-2.49784 0,-0.93817 -0.0552,-1.97159 -0.25647,-3.0301 -0.19856,-1.05365 -0.54189,-2.15262 -1.04242,-3.21542 -0.49915,-1.06278 -1.15411,-2.08706 -1.94006,-2.97741 -0.80526,-0.92077 -1.7746,-1.72459 -2.80875,-2.36905 -1.03415,-0.64446 -2.13034,-1.12793 -3.19758,-1.44875 -1.06172,-0.32332 -2.11793,-0.49206 -3.08452,-0.5767 -0.96658,-0.0847 -1.84353,-0.0859 -2.58812,-0.0822 -0.74597,0.004 -1.35956,0.011 -1.82148,-0.048 -0.46054,-0.0589 -0.76941,-0.18592 -0.89488,-0.4173 z"
       style="color:#000000;fill:#5f5f5f;fill-opacity:0.99990216;fill-rule:nonzero;stroke:none;stroke-width:4.47805357;marker:none;visibility:visible;display:inline;overflow:visible;enable-background:accumulate" />
    <path
       inkscape:connector-curvature="0"
       id="path9768"
       d="m 502.80664,593.06305 c -0.26887,-0.11031 -0.41779,-0.5344 -0.37918,-1.27061 0.0414,-0.73622 0.2675,-1.78644 0.80664,-3.05222 0.53913,-1.26578 1.39265,-2.74632 2.64879,-4.23589 1.25752,-1.48959 2.92181,-2.98318 4.96943,-4.21133 2.17584,-1.29927 4.7488,-2.26633 7.4624,-2.71007 1.3568,-0.22187 2.74669,-0.31551 4.12693,-0.27563 1.38025,0.0399 2.75222,0.21335 4.07455,0.51165 1.45332,0.33262 2.8308,0.81366 4.09798,1.39953 1.2658,0.58586 2.42128,1.27604 3.44716,2.01991 1.02449,0.74388 1.92075,1.54099 2.68188,2.34117 0.76251,0.80017 1.39266,1.60306 1.90146,2.36508 1.01622,1.52406 1.54433,2.87152 1.75115,3.82817 0.20545,0.95665 0.0965,1.52452 -0.19993,1.67924 -0.30059,0.15474 -0.79698,-0.0993 -1.50158,-0.65088 -0.70598,-0.55158 -1.62982,-1.39821 -2.83908,-2.34642 -1.20927,-0.9482 -2.71085,-1.99592 -4.48958,-2.89798 -1.77874,-0.90208 -3.83048,-1.65294 -6.00219,-2.00994 -1.98832,-0.33612 -4.10212,-0.36045 -6.14973,-0.0776 -2.04899,0.28279 -4.02353,0.87124 -5.76778,1.67003 -1.64636,0.74852 -3.10934,1.68943 -4.35308,2.64571 -1.24373,0.95629 -2.26961,1.92614 -3.1052,2.75927 -0.83558,0.83312 -1.48779,1.52927 -2.00486,1.97845 -0.51845,0.44919 -0.90729,0.65073 -1.17618,0.54043 z"
       style="color:#000000;fill:#5f5f5f;fill-opacity:0.99990216;fill-rule:nonzero;stroke:none;stroke-width:4.47805357;marker:none;visibility:visible;display:inline;overflow:visible;enable-background:accumulate" />
    <path
       inkscape:connector-curvature="0"
       id="path9770"
       d="m 502.80664,593.06305 c -0.26887,-0.11031 -0.41779,-0.5344 -0.37918,-1.27061 0.0414,-0.73622 0.2675,-1.78644 0.80664,-3.05222 0.53913,-1.26578 1.39265,-2.74632 2.64879,-4.23589 1.25752,-1.48959 2.92181,-2.98318 4.96943,-4.21133 2.17584,-1.29927 4.7488,-2.26633 7.4624,-2.71007 1.3568,-0.22187 2.74669,-0.31551 4.12693,-0.27563 1.38025,0.0399 2.75222,0.21335 4.07455,0.51165 1.45332,0.33262 2.8308,0.81366 4.09798,1.39953 1.2658,0.58586 2.42128,1.27604 3.44716,2.01991 1.02449,0.74388 1.92075,1.54099 2.68188,2.34117 0.76251,0.80017 1.39266,1.60306 1.90146,2.36508 1.01622,1.52406 1.54433,2.87152 1.75115,3.82817 0.20545,0.95665 0.0965,1.52452 -0.19993,1.67924 -0.30059,0.15474 -0.79698,-0.0993 -1.50158,-0.65088 -0.70598,-0.55158 -1.62982,-1.39821 -2.83908,-2.34642 -1.20927,-0.9482 -2.71085,-1.99592 -4.48958,-2.89798 -1.77874,-0.90208 -3.83048,-1.65294 -6.00219,-2.00994 -1.98832,-0.33612 -4.10212,-0.36045 -6.14973,-0.0776 -2.04899,0.28279 -4.02353,0.87124 -5.76778,1.67003 -1.64636,0.74852 -3.10934,1.68943 -4.35308,2.64571 -1.24373,0.95629 -2.26961,1.92614 -3.1052,2.75927 -0.83558,0.83312 -1.48779,1.52927 -2.00486,1.97845 -0.51845,0.44919 -0.90729,0.65073 -1.17618,0.54043 z"
       style="color:#000000;fill:#5f5f5f;fill-opacity:0.99990216;fill-rule:nonzero;stroke:none;stroke-width:4.47805357;marker:none;visibility:visible;display:inline;overflow:visible;enable-background:accumulate" />
    <path
       inkscape:connector-curvature="0"
       id="path9772"
       d="m 272.9033,595.80387 c -0.48537,-0.0362 -0.97072,-0.0478 -1.45057,-0.0353 -1.99935,0.0562 -3.89529,0.52987 -5.55406,1.26863 -1.66015,0.73875 -3.08037,1.74092 -4.21105,2.84602 -1.15686,1.13404 -2.00073,2.359 -2.59502,3.50826 -0.59428,1.14925 -0.94038,2.22301 -1.13342,3.11819 -0.19166,0.89515 -0.23165,1.61295 -0.20545,2.10202 0.0276,0.48907 0.1103,0.75077 0.23303,0.76459 0.1241,0.0138 0.25509,-0.21982 0.43986,-0.64888 0.18476,-0.42906 0.41917,-1.05457 0.7694,-1.81329 0.34885,-0.75873 0.81766,-1.65203 1.46711,-2.58622 0.64944,-0.93419 1.48228,-1.90998 2.53435,-2.78719 1.02587,-0.85766 2.26823,-1.62429 3.68157,-2.18554 1.41333,-0.56125 2.99764,-0.91664 4.63711,-0.94723 0.39298,-0.008 0.79009,0.003 1.18996,0.0322 1.61602,0.12079 3.16862,0.54753 4.54887,1.17386 1.38162,0.6263 2.59088,1.45169 3.57952,2.37304 1.11964,1.03901 1.9704,2.2044 2.6033,3.31775 0.6329,1.11335 1.04793,2.17558 1.33888,3.07582 0.28956,0.90025 0.45502,1.64074 0.59015,2.15367 0.13788,0.51292 0.24406,0.8003 0.37092,0.80335 0.12409,0.003 0.26335,-0.28016 0.35988,-0.83052 0.0965,-0.55036 0.14478,-1.37031 0.0275,-2.40661 -0.11031,-1.03629 -0.39022,-2.29098 -0.95968,-3.641 -0.56947,-1.35 -1.4354,-2.79564 -2.68327,-4.12534 -1.10723,-1.17377 -2.50264,-2.23541 -4.13107,-3.03828 -1.62845,-0.80288 -3.48991,-1.3455 -5.45341,-1.49213 z"
       style="color:#000000;fill:#5f5f5f;fill-opacity:0.99990216;fill-rule:nonzero;stroke:none;stroke-width:4.47805357;marker:none;visibility:visible;display:inline;overflow:visible;enable-background:accumulate" />
    <path
       inkscape:connector-curvature="0"
       id="path9774"
       d="m 377.38802,583.3034 c -0.29645,0.0236 -0.60807,-0.2381 -0.9652,-0.71305 -0.35575,-0.47493 -0.76389,-1.16369 -1.30165,-1.97127 -0.53913,-0.8076 -1.21202,-1.73579 -2.07105,-2.64523 -0.86041,-0.90943 -1.90559,-1.79896 -3.11486,-2.4767 -1.2975,-0.7436 -2.83631,-1.26637 -4.43442,-1.4903 -1.5981,-0.22394 -3.24446,-0.14734 -4.72812,0.23365 0,0 0,2e-5 0,2e-5 -0.96933,0.24347 -1.89593,0.60752 -2.74256,1.04325 -0.84524,0.43573 -1.61188,0.94281 -2.2834,1.4726 -0.71424,0.56268 -1.3306,1.1579 -1.86008,1.71762 -0.52948,0.55972 -0.97348,1.08416 -1.35542,1.52213 -0.38332,0.43798 -0.70598,0.7898 -0.99003,1.01692 -0.28404,0.22714 -0.53224,0.32953 -0.74734,0.27917 -0.2151,-0.0503 -0.39711,-0.25404 -0.51845,-0.62346 -0.1241,-0.36942 -0.18615,-0.90549 -0.13789,-1.59322 0.0552,-0.68773 0.21786,-1.52779 0.56672,-2.46541 0.34885,-0.93761 0.88109,-1.97259 1.65049,-3.00615 0.72528,-0.97073 1.65464,-1.92965 2.77979,-2.77449 1.12653,-0.84485 2.45024,-1.57399 3.91735,-2.09065 0,0 0,0 0,0 1.1486,-0.39907 2.36613,-0.66134 3.60573,-0.77061 1.23959,-0.10934 2.49988,-0.0655 3.7312,0.12893 1.22995,0.1944 2.43094,0.53926 3.55471,1.014 1.12378,0.47475 2.16895,1.07907 3.10382,1.77756 1.72358,1.30482 2.99076,2.88195 3.83324,4.41255 0.84111,1.53061 1.26304,3.00901 1.41885,4.22646 0.15581,1.21746 0.0552,2.17508 -0.13926,2.80764 -0.19442,0.63255 -0.47847,0.9444 -0.7763,0.96803 z"
       style="color:#000000;fill:#5f5f5f;fill-opacity:0.99990216;fill-rule:nonzero;stroke:none;stroke-width:4.47805357;marker:none;visibility:visible;display:inline;overflow:visible;enable-background:accumulate" />
    <path
       inkscape:connector-curvature="0"
       id="path9776"
       d="m 353.16691,576.28879 c -0.23165,0.0866 -0.53086,-0.0227 -0.90315,-0.28068 -0.37367,-0.25788 -0.82042,-0.664 -1.37611,-1.14888 -0.55568,-0.48487 -1.22167,-1.04898 -2.02003,-1.59865 -0.79699,-0.54967 -1.72909,-1.08498 -2.77013,-1.48272 -1.01623,-0.39315 -2.16206,-0.66471 -3.36305,-0.75482 -1.20099,-0.09 -2.45438,0.002 -3.63606,0.31298 -1.37197,0.34944 -2.70947,1.02521 -3.8622,1.89902 -1.15273,0.8738 -2.1138,1.94097 -2.80461,3.06367 -0.68392,1.08964 -1.1348,2.27104 -1.42712,3.37896 -0.29232,1.10792 -0.42883,2.14275 -0.51156,3.0199 -0.0827,0.87714 -0.11031,1.60018 -0.20131,2.13142 -0.0827,0.53123 -0.22614,0.87333 -0.47709,0.98433 -0.25096,0.111 -0.61359,-0.011 -1.04655,-0.42232 -0.43297,-0.41195 -0.93488,-1.11926 -1.35543,-2.14852 -0.42055,-1.02925 -0.75424,-2.38506 -0.78595,-3.9871 -0.0275,-1.60204 0.24682,-3.45033 1.02587,-5.31931 0.40539,-0.95557 0.93349,-1.89729 1.58018,-2.78578 0.64806,-0.88848 1.41471,-1.72343 2.2834,-2.46748 1.73737,-1.48812 3.88839,-2.60087 6.19109,-3.13465 1.9704,-0.44665 3.97802,-0.45801 5.82294,-0.11459 1.84492,0.34339 3.523,1.03821 4.91565,1.92484 1.42298,0.9122 2.51504,1.99872 3.30375,3.05623 0.79009,1.05753 1.27959,2.08417 1.55812,2.94908 0.27853,0.86491 0.34885,1.56871 0.30197,2.06167 -0.0414,0.49296 -0.21096,0.77688 -0.44262,0.86345 z"
       style="color:#000000;fill:#5f5f5f;fill-opacity:0.99990216;fill-rule:nonzero;stroke:none;stroke-width:4.47805357;marker:none;visibility:visible;display:inline;overflow:visible;enable-background:accumulate" />
    <path
       inkscape:connector-curvature="0"
       id="path9778"
       d="m 320.97047,575.11949 c -0.31025,0.0425 -0.61636,0.10204 -0.91695,0.17794 -1.06724,0.27287 -2.02831,0.74567 -2.83494,1.3284 -0.80526,0.58275 -1.45471,1.27439 -1.94283,1.98639 -0.49776,0.7316 -0.82042,1.47261 -1.01346,2.14558 -0.19304,0.67296 -0.25923,1.27804 -0.25508,1.77155 0,0.49351 0.0827,0.87613 0.17373,1.1312 0.0965,0.25505 0.21235,0.38337 0.32955,0.38349 0.11031,1.3e-4 0.22889,-0.12685 0.34885,-0.34949 0.1241,-0.22269 0.24957,-0.54163 0.41918,-0.92656 0.17098,-0.38491 0.38194,-0.83654 0.66598,-1.31545 0.28405,-0.4789 0.6398,-0.98553 1.08931,-1.46213 0.4371,-0.46545 0.96934,-0.90846 1.58569,-1.28113 0.61635,-0.37268 1.31682,-0.67494 2.06692,-0.85036 0.2082,-0.0499 0.42331,-0.0899 0.64255,-0.11969 0.75285,-0.10258 1.50847,-0.0774 2.21445,0.044 0.70598,0.12134 1.36232,0.33892 1.94006,0.6192 0.66737,0.31973 1.24236,0.72753 1.72358,1.14179 0.48122,0.41427 0.86868,0.83538 1.18306,1.20245 0.31301,0.36708 0.55568,0.68072 0.75287,0.89249 0.19855,0.21175 0.35436,0.32185 0.47708,0.28667 0.1241,-0.0352 0.20269,-0.21498 0.2151,-0.5297 0.0138,-0.31471 -0.0414,-0.76502 -0.22337,-1.30968 -0.18063,-0.54466 -0.48536,-1.18405 -0.9652,-1.83681 -0.47985,-0.65277 -1.13619,-1.31843 -1.98833,-1.87653 -0.74182,-0.48302 -1.62016,-0.87367 -2.58812,-1.10311 -0.96797,-0.22944 -2.02693,-0.29687 -3.09968,-0.15045 z"
       style="color:#000000;fill:#5f5f5f;fill-opacity:0.99990216;fill-rule:nonzero;stroke:none;stroke-width:4.47805357;marker:none;visibility:visible;display:inline;overflow:visible;enable-background:accumulate" />
    <path
       inkscape:connector-curvature="0"
       id="path9780"
       d="m 305.10664,595.05442 c 0,0.26387 -0.19442,0.52226 -0.53775,0.78603 -0.34472,0.2638 -0.84111,0.53447 -1.44781,0.84838 -0.60532,0.31388 -1.32095,0.67245 -2.08898,1.11415 -0.7694,0.4417 -1.59121,0.96729 -2.39232,1.60033 -0.80664,0.63484 -1.60224,1.38642 -2.32615,2.23735 -0.72252,0.85093 -1.37334,1.79993 -1.89456,2.80176 -0.50741,0.96824 -0.90453,2.00191 -1.1872,3.03682 -0.28404,1.03492 -0.45364,2.06967 -0.53086,3.0496 -0.0827,0.98516 -0.069,1.9267 -0.0138,2.78002 0.0552,0.8533 0.13789,1.61883 0.19442,2.27253 0.069,0.6537 0.0965,1.1967 0.0552,1.6132 -0.0414,0.4165 -0.15168,0.70727 -0.36678,0.84962 -0.2151,0.14235 -0.53224,0.13596 -0.94038,-0.0525 -0.40677,-0.18851 -0.90316,-0.56059 -1.42713,-1.14586 -0.52534,-0.58528 -1.07689,-1.38558 -1.55397,-2.4005 -0.47709,-1.01494 -0.87696,-2.2455 -1.08517,-3.63874 -0.20545,-1.38599 -0.2151,-2.91765 0.0276,-4.4787 0.24681,-1.56104 0.75285,-3.14865 1.50986,-4.62806 0.78457,-1.52938 1.82561,-2.91738 3.01143,-4.06559 1.18583,-1.14821 2.51229,-2.05555 3.836,-2.70011 1.31681,-0.63954 2.61294,-1.01393 3.76843,-1.19206 1.15687,-0.17814 2.17171,-0.16287 2.98386,-0.0452 0.81215,0.11762 1.42299,0.3353 1.8201,0.57956 0.39711,0.24428 0.58325,0.51427 0.5805,0.77812 z"
       style="color:#000000;fill:#5f5f5f;fill-opacity:0.99990216;fill-rule:nonzero;stroke:none;stroke-width:4.47805357;marker:none;visibility:visible;display:inline;overflow:visible;enable-background:accumulate" />
    <path
       inkscape:connector-curvature="0"
       id="path9782"
       d="m 315.17924,583.38077 c 0.069,0.29879 -0.1241,0.64477 -0.49087,1.05113 -0.36817,0.40638 -0.91558,0.87784 -1.54847,1.46649 -0.6329,0.58864 -1.35267,1.29836 -2.03934,2.15134 -0.6853,0.85297 -1.3375,1.84923 -1.80631,2.95038 -0.53224,1.21764 -0.85903,2.61726 -0.93901,4.03696 -0.0827,1.41971 0.0827,2.8483 0.48399,4.1193 0.34609,1.15374 0.88798,2.22336 1.48365,3.15291 0.59429,0.92955 1.2396,1.71885 1.81182,2.37672 0.57224,0.65787 1.07277,1.18837 1.39818,1.63422 0.32678,0.44586 0.47984,0.81185 0.38469,1.10382 -0.0965,0.29195 -0.44398,0.51079 -1.05896,0.57914 -0.61497,0.0684 -1.50158,-0.0185 -2.56606,-0.39192 -1.06448,-0.37346 -2.30684,-1.04098 -3.50921,-2.09195 -1.20099,-1.05095 -2.3551,-2.49002 -3.18242,-4.26794 -0.45089,-0.98553 -0.79284,-2.05246 -1.00243,-3.15979 -0.20821,-1.1073 -0.28267,-2.25447 -0.21786,-3.39355 0.069,-1.13905 0.27026,-2.26944 0.60394,-3.34437 0.33231,-1.07492 0.79285,-2.0939 1.35267,-3.01922 1.01484,-1.65878 2.31097,-2.94751 3.60986,-3.85025 1.29889,-0.90274 2.59364,-1.42483 3.68157,-1.67762 1.08792,-0.25279 1.96901,-0.24362 2.56881,-0.11059 0.59844,0.13306 0.91695,0.38592 0.98176,0.68472 z"
       style="color:#000000;fill:#5f5f5f;fill-opacity:0.99990216;fill-rule:nonzero;stroke:none;stroke-width:4.47805357;marker:none;visibility:visible;display:inline;overflow:visible;enable-background:accumulate" />
    <path
       inkscape:connector-curvature="0"
       id="path9784"
       d="m 294.98993,634.28756 c 0.80525,0.85052 1.70565,1.57632 2.65293,2.16256 0.94728,0.58624 1.94144,1.03288 2.93836,1.34062 0,0 0,0 0,0 1.78562,0.5435 3.52437,0.63087 5.03147,0.46231 1.5071,-0.16853 2.78254,-0.58938 3.76567,-1.05948 0.98313,-0.47012 1.67807,-0.98641 2.10415,-1.39332 0.42607,-0.40691 0.58739,-0.70196 0.50466,-0.81853 -0.0827,-0.1165 -0.40125,-0.0482 -0.92797,0.11845 -0.52535,0.16679 -1.26304,0.42893 -2.20205,0.65212 -0.939,0.2232 -2.08346,0.40584 -3.36856,0.40117 -1.2851,-0.004 -2.71223,-0.19745 -4.12005,-0.72014 0,0 0,0 0,0 -1.57741,-0.57719 -3.14794,-1.5856 -4.45648,-2.96673 -1.18583,-1.2519 -2.05312,-2.70072 -2.56055,-4.15626 0,0 0,0 0,0 -0.52121,-1.46967 -0.68391,-2.96137 -0.64531,-4.30085 0.0414,-1.33947 0.2744,-2.5276 0.55155,-3.49743 0.27715,-0.96983 0.59015,-1.72614 0.79561,-2.26548 0.20544,-0.53932 0.29783,-0.86797 0.18338,-0.95924 -0.11031,-0.0913 -0.43158,0.0635 -0.87696,0.49027 -0.44675,0.42665 -1.02036,1.13159 -1.55122,2.14213 -0.53224,1.01054 -1.0176,2.33188 -1.23546,3.90155 -0.21786,1.56966 -0.1627,3.38898 0.3847,5.25489 0,0 0,0 0,0 0.54741,1.8401 1.57191,3.66949 3.03213,5.21135 z"
       style="color:#000000;fill:#5f5f5f;fill-opacity:0.99990216;fill-rule:nonzero;stroke:none;stroke-width:4.47805357;marker:none;visibility:visible;display:inline;overflow:visible;enable-background:accumulate" />
    <path
       inkscape:connector-curvature="0"
       id="path9786"
       d="m 304.38274,637.22298 c 0.23854,-0.0837 0.55706,0.0763 0.96383,0.4363 0.40676,0.35996 0.90315,0.91968 1.53054,1.60724 0.626,0.68754 1.38575,1.50315 2.31373,2.34551 0.92659,0.84238 2.02416,1.7111 3.29134,2.4755 1.24787,0.75539 2.67362,1.41587 4.21656,1.89198 1.54158,0.47609 3.19621,0.76661 4.85636,0.8087 1.81872,0.0506 3.67467,-0.20212 5.41204,-0.69963 1.73874,-0.49751 3.35615,-1.23793 4.75432,-2.11533 1.37886,-0.86093 2.5633,-1.86381 3.55057,-2.84677 0.98864,-0.98298 1.78149,-1.94531 2.4268,-2.76323 0.64531,-0.8179 1.14584,-1.4919 1.55949,-1.93598 0.41366,-0.44408 0.74183,-0.65817 1.00244,-0.58878 0.2606,0.0694 0.45088,0.42374 0.51707,1.07261 0.069,0.64887 0,1.59433 -0.30197,2.7732 -0.30473,1.17887 -0.85766,2.59175 -1.76632,4.08041 -0.90868,1.48866 -2.17999,3.05037 -3.84979,4.44699 -1.696,1.41463 -3.78084,2.62946 -6.10285,3.43809 -2.322,0.80861 -4.87565,1.20629 -7.41139,1.10418 -2.30683,-0.0971 -4.55851,-0.60267 -6.58131,-1.41293 -2.02417,-0.81026 -3.81669,-1.92164 -5.28794,-3.16507 -1.49055,-1.26356 -2.63638,-2.64368 -3.47198,-3.95041 -0.83559,-1.30675 -1.36507,-2.53841 -1.67532,-3.56962 -0.31024,-1.03121 -0.40676,-1.86243 -0.37367,-2.44158 0.0276,-0.57916 0.19029,-0.90767 0.42745,-0.99138 z"
       style="color:#000000;fill:#5f5f5f;fill-opacity:0.99990216;fill-rule:nonzero;stroke:none;stroke-width:4.47805357;marker:none;visibility:visible;display:inline;overflow:visible;enable-background:accumulate" />
    <path
       inkscape:connector-curvature="0"
       id="path9788"
       d="m 332.71148,647.41763 c 0.2413,-0.0521 0.5157,0.0589 0.82456,0.2959 0.30887,0.23703 0.65634,0.59979 1.06586,1.04028 0.40815,0.44048 0.88247,0.95904 1.44229,1.49469 0.5612,0.53563 1.20926,1.08849 1.94696,1.57975 0.71976,0.48198 1.53881,0.91581 2.42541,1.25187 0.888,0.33604 1.84079,0.5738 2.80048,0.66995 1.11274,0.11734 2.27788,0.0414 3.38786,-0.19573 1.11137,-0.23711 2.16206,-0.63454 3.08039,-1.13615 0.89901,-0.48421 1.696,-1.08354 2.37991,-1.68693 0.68529,-0.60337 1.25615,-1.21065 1.7415,-1.73554 0.48399,-0.52491 0.88248,-0.96808 1.23409,-1.26238 0.35161,-0.29428 0.65772,-0.43943 0.92522,-0.3831 0.26887,0.0564 0.50052,0.31598 0.64392,0.80061 0.14479,0.48464 0.19856,1.19657 0.069,2.09427 -0.13789,0.89769 -0.46606,1.98177 -1.09068,3.12366 -0.62463,1.14188 -1.54709,2.3389 -2.80323,3.39028 -1.29062,1.07292 -2.89975,1.95695 -4.68124,2.47937 -1.78287,0.5224 -3.73121,0.67907 -5.62439,0.41787 -1.62016,-0.22897 -3.15621,-0.75525 -4.49371,-1.48422 -1.33887,-0.72896 -2.47782,-1.65774 -3.36994,-2.65329 -0.91281,-1.02096 -1.5526,-2.09191 -1.97177,-3.07979 -0.42056,-0.98788 -0.6205,-1.89177 -0.68116,-2.63382 -0.0552,-0.74204 0.0138,-1.32297 0.15857,-1.72096 0.1434,-0.39798 0.35436,-0.61442 0.59567,-0.66659 z"
       style="color:#000000;fill:#5f5f5f;fill-opacity:0.99990216;fill-rule:nonzero;stroke:none;stroke-width:4.47805357;marker:none;visibility:visible;display:inline;overflow:visible;enable-background:accumulate" />
    <path
       inkscape:connector-curvature="0"
       id="path9790"
       d="m 345.68107,566.80172 c -0.2482,0.0782 -0.54328,-0.004 -0.88385,-0.21741 -0.34059,-0.21341 -0.72666,-0.55781 -1.17066,-0.99235 -0.88799,-0.86908 -2.02279,-2.10521 -3.47887,-3.28421 -1.08241,-0.87883 -2.36062,-1.72662 -3.75878,-2.41706 -1.39817,-0.69043 -2.90803,-1.21963 -4.3903,-1.53445 -1.25477,-0.27099 -2.51229,-0.39434 -3.67605,-0.43155 -1.16514,-0.0372 -2.2379,0.011 -3.15622,0.0557 -0.9197,0.0454 -1.68772,0.0863 -2.26823,0.0361 -0.58188,-0.0502 -0.97623,-0.19466 -1.1417,-0.47906 -0.16546,-0.2844 -0.0965,-0.71097 0.25233,-1.24254 0.35162,-0.53157 0.99278,-1.16708 1.94834,-1.77625 0.95555,-0.60916 2.22824,-1.18693 3.75051,-1.55685 1.52364,-0.3699 3.2941,-0.52519 5.14178,-0.33548 1.09068,0.11444 2.19377,0.3461 3.26515,0.69158 1.07137,0.34548 2.11242,0.80458 3.08037,1.35575 0.96797,0.55117 1.86285,1.19406 2.65845,1.89325 0.79561,0.69919 1.49194,1.45422 2.07382,2.22244 0.7763,1.02655 1.34576,2.06581 1.73323,3.02185 0.38883,0.95602 0.59842,1.82789 0.67839,2.553 0.0827,0.72512 0.0414,1.30364 -0.0827,1.71203 -0.1241,0.4084 -0.32266,0.64742 -0.57086,0.72554 z"
       style="color:#000000;fill:#5f5f5f;fill-opacity:0.99990216;fill-rule:nonzero;stroke:none;stroke-width:4.47805357;marker:none;visibility:visible;display:inline;overflow:visible;enable-background:accumulate" />
    <path
       inkscape:connector-curvature="0"
       id="path9792"
       d="m 296.18816,560.8987 c -0.1434,0.20385 -0.45503,0.28386 -0.91695,0.27536 -0.46054,-0.008 -1.07137,-0.10425 -1.82147,-0.21926 -0.74873,-0.11513 -1.63947,-0.24851 -2.64053,-0.31787 -1.00243,-0.0694 -2.11793,-0.0739 -3.28169,0.0703 -1.13894,0.13855 -2.34269,0.42223 -3.52576,0.87512 -1.18306,0.45288 -2.34544,1.07438 -3.38648,1.85282 -1.1872,0.88128 -2.24341,1.99528 -3.09141,3.21533 -0.84938,1.22005 -1.48779,2.54178 -1.90146,3.83898 -0.40952,1.26822 -0.61221,2.5392 -0.69908,3.69984 -0.0827,1.16062 -0.0552,2.21136 -0.0138,3.09661 0.0414,0.88527 0.0965,1.60773 0.069,2.14309 -0.0275,0.53536 -0.13788,0.8857 -0.37367,1.01931 -0.23717,0.13361 -0.60532,0.0498 -1.07138,-0.30179 -0.46743,-0.35153 -1.03415,-0.97419 -1.58018,-1.90339 -0.54465,-0.92921 -1.06723,-2.16873 -1.38299,-3.68143 -0.31439,-1.51271 -0.4178,-3.2995 -0.1241,-5.21314 0.30197,-1.95431 1.01484,-3.99447 2.15378,-5.86761 1.13756,-1.87315 2.69706,-3.57156 4.53784,-4.87699 1.61189,-1.13717 3.39752,-1.95036 5.18177,-2.42703 1.78425,-0.47667 3.56298,-0.61804 5.18452,-0.49876 1.65464,0.12451 3.12037,0.51419 4.32963,1.01254 1.20788,0.49836 2.16068,1.10247 2.86114,1.67832 0.69909,0.57584 1.14722,1.12208 1.38438,1.55951 0.23579,0.43742 0.26337,0.76625 0.1241,0.9701 z"
       style="color:#000000;fill:#5f5f5f;fill-opacity:0.99990216;fill-rule:nonzero;stroke:none;stroke-width:4.47805357;marker:none;visibility:visible;display:inline;overflow:visible;enable-background:accumulate" />
    <path
       inkscape:connector-curvature="0"
       id="path9794"
       d="m 321.653,567.32488 c -0.24406,-0.0382 -0.44262,-0.33102 -0.6329,-0.83452 -0.19028,-0.5035 -0.37781,-1.21942 -0.6522,-2.09357 -0.27301,-0.87413 -0.63841,-1.90928 -1.18444,-3.00454 -0.54741,-1.09526 -1.27821,-2.25164 -2.24893,-3.29 -0.94176,-1.01917 -2.13586,-1.94909 -3.50921,-2.66023 -1.37196,-0.71113 -2.91905,-1.20121 -4.48544,-1.34341 -1.81182,-0.18275 -3.7312,0.12107 -5.47271,0.78644 -1.7415,0.66538 -3.29134,1.68776 -4.46613,2.89719 -1.15825,1.16742 -2.00349,2.54977 -2.59916,3.8779 -0.59429,1.32812 -0.94177,2.60231 -1.16927,3.67946 -0.22752,1.07716 -0.34059,1.96235 -0.47709,2.59301 -0.13789,0.63066 -0.30335,1.0105 -0.56672,1.08592 -0.26473,0.0754 -0.62738,-0.15549 -1.02173,-0.75219 -0.39574,-0.59671 -0.81767,-1.56584 -1.06311,-2.90453 -0.24406,-1.33867 -0.30335,-3.05258 0.0827,-4.97721 0.39021,-1.92464 1.23821,-4.05845 2.73428,-6.03956 0.77354,-1.00982 1.70152,-1.9546 2.7591,-2.78541 1.05759,-0.8308 2.24618,-1.54723 3.52714,-2.10765 1.28234,-0.56042 2.65431,-0.96448 4.06902,-1.18321 1.41334,-0.21873 2.86804,-0.2519 4.30619,-0.0874 2.453,0.29666 4.7557,1.16151 6.693,2.38878 1.93593,1.22729 3.5037,2.81091 4.62747,4.4906 1.14446,1.72449 1.80217,3.49589 2.1262,5.07852 0.32541,1.58263 0.32128,2.97668 0.17374,4.07614 -0.14891,1.09948 -0.4371,1.90782 -0.72804,2.41896 -0.29094,0.51116 -0.58188,0.72873 -0.82594,0.69051 z"
       style="color:#000000;fill:#5f5f5f;fill-opacity:0.99990216;fill-rule:nonzero;stroke:none;stroke-width:4.47805357;marker:none;visibility:visible;display:inline;overflow:visible;enable-background:accumulate" />
    <path
       inkscape:connector-curvature="0"
       id="path9796"
       d="m 536.67566,557.27915 c -0.15029,0.30192 -0.68253,0.40029 -1.54019,0.38078 -0.85903,-0.0195 -2.04899,-0.15061 -3.5161,-0.21936 -1.46573,-0.0687 -3.21137,-0.0697 -5.10041,0.16816 -1.88904,0.23776 -3.91735,0.7176 -5.85741,1.53968 -1.18445,0.495 -2.34545,1.11989 -3.44579,1.85118 -1.10033,0.7313 -2.13723,1.56839 -3.07899,2.47189 -0.94314,0.90348 -1.78839,1.87279 -2.52332,2.8622 -0.73356,0.98942 -1.35543,1.99857 -1.86974,2.98318 -0.60533,1.15077 -1.07414,2.27096 -1.45194,3.2882 -0.37781,1.01725 -0.66599,1.93172 -0.91419,2.69275 -0.24819,0.76101 -0.46054,1.36914 -0.67565,1.78904 -0.2151,0.41989 -0.43434,0.65182 -0.67288,0.66907 -0.23993,0.0172 -0.49639,-0.18063 -0.74734,-0.61001 -0.25095,-0.42938 -0.49364,-1.0913 -0.66324,-1.97973 -0.1696,-0.88841 -0.26612,-2.00432 -0.19993,-3.30298 0.069,-1.29866 0.2937,-2.78018 0.76941,-4.35229 0.41365,-1.35556 1.00932,-2.76648 1.80355,-4.15181 0.79422,-1.38532 1.787,-2.74393 2.95352,-3.99358 1.1679,-1.24963 2.51091,-2.38916 3.9725,-3.35238 1.4616,-0.9632 3.04178,-1.74924 4.66332,-2.32328 1.33198,-0.46686 2.67776,-0.78655 3.98767,-0.97372 1.30992,-0.18717 2.58537,-0.24211 3.78636,-0.19242 2.40198,0.0994 4.49509,0.61829 6.11112,1.2638 1.61603,0.64548 2.76324,1.40707 3.44716,2.04406 0.68392,0.63701 0.91419,1.14568 0.76251,1.44757 z"
       style="color:#000000;fill:#5f5f5f;fill-opacity:0.99990216;fill-rule:nonzero;stroke:none;stroke-width:4.47805357;marker:none;visibility:visible;display:inline;overflow:visible;enable-background:accumulate" />
    <path
       inkscape:connector-curvature="0"
       id="path9798"
       d="m 494.96505,574.87633 c -0.27991,0.25661 -0.89625,0.12672 -1.82285,-0.27813 -0.9266,-0.40485 -2.17171,-1.07885 -3.72845,-1.81186 -1.55674,-0.73298 -3.43061,-1.51933 -5.53062,-2.13531 -2.09863,-0.61598 -4.41925,-1.05522 -6.76608,-1.16957 -2.49712,-0.1303 -5.04526,0.11568 -7.38933,0.61135 -2.34406,0.49568 -4.47441,1.23311 -6.24625,1.95951 -1.77184,0.72639 -3.19206,1.43376 -4.23862,1.86318 -1.04794,0.42943 -1.73323,0.57228 -2.02004,0.28845 -0.1434,-0.14191 -0.18614,-0.38774 -0.1103,-0.73416 0.0689,-0.34641 0.25785,-0.79343 0.57636,-1.32084 0.31714,-0.52741 0.76665,-1.13505 1.36232,-1.78652 0.59428,-0.65146 1.33473,-1.34637 2.2241,-2.03613 0.88799,-0.68976 1.92627,-1.3738 3.09693,-1.99857 1.17203,-0.62478 2.47643,-1.18962 3.88288,-1.64549 1.40506,-0.45586 2.9094,-0.80213 4.46475,-1.00402 1.55398,-0.20188 3.15622,-0.25897 4.74881,-0.15866 1.49193,0.0982 2.96042,0.3329 4.36135,0.68246 1.40092,0.34955 2.73152,0.81348 3.95871,1.35547 1.22718,0.54197 2.34958,1.16151 3.34788,1.81463 0.99692,0.65309 1.86974,1.33929 2.61157,2.01425 1.48365,1.34993 2.43645,2.64305 2.93697,3.6145 0.50191,0.97145 0.56258,1.61885 0.28405,1.87546 z"
       style="color:#000000;fill:#5f5f5f;fill-opacity:0.99990216;fill-rule:nonzero;stroke:none;stroke-width:4.47805357;marker:none;visibility:visible;display:inline;overflow:visible;enable-background:accumulate" />
    <path
       inkscape:connector-curvature="0"
       id="path9800"
       d="m 533.1182,585.64523 c -0.2675,-0.0552 -0.49639,-0.32758 -0.64394,-0.8313 -0.14753,-0.50371 -0.21096,-1.24019 -0.1103,-2.17426 0.0965,-0.93408 0.36677,-2.06614 0.88523,-3.29635 0.51845,-1.23022 1.29199,-2.55679 2.35785,-3.82489 1.0962,-1.29856 2.48747,-2.51569 4.09798,-3.49224 1.61051,-0.97656 3.43475,-1.70878 5.31552,-2.11039 1.24098,-0.25994 2.48885,-0.37353 3.69398,-0.35641 1.20512,0.0171 2.36888,0.16459 3.44991,0.4106 1.07965,0.24601 2.07795,0.59005 2.96869,0.99111 0.89075,0.40105 1.67394,0.85858 2.34131,1.32992 1.33198,0.94267 2.18826,1.92882 2.63501,2.69993 0.44537,0.77112 0.49226,1.32468 0.24682,1.59975 -0.24406,0.27508 -0.77769,0.27722 -1.55536,0.11431 -0.77768,-0.16287 -1.80907,-0.48414 -3.06798,-0.78457 -1.2589,-0.3004 -2.75221,-0.57588 -4.37099,-0.65686 -1.61878,-0.0809 -3.35891,0.0358 -5.02182,0.45751 -1.28648,0.31759 -2.55503,0.80339 -3.72982,1.41136 -1.17479,0.60797 -2.25444,1.33669 -3.19483,2.1154 -0.91695,0.75805 -1.71254,1.57254 -2.3937,2.34932 -0.68116,0.77678 -1.2465,1.51545 -1.73048,2.13918 -0.48398,0.62373 -0.88523,1.13273 -1.24098,1.46784 -0.35436,0.33514 -0.66323,0.49613 -0.9321,0.441 z"
       style="color:#000000;fill:#5f5f5f;fill-opacity:0.99990216;fill-rule:nonzero;stroke:none;stroke-width:4.47805357;marker:none;visibility:visible;display:inline;overflow:visible;enable-background:accumulate" />
    <path
       inkscape:connector-curvature="0"
       id="path9802"
       d="m 553.99832,580.6682 c -0.1958,-0.0758 -0.35024,-0.26487 -0.43848,-0.57771 -0.0965,-0.31286 -0.11031,-0.75027 -0.0276,-1.29783 0.0827,-0.54755 0.28405,-1.2057 0.64393,-1.92532 0.35851,-0.71961 0.88109,-1.50045 1.60637,-2.25636 0.67289,-0.69998 1.51262,-1.3695 2.50678,-1.92505 0.99278,-0.55554 2.14137,-0.99583 3.39476,-1.24271 0,0 0,0 0,0 1.09344,-0.21348 2.24892,-0.27659 3.40855,-0.16819 1.161,0.10838 2.32614,0.38847 3.43337,0.83744 1.10722,0.45104 2.13724,1.06324 3.04453,1.79515 0.90591,0.73191 1.69048,1.58291 2.32338,2.49767 0.72253,1.04679 1.23684,2.15776 1.56087,3.24371 0.32403,1.08595 0.45916,2.14598 0.45641,3.11221 0,1.04274 -0.17373,1.96304 -0.41504,2.72649 -0.2413,0.76347 -0.55568,1.37091 -0.87282,1.82271 -0.31714,0.45178 -0.63566,0.74905 -0.91557,0.91167 -0.28128,0.16261 -0.52258,0.19145 -0.71562,0.11059 -0.19167,-0.0809 -0.33782,-0.27127 -0.45089,-0.5513 -0.11031,-0.28002 -0.19304,-0.65011 -0.27439,-1.0934 -0.0827,-0.44327 -0.16134,-0.96046 -0.27716,-1.52891 -0.12409,-0.56846 -0.26887,-1.18874 -0.49363,-1.82255 -0.20683,-0.58755 -0.47571,-1.19589 -0.81904,-1.7916 -0.34334,-0.59571 -0.75976,-1.17854 -1.2465,-1.70288 -0.84938,-0.9195 -1.95798,-1.70593 -3.15484,-2.18961 -1.19547,-0.48711 -2.53711,-0.69522 -3.78773,-0.62726 0,0 0,0 0,0 -0.71701,0.037 -1.42437,0.16591 -2.0876,0.35567 -0.66324,0.18976 -1.28372,0.44031 -1.84217,0.72026 -0.60394,0.30082 -1.1472,0.64209 -1.62705,0.97148 -0.47985,0.32939 -0.89902,0.6471 -1.2658,0.91142 -0.36677,0.26431 -0.68253,0.47535 -0.95969,0.59934 -0.27577,0.12397 -0.51293,0.16074 -0.70873,0.0849 z"
       style="color:#000000;fill:#5f5f5f;fill-opacity:0.99990216;fill-rule:nonzero;stroke:none;stroke-width:4.47805357;marker:none;visibility:visible;display:inline;overflow:visible;enable-background:accumulate" />
    <path
       inkscape:connector-curvature="0"
       id="path9804"
       d="m 589.38408,591.78395 c -0.0965,-0.20066 -0.0689,-0.46389 0.1241,-0.77835 0.18339,-0.31446 0.52121,-0.68026 1.03414,-1.04898 0.51432,-0.36872 1.20513,-0.73968 2.07381,-1.03114 0.86731,-0.29147 1.91249,-0.50193 3.09417,-0.53283 1.11274,-0.0277 2.33304,0.10562 3.57953,0.45403 1.24649,0.34835 2.51643,0.9126 3.70501,1.70742 0,0 0,0 0,0 0.91418,0.61632 1.76218,1.35775 2.50953,2.19788 0.74596,0.84011 1.38989,1.77858 1.90697,2.77629 0.51569,0.99772 0.90453,2.05423 1.15548,3.12406 0.25095,1.06983 0.36402,2.15252 0.34748,3.20334 -0.0414,1.95271 -0.53638,3.70832 -1.22167,5.11986 -0.68668,1.41153 -1.55812,2.48109 -2.37854,3.21484 -0.82181,0.73377 -1.58708,1.1383 -2.16482,1.30306 -0.57637,0.16477 -0.96796,0.0951 -1.15963,-0.13127 -0.19166,-0.22643 -0.18752,-0.6094 -0.0552,-1.12795 0.1241,-0.51855 0.37919,-1.17685 0.64393,-1.97863 0.26474,-0.80179 0.54189,-1.75128 0.71425,-2.80917 0.17098,-1.05789 0.23716,-2.22395 0.0689,-3.38326 -0.15719,-1.2486 -0.58464,-2.54928 -1.23684,-3.74346 -0.65358,-1.19418 -1.52778,-2.27265 -2.5247,-3.08807 0,0 0,0 0,0 -0.66047,-0.54602 -1.38575,-1.00327 -2.12207,-1.36963 -0.73631,-0.36635 -1.48503,-0.64158 -2.20204,-0.83968 -0.76251,-0.21181 -1.50158,-0.33869 -2.17447,-0.42453 -0.67288,-0.0859 -1.28234,-0.13099 -1.80079,-0.18011 -0.51984,-0.0491 -0.95004,-0.10272 -1.27683,-0.19856 -0.32541,-0.0958 -0.54603,-0.23452 -0.63979,-0.43516 z"
       style="color:#000000;fill:#5f5f5f;fill-opacity:0.99990216;fill-rule:nonzero;stroke:none;stroke-width:4.47805357;marker:none;visibility:visible;display:inline;overflow:visible;enable-background:accumulate" />
    <path
       inkscape:connector-curvature="0"
       id="path9806"
       d="m 584.67113,586.81006 c -2.24755,-0.99878 -4.63161,-1.41902 -6.83641,-1.33119 0,0 0,0 0,0 -2.1069,0.0899 -4.00422,0.62835 -5.57061,1.34895 -1.565,0.72059 -2.80184,1.62012 -3.71189,2.46779 -0.91006,0.84767 -1.50021,1.64179 -1.83665,2.22379 -0.33782,0.58201 -0.4302,0.95101 -0.31438,1.03861 0.11031,0.0876 0.42882,-0.11016 0.93763,-0.49227 0.5088,-0.38212 1.21892,-0.94708 2.16757,-1.54713 0.94728,-0.60007 2.13861,-1.23477 3.55609,-1.72301 1.41747,-0.48824 3.06383,-0.82921 4.82326,-0.8166 0,0 0,0 0,0 1.84079,0.007 3.82083,0.41067 5.70987,1.25043 2.00625,0.89205 3.71604,2.19087 4.98735,3.65395 0,0 0,0 0,0 1.12791,1.29139 1.93041,2.71509 2.48471,4.06302 0.55431,1.34792 0.86041,2.62059 1.04104,3.69422 0.17925,1.07364 0.23441,1.95137 0.29094,2.56488 0.0552,0.61351 0.1241,0.96636 0.26198,0.99264 0.14065,0.0263 0.34748,-0.27823 0.5488,-0.89706 0.20269,-0.61885 0.39435,-1.55599 0.42469,-2.76041 0.0275,-1.20441 -0.11032,-2.679 -0.58465,-4.28367 -0.47294,-1.60467 -1.28509,-3.33928 -2.55227,-4.95288 0,0 0,0 0,0 -0.71839,-0.91015 -1.57466,-1.76895 -2.55365,-2.53235 -0.97899,-0.76341 -2.08071,-1.43119 -3.27342,-1.96171 z"
       style="color:#000000;fill:#5f5f5f;fill-opacity:0.99990216;fill-rule:nonzero;stroke:none;stroke-width:4.47805357;marker:none;visibility:visible;display:inline;overflow:visible;enable-background:accumulate" />
    <path
       inkscape:connector-curvature="0"
       id="path9808"
       d="m 605.58848,607.29978 c 0.0414,-0.22432 0.22475,-0.42516 0.56395,-0.57359 0.33921,-0.14843 0.83697,-0.24384 1.47952,-0.22567 0.64393,0.0182 1.43264,0.15167 2.30822,0.4746 0.87558,0.32293 1.83802,0.83748 2.77427,1.60109 0.88799,0.72726 1.73599,1.6684 2.42956,2.8012 0.69494,1.13281 1.23133,2.45685 1.51261,3.89503 0,0 0,0 0,0 0.1958,1.03521 0.25647,2.10475 0.17649,3.16443 -0.0827,1.05968 -0.29783,2.10903 -0.64392,3.10487 -0.34748,0.99585 -0.82042,1.93776 -1.39266,2.79019 -0.57222,0.85242 -1.24511,1.6151 -1.97866,2.26532 -1.39403,1.21205 -2.93561,1.96001 -4.35032,2.34441 -1.41609,0.3844 -2.70257,0.41267 -3.71603,0.26757 -1.01347,-0.14508 -1.7553,-0.45683 -2.21308,-0.78073 -0.45778,-0.32388 -0.63565,-0.6576 -0.58739,-0.94464 0.0414,-0.28704 0.31989,-0.52989 0.75286,-0.76745 0.43434,-0.23758 1.03001,-0.47448 1.72357,-0.78832 0.69357,-0.31385 1.48918,-0.70783 2.28478,-1.23651 0.79561,-0.5287 1.59121,-1.19209 2.22824,-1.99725 0.68943,-0.84325 1.24374,-1.89753 1.59122,-3.03317 0.34747,-1.13564 0.48397,-2.34316 0.36263,-3.45906 0,0 0,0 0,0 -0.0827,-0.79783 -0.27853,-1.58683 -0.55705,-2.3192 -0.27854,-0.73235 -0.63567,-1.40724 -1.03002,-2.00152 -0.41228,-0.62723 -0.87834,-1.17834 -1.3306,-1.65696 -0.45089,-0.47863 -0.88661,-0.88541 -1.2589,-1.24048 -0.37092,-0.35506 -0.67702,-0.65969 -0.87696,-0.93556 -0.20131,-0.27587 -0.29645,-0.52425 -0.25233,-0.7486 z"
       style="color:#000000;fill:#5f5f5f;fill-opacity:0.99990216;fill-rule:nonzero;stroke:none;stroke-width:4.47805357;marker:none;visibility:visible;display:inline;overflow:visible;enable-background:accumulate" />
    <path
       inkscape:connector-curvature="0"
       id="path9810"
       d="m 612.59172,639.71624 c 0.28267,-0.979 0.42331,-1.97479 0.42883,-2.94028 0,0 0,0 0,0 0,-1.61727 -0.37229,-3.09536 -0.91418,-4.31369 -0.5419,-1.21834 -1.24926,-2.1784 -1.92628,-2.87243 -0.67702,-0.69404 -1.32233,-1.1268 -1.80217,-1.35555 -0.47985,-0.22875 -0.79285,-0.25943 -0.88799,-0.13141 -0.0965,0.1281 0.0276,0.4031 0.29646,0.81614 0.26198,0.41304 0.65633,0.96993 1.06586,1.69189 0.40952,0.72196 0.83421,1.61264 1.14307,2.64967 0.30887,1.03703 0.50329,2.22043 0.43848,3.45623 0,0 0,0 0,0 -0.0276,0.73792 -0.15994,1.50053 -0.38194,2.26088 -0.33645,1.15106 -0.86455,2.20583 -1.48917,3.10262 -0.62325,0.89678 -1.34026,1.63458 -2.06278,2.20932 -1.12102,0.89513 -2.2379,1.43049 -3.04178,1.80175 -0.40124,0.18562 -0.72666,0.33207 -0.95004,0.46306 -0.22337,0.13099 -0.34333,0.24745 -0.33368,0.35801 0,0.11059 0.14754,0.20898 0.4109,0.28048 0.26337,0.0714 0.65083,0.11527 1.14584,0.0968 0.49363,-0.0186 1.0962,-0.10024 1.77184,-0.28811 0.67702,-0.18787 1.42574,-0.48267 2.19239,-0.92355 0.99692,-0.57686 2.00624,-1.4038 2.87493,-2.47954 0.86731,-1.07573 1.59121,-2.40024 2.02141,-3.88231 z"
       style="color:#000000;fill:#5f5f5f;fill-opacity:0.99990216;fill-rule:nonzero;stroke:none;stroke-width:4.47805357;marker:none;visibility:visible;display:inline;overflow:visible;enable-background:accumulate" />
    <path
       inkscape:connector-curvature="0"
       id="path9812"
       d="m 601.50291,643.09264 c 0.24957,-0.0906 0.56671,-0.011 0.92384,0.28972 0.35574,0.30022 0.75009,0.82379 1.07413,1.59185 0.32403,0.76807 0.57498,1.78371 0.59566,2.98965 0.0138,1.20594 -0.19717,2.60227 -0.79422,4.02747 -0.60945,1.43166 -1.58845,2.83278 -2.89009,3.97883 -1.30165,1.14606 -2.92457,2.03068 -4.69641,2.49252 -1.68911,0.42926 -3.43199,0.45527 -5.03147,0.13981 -1.60086,-0.31545 -3.05281,-0.96883 -4.23449,-1.80601 -1.1872,-0.84976 -2.06002,-1.85255 -2.65707,-2.81847 -0.59567,-0.96594 -0.9197,-1.89294 -1.06034,-2.66347 -0.14203,-0.77053 -0.11031,-1.38533 0.0138,-1.8083 0.12409,-0.42298 0.3323,-0.65625 0.5805,-0.72179 0.24819,-0.0655 0.53637,0.0349 0.8673,0.2521 0.33093,0.21716 0.70736,0.55066 1.15825,0.94004 0.4495,0.38937 0.97485,0.83529 1.58845,1.26276 0.61497,0.42746 1.31819,0.83685 2.08897,1.12945 0.76114,0.29676 1.62017,0.49487 2.51092,0.55725 0.89074,0.0625 1.81044,-0.011 2.65844,-0.2455 0.88937,-0.23439 1.76081,-0.66568 2.53022,-1.21227 0.7694,-0.54658 1.43126,-1.20638 1.93867,-1.90495 0.51156,-0.68888 0.89351,-1.45295 1.18031,-2.18462 0.2868,-0.73165 0.47985,-1.43145 0.63704,-2.03813 0.15719,-0.60671 0.27991,-1.12247 0.43158,-1.5098 0.1503,-0.38731 0.33369,-0.64752 0.58188,-0.73814 z"
       style="color:#000000;fill:#5f5f5f;fill-opacity:0.99990216;fill-rule:nonzero;stroke:none;stroke-width:4.47805357;marker:none;visibility:visible;display:inline;overflow:visible;enable-background:accumulate" />
    <path
       inkscape:connector-curvature="0"
       id="path9814"
       d="m 590.06799,640.86203 c 0.26474,0.0739 0.46468,0.40755 0.54879,1.00879 0.0827,0.60123 0.0552,1.4716 -0.18614,2.55881 -0.23992,1.08719 -0.68943,2.39143 -1.43816,3.78591 -0.7501,1.39449 -1.8008,2.8769 -3.18517,4.26141 -1.42437,1.42191 -3.18793,2.71939 -5.18039,3.71464 -1.99108,0.99524 -4.20691,1.68411 -6.45308,1.9823 -1.90834,0.24852 -3.80566,0.20939 -5.5775,-0.0594 -1.77046,-0.26884 -3.41269,-0.7654 -4.84808,-1.38915 -1.47262,-0.63676 -2.73015,-1.40658 -3.745,-2.18888 -1.01484,-0.78231 -1.787,-1.57523 -2.33855,-2.28014 -0.55154,-0.70493 -0.88247,-1.32104 -1.03277,-1.79212 -0.15029,-0.47109 -0.12409,-0.79734 0.0552,-0.96966 0.17511,-0.17233 0.49639,-0.1915 0.95141,-0.0878 0.45365,0.10368 1.0438,0.32933 1.7677,0.62066 0.72529,0.29135 1.58708,0.64756 2.58123,0.99986 0.99416,0.35229 2.1207,0.69995 3.35202,0.97266 1.20099,0.26271 2.50402,0.45381 3.8553,0.51784 1.35129,0.064 2.74945,2.5e-4 4.12418,-0.22876 1.64223,-0.26714 3.27756,-0.75734 4.80121,-1.41933 1.52225,-0.66199 2.93007,-1.494 4.15589,-2.40534 1.19271,-0.88461 2.22686,-1.8514 3.10244,-2.77876 0.87557,-0.92736 1.59534,-1.81456 2.19653,-2.5625 0.5998,-0.74794 1.08241,-1.35674 1.48917,-1.75354 0.40676,-0.39683 0.73907,-0.58136 1.00519,-0.50746 z"
       style="color:#000000;fill:#5f5f5f;fill-opacity:0.99990216;fill-rule:nonzero;stroke:none;stroke-width:4.47805357;marker:none;visibility:visible;display:inline;overflow:visible;enable-background:accumulate" />
    <path
       inkscape:connector-curvature="0"
       id="path9816"
       d="m 566.21091,654.62316 c 0.18339,0.23786 0.12409,0.67618 -0.23717,1.28585 -0.35436,0.60966 -1.00105,1.38992 -1.97039,2.23846 -0.96797,0.84854 -2.25858,1.76246 -3.84979,2.59353 -1.59121,0.83108 -3.48163,1.57517 -5.56784,2.09192 -2.26824,0.56591 -4.77087,0.85822 -7.2873,0.78916 -2.51642,-0.0691 -5.04113,-0.50075 -7.3452,-1.23721 -2.22962,-0.71676 -4.23311,-1.69904 -5.89602,-2.7668 -1.66429,-1.06775 -2.98937,-2.21555 -3.96285,-3.25986 -0.97348,-1.0443 -1.59948,-1.98187 -1.92213,-2.69236 -0.32404,-0.7105 -0.34886,-1.19351 -0.12411,-1.41889 0.22476,-0.2254 0.69771,-0.19463 1.39817,0.0414 0.69908,0.23595 1.62844,0.67506 2.77703,1.21256 1.14859,0.53748 2.52056,1.17118 4.08281,1.77429 1.56226,0.60313 3.31479,1.17319 5.18039,1.59598 1.90973,0.43603 3.95045,0.70338 5.99944,0.77764 2.04899,0.0743 4.10073,-0.0435 6.02287,-0.30066 1.76633,-0.23973 3.42786,-0.59516 4.91013,-0.98243 1.48228,-0.38727 2.78806,-0.80463 3.8815,-1.1529 1.09344,-0.34826 1.97729,-0.62535 2.63501,-0.74565 0.65771,-0.12038 1.09068,-0.0818 1.27545,0.15604 z"
       style="color:#000000;fill:#5f5f5f;fill-opacity:0.99990216;fill-rule:nonzero;stroke:none;stroke-width:4.47805357;marker:none;visibility:visible;display:inline;overflow:visible;enable-background:accumulate" />
    <path
       inkscape:connector-curvature="0"
       id="path9818"
       d="m 266.5688,610.78006 c -0.16685,0.24015 -0.55292,0.31999 -1.13067,0.29241 -0.57636,-0.0275 -1.34577,-0.16005 -2.28753,-0.29773 -0.94176,-0.13775 -2.05864,-0.2786 -3.29824,-0.3114 -1.2396,-0.0328 -2.60329,0.044 -3.98078,0.32811 -1.46711,0.29665 -2.97972,0.8366 -4.39581,1.60188 -1.4161,0.76528 -2.7274,1.75266 -3.8098,2.87623 -1.16928,1.19704 -2.09174,2.59295 -2.78668,3.9637 -0.69495,1.37077 -1.16377,2.71266 -1.50435,3.86677 -0.34195,1.15409 -0.55981,2.12337 -0.79008,2.81529 -0.23027,0.69192 -0.47709,1.10914 -0.80526,1.17512 -0.32955,0.066 -0.74183,-0.22265 -1.15135,-0.92359 -0.40814,-0.70094 -0.80664,-1.82138 -0.9721,-3.31467 -0.16409,-1.49327 -0.0827,-3.36177 0.47158,-5.37406 0.27714,-1.00614 0.6715,-2.04497 1.19822,-3.07238 0.52535,-1.02739 1.18445,-2.04292 1.97453,-2.99846 1.46849,-1.75859 3.3534,-3.25605 5.42997,-4.30325 2.07657,-1.04722 4.33377,-1.64086 6.4779,-1.78239 2.01451,-0.12727 3.88287,0.13809 5.4534,0.60762 1.5719,0.46955 2.84598,1.137 3.78912,1.80546 0.94314,0.66844 1.55949,1.33417 1.89317,1.86844 0.33507,0.53427 0.39022,0.93676 0.22476,1.1769 z"
       style="color:#000000;fill:#5f5f5f;fill-opacity:0.99990216;fill-rule:nonzero;stroke:none;stroke-width:4.47805357;marker:none;visibility:visible;display:inline;overflow:visible;enable-background:accumulate" />
    <path
       inkscape:connector-curvature="0"
       id="path9820"
       d="m 250.30373,630.42543 c -0.15443,0.10893 -0.3847,0.10672 -0.6853,0.0205 -0.30059,-0.0862 -0.6715,-0.2558 -1.12376,-0.46588 -0.4509,-0.21008 -0.98451,-0.46067 -1.60224,-0.69479 -0.61774,-0.23414 -1.32096,-0.45205 -2.09036,-0.5806 -0.69495,-0.11845 -1.45608,-0.16657 -2.24617,-0.10921 -0.79009,0.0574 -1.60913,0.22008 -2.38819,0.51615 -1.31682,0.4944 -2.60605,1.40293 -3.50921,2.58306 -0.86179,1.11512 -1.43126,2.5465 -1.56501,3.9581 -0.11031,1.19175 0.069,2.43196 0.47709,3.52086 0.44813,1.18643 1.19685,2.24781 2.0545,3.05666 0.51708,0.49075 1.08931,0.90161 1.66705,1.23557 0.57775,0.33397 1.16238,0.5911 1.7222,0.78599 0.62876,0.21992 1.23409,0.3633 1.78149,0.4685 0.54741,0.10521 1.03691,0.17254 1.45057,0.23804 0.41227,0.0655 0.75147,0.12961 1.00105,0.22053 0.25095,0.091 0.41366,0.20927 0.47571,0.36857 0.0552,0.1593 0.0138,0.35999 -0.14064,0.59417 -0.16133,0.23418 -0.44262,0.50202 -0.86456,0.76944 -0.42054,0.26742 -0.98174,0.53427 -1.68634,0.73999 -0.70598,0.20569 -1.55674,0.3497 -2.53021,0.35042 -0.86593,-2.3e-4 -1.82286,-0.11486 -2.81978,-0.39356 -0.9983,-0.27877 -2.03658,-0.72239 -3.04315,-1.36766 -0.83146,-0.5341 -1.6312,-1.1989 -2.34958,-1.99032 -0.71977,-0.79143 -1.35956,-1.70946 -1.87112,-2.73546 -0.93763,-1.88666 -1.40782,-4.08982 -1.25752,-6.32428 0.0965,-1.33128 0.39986,-2.64383 0.90315,-3.8716 0.50328,-1.22777 1.20237,-2.37014 2.05727,-3.37053 0.90453,-1.05233 1.96212,-1.92161 3.09278,-2.58757 1.13205,-0.66597 2.33718,-1.12856 3.53954,-1.39314 1.42713,-0.30988 2.81564,-0.33481 4.07731,-0.15983 1.26165,0.175 2.39646,0.54868 3.36028,1.02498 1.06311,0.52789 1.90008,1.17013 2.53573,1.80333 0.63566,0.63322 1.07,1.25715 1.35129,1.79538 0.28128,0.53826 0.40952,0.99131 0.43434,1.32786 0.0275,0.33655 -0.0552,0.55741 -0.20821,0.66634 z"
       style="color:#000000;fill:#5f5f5f;fill-opacity:0.99990216;fill-rule:nonzero;stroke:none;stroke-width:4.47805357;marker:none;visibility:visible;display:inline;overflow:visible;enable-background:accumulate" />
    <path
       inkscape:connector-curvature="0"
       id="path9822"
       d="m 247.05651,658.56599 c -0.72804,-0.34765 -1.40092,-0.76897 -1.99935,-1.24789 -0.91281,-0.72641 -1.67256,-1.58642 -2.26823,-2.48375 -0.59705,-0.89734 -1.03139,-1.83165 -1.32371,-2.73172 -0.30473,-0.93406 -0.46054,-1.83757 -0.53362,-2.64935 -0.069,-0.81176 -0.0552,-1.53262 -0.0275,-2.13153 0.0275,-0.5989 0.069,-1.07721 0.0827,-1.41723 0,-0.34002 -0.0276,-0.54305 -0.12409,-0.58397 -0.11031,-0.041 -0.27302,0.0834 -0.48261,0.37475 -0.2082,0.29135 -0.4564,0.75111 -0.67978,1.37906 -0.22337,0.62795 -0.41917,1.42552 -0.50328,2.3686 -0.0827,0.94308 -0.0552,2.03255 0.1889,3.20263 0.23303,1.12677 0.66186,2.31748 1.32647,3.47158 0.66461,1.1541 1.56501,2.27073 2.69843,3.22202 0.75148,0.62729 1.59673,1.17322 2.51367,1.6125 1.28924,0.61826 2.64742,0.99132 3.97388,1.13945 1.32647,0.14815 2.62123,0.0717 3.80705,-0.18057 1.58293,-0.34176 2.93697,-0.98385 4.01663,-1.71237 1.07827,-0.72853 1.8849,-1.5418 2.45437,-2.27468 0.56947,-0.73288 0.90591,-1.38499 1.07552,-1.85472 0.17098,-0.46972 0.182,-0.75728 0.0689,-0.82425 -0.1103,-0.067 -0.34609,0.0891 -0.69908,0.39646 -0.35299,0.30739 -0.83145,0.76567 -1.474,1.27566 -0.64255,0.51 -1.45194,1.07205 -2.43645,1.55857 -0.98451,0.48652 -2.1469,0.8975 -3.42923,1.07336 -0.9597,0.1354 -1.99522,0.13816 -3.05281,-0.019 -1.05621,-0.1572 -2.13586,-0.47424 -3.16035,-0.96355 z"
       style="color:#000000;fill:#5f5f5f;fill-opacity:0.99990216;fill-rule:nonzero;stroke:none;stroke-width:4.47805357;marker:none;visibility:visible;display:inline;overflow:visible;enable-background:accumulate" />
    <path
       inkscape:connector-curvature="0"
       id="path9824"
       d="m 258.21703,648.28951 c 0.19166,-0.0598 0.43986,0.071 0.7501,0.36442 0.31162,0.29343 0.68805,0.74959 1.15962,1.32296 0.47157,0.57337 1.04242,1.26442 1.7484,2.00565 0.7046,0.74122 1.54709,1.53297 2.54538,2.2792 0.91694,0.68574 1.97315,1.3373 3.15208,1.88353 1.17893,0.54623 2.48057,0.98671 3.85392,1.24715 1.31958,0.25208 2.7205,0.33902 4.13108,0.2377 1.41196,-0.10135 2.83218,-0.39089 4.17657,-0.87396 1.3251,-0.47368 2.5964,-1.1426 3.74913,-1.95631 1.15135,-0.81371 2.18412,-1.77141 3.04867,-2.81473 0,0 0,0 0,0 0.98726,-1.18622 1.77184,-2.50106 2.35785,-3.82749 0.58464,-1.32641 0.9721,-2.66343 1.19686,-3.92653 0.24268,-1.35525 0.30335,-2.63828 0.28266,-3.77702 -0.0276,-1.13877 -0.12409,-2.13462 -0.21923,-2.95934 -0.0965,-0.82473 -0.17788,-1.48024 -0.18202,-1.95635 0,-0.47611 0.069,-0.77405 0.25785,-0.87705 0.18753,-0.10301 0.48674,-0.011 0.87972,0.30788 0.39297,0.31877 0.87971,0.86585 1.38024,1.67273 0.5019,0.8069 1.01898,1.87597 1.41885,3.20723 0.40125,1.33127 0.68529,2.92654 0.69219,4.72165 0,1.67275 -0.23854,3.5026 -0.80939,5.36425 -0.57223,1.86165 -1.47539,3.75331 -2.73842,5.50744 0,0 0,0 0,0 -1.11137,1.53894 -2.48609,2.95047 -4.06627,4.13712 -1.58018,1.18666 -3.36443,2.14723 -5.26036,2.8108 -1.92214,0.67028 -3.93114,1.02528 -5.90291,1.07562 -1.97179,0.0503 -3.90633,-0.20351 -5.69747,-0.70828 -1.86284,-0.52678 -3.54782,-1.31611 -5.00114,-2.24774 -1.45194,-0.93163 -2.67224,-2.00415 -3.65536,-3.10005 -1.06862,-1.19484 -1.84768,-2.4061 -2.40199,-3.51127 -0.55292,-1.10517 -0.88246,-2.10436 -1.0631,-2.92783 -0.18063,-0.82349 -0.2151,-1.47208 -0.16408,-1.92137 0.0552,-0.4493 0.18753,-0.70021 0.38057,-0.76001 z"
       style="color:#000000;fill:#5f5f5f;fill-opacity:0.99990216;fill-rule:nonzero;stroke:none;stroke-width:4.47805357;marker:none;visibility:visible;display:inline;overflow:visible;enable-background:accumulate" />
    <path
       inkscape:connector-curvature="0"
       id="path9826"
       d="m 305.21558,662.166 c 1.07964,2e-4 2.13999,-0.10962 3.15759,-0.31824 1.60362,-0.331 3.08452,-0.90185 4.38203,-1.61411 1.29888,-0.71226 2.413,-1.56507 3.32995,-2.45956 0.95004,-0.92841 1.68359,-1.89511 2.23652,-2.79878 0.55154,-0.90365 0.92384,-1.74424 1.16651,-2.45186 0.24406,-0.70762 0.35989,-1.28264 0.39436,-1.6835 0.0414,-0.40085 0,-0.62796 -0.1241,-0.66176 -0.1103,-0.0338 -0.2675,0.12686 -0.49225,0.44207 -0.22338,0.31518 -0.51156,0.78507 -0.89626,1.35997 -0.38333,0.5749 -0.86455,1.25524 -1.47677,1.9766 -0.61221,0.72134 -1.35679,1.48393 -2.25443,2.20328 -0.86317,0.69394 -1.87388,1.34929 -3.01282,1.8941 -1.14032,0.54482 -2.41026,0.97888 -3.76154,1.22737 -0.8549,0.15801 -1.74426,0.24023 -2.65293,0.2394 -1.33612,-0.002 -2.63915,-0.18209 -3.85392,-0.50029 -1.21341,-0.3182 -2.33856,-0.77364 -3.33961,-1.31803 -1.32509,-0.71748 -2.44335,-1.59189 -3.35753,-2.46709 -0.91281,-0.87519 -1.62293,-1.75124 -2.17447,-2.50969 -0.55154,-0.75845 -0.94866,-1.4001 -1.24649,-1.83679 -0.29783,-0.43669 -0.50053,-0.66884 -0.62601,-0.62803 -0.12409,0.0408 -0.16684,0.35346 -0.0827,0.90208 0.0827,0.54863 0.29094,1.3341 0.70736,2.27429 0.41642,0.94019 1.04517,2.03555 1.9566,3.14669 0.91143,1.11111 2.10829,2.23717 3.60987,3.18361 1.13618,0.7144 2.43783,1.31715 3.85806,1.73816 1.42161,0.42102 2.96317,0.65982 4.55024,0.66011 z"
       style="color:#000000;fill:#5f5f5f;fill-opacity:0.99990216;fill-rule:nonzero;stroke:none;stroke-width:4.47805357;marker:none;visibility:visible;display:inline;overflow:visible;enable-background:accumulate" />
    <path
       inkscape:connector-curvature="0"
       id="path9828"
       d="m 299.21752,598.53694 c -0.27439,0.32402 -0.82318,0.40284 -1.58018,0.32145 -0.75837,-0.0814 -1.72771,-0.31641 -2.86114,-0.57058 -1.13343,-0.25416 -2.43231,-0.52397 -3.80566,-0.70101 -1.37335,-0.17706 -2.8184,-0.2588 -4.21656,-0.20558 0,0 0,0 0,0 -1.18583,0.0412 -2.35511,0.17308 -3.44027,0.34388 -1.08654,0.17079 -2.08897,0.37915 -2.96042,0.54837 -0.87282,0.16922 -1.61602,0.29741 -2.20066,0.30613 -0.58326,0.008 -1.00795,-0.10493 -1.23133,-0.38529 -0.22199,-0.28041 -0.24268,-0.72993 0,-1.318 0.23992,-0.58808 0.74597,-1.31389 1.54433,-2.05833 0.79974,-0.74445 1.89732,-1.50259 3.23895,-2.11065 1.34301,-0.60805 2.92733,-1.05954 4.60127,-1.23569 0,0 0,0 0,0 0.99553,-0.10218 2.01037,-0.10755 3.0073,-0.0174 0.99554,0.0902 1.97039,0.27566 2.88596,0.53909 0.91694,0.26344 1.77597,0.60441 2.54813,0.99377 0.77217,0.38933 1.45884,0.82655 2.04624,1.27737 1.17341,0.90163 1.9373,1.84839 2.31649,2.61105 0.38056,0.76267 0.38332,1.33738 0.11031,1.66138 z"
       style="color:#000000;fill:#5f5f5f;fill-opacity:0.99990216;fill-rule:nonzero;stroke:none;stroke-width:4.47805357;marker:none;visibility:visible;display:inline;overflow:visible;enable-background:accumulate" />
    <path
       inkscape:connector-curvature="0"
       id="path9830"
       d="m 263.07476,584.41617 c -0.1696,1.3819 -0.11031,2.74332 0.11031,4.00524 0.23027,1.26191 0.6329,2.42382 1.13894,3.43849 0.55844,1.11819 1.23408,2.04877 1.91386,2.79003 0.6784,0.74126 1.36094,1.29448 1.95937,1.6885 0.59842,0.39402 1.11136,0.63064 1.48504,0.74611 0.37229,0.1154 0.60394,0.11155 0.67012,0.004 0.069,-0.10686 -0.0414,-0.30953 -0.26198,-0.60344 -0.22476,-0.29391 -0.57361,-0.681 -0.98589,-1.17798 -0.41228,-0.49697 -0.88799,-1.10531 -1.35542,-1.83686 -0.46882,-0.73153 -0.92936,-1.58696 -1.29889,-2.55637 -0.33507,-0.8789 -0.59567,-1.85661 -0.73493,-2.90039 -0.14065,-1.04379 -0.16134,-2.15317 -0.0276,-3.27347 0.0276,-0.20977 0.0552,-0.41755 0.0965,-0.62299 0.19719,-1.12131 0.54603,-2.18072 0.98728,-3.13754 0.4426,-0.95684 0.97761,-1.81068 1.54845,-2.54596 0.58326,-0.75297 1.20513,-1.38634 1.79666,-1.91368 0.59154,-0.52737 1.15274,-0.94935 1.62844,-1.29201 0.47571,-0.34268 0.8673,-0.60716 1.12792,-0.81874 0.2606,-0.21159 0.39159,-0.37175 0.35574,-0.4854 -0.0414,-0.11362 -0.23854,-0.17371 -0.59153,-0.16259 -0.35161,0.011 -0.8549,0.0947 -1.47125,0.29148 -0.61636,0.19677 -1.34715,0.50803 -2.12896,0.97763 -0.78182,0.4696 -1.61466,1.09864 -2.41025,1.91536 -0.7763,0.79851 -1.50986,1.77252 -2.11242,2.9024 -0.60257,1.12988 -1.07414,2.4155 -1.33061,3.79852 -0.0414,0.25375 -0.0827,0.51028 -0.1241,0.76902 z"
       style="color:#000000;fill:#5f5f5f;fill-opacity:0.99990216;fill-rule:nonzero;stroke:none;stroke-width:5.45599985;marker:none;visibility:visible;display:inline;overflow:visible;enable-background:accumulate" />
    <path
       inkscape:connector-curvature="0"
       id="path9832"
       d="m 548.21536,546.74263 c -0.12409,0.005 -0.24267,0.0124 -0.36263,0.0202 -1.95661,0.13706 -3.80291,0.67215 -5.40929,1.45793 -1.60775,0.78576 -2.97696,1.82032 -4.05937,2.94659 -1.10033,1.14828 -1.89593,2.37517 -2.45024,3.52192 -0.55568,1.14675 -0.87144,2.21353 -1.03828,3.1015 -0.16822,0.88798 -0.19167,1.59834 -0.15168,2.08172 0.0414,0.48335 0.13789,0.74107 0.25785,0.75306 0.1241,0.0124 0.25647,-0.22119 0.43434,-0.64754 0.17788,-0.42635 0.40125,-1.04693 0.73218,-1.80034 0.3323,-0.75342 0.77492,-1.64096 1.39127,-2.57331 0.61635,-0.93235 1.40782,-1.91008 2.41163,-2.80107 0.98451,-0.87649 2.18137,-1.67261 3.5492,-2.27751 1.36921,-0.60491 2.90664,-1.01803 4.51302,-1.12428 0.0965,-0.007 0.19717,-0.0124 0.29645,-0.0167 1.60224,-0.071 3.17277,0.1662 4.59851,0.6129 1.42574,0.44671 2.70395,1.10257 3.78222,1.86586 1.12791,0.79623 2.04623,1.71239 2.77703,2.60391 0.73079,0.89152 1.27545,1.7589 1.68911,2.50092 0.41503,0.74203 0.70322,1.35991 0.92521,1.78257 0.222,0.42266 0.38195,0.65097 0.50329,0.62771 0.1241,-0.0233 0.19718,-0.29808 0.18891,-0.79967 0,-0.50159 -0.0965,-1.23118 -0.36678,-2.12778 -0.26337,-0.89658 -0.70047,-1.96114 -1.39541,-3.07856 -0.69495,-1.11743 -1.6505,-2.2876 -2.91492,-3.3343 -1.20926,-0.99922 -2.69016,-1.86971 -4.37651,-2.46526 -1.68497,-0.59556 -3.57539,-0.91455 -5.52511,-0.83046 z"
       style="color:#000000;fill:#5f5f5f;fill-opacity:0.99990216;fill-rule:nonzero;stroke:none;stroke-width:4.47805357;marker:none;visibility:visible;display:inline;overflow:visible;enable-background:accumulate" />
    <path
       inkscape:connector-curvature="0"
       id="path9834"
       d="m 559.09735,564.56621 c -0.24267,-0.1241 -0.38608,-0.45873 -0.36678,-1.00953 0.0138,-0.5508 0.2027,-1.31973 0.65083,-2.22549 0.44813,-0.90577 1.16651,-1.94779 2.2241,-2.94564 1.05897,-0.99782 2.4599,-1.94712 4.17245,-2.60496 1.75253,-0.66433 3.77946,-0.99417 5.84913,-0.85455 2.06968,0.13961 4.17382,0.75095 6.04218,1.80531 1.62568,0.92636 3.02109,2.15727 4.09936,3.52797 1.07827,1.37069 1.83941,2.87698 2.29443,4.34292 0.46054,1.4978 0.59842,2.92089 0.54051,4.14674 -0.0552,1.22586 -0.3061,2.25506 -0.61221,3.04525 -0.30749,0.79018 -0.67289,1.34367 -1.00382,1.6752 -0.3323,0.33154 -0.63013,0.44336 -0.86868,0.37142 -0.23855,-0.072 -0.4178,-0.32688 -0.56395,-0.73109 -0.14754,-0.40423 -0.26475,-0.95867 -0.40953,-1.62999 -0.14615,-0.67132 -0.32265,-1.46112 -0.59291,-2.31588 -0.27025,-0.85475 -0.63566,-1.7751 -1.14721,-2.66916 -0.49639,-0.87742 -1.14308,-1.74953 -1.92627,-2.53665 -0.78182,-0.78714 -1.69876,-1.48766 -2.69568,-2.01344 -1.13067,-0.60559 -2.41577,-1.00062 -3.70639,-1.17689 -1.28923,-0.17628 -2.57847,-0.13292 -3.74774,0.0949 -1.14722,0.21492 -2.21584,0.61365 -3.14933,1.06367 -0.93487,0.45002 -1.73599,0.95089 -2.40473,1.39183 -0.67013,0.44093 -1.21065,0.82198 -1.65188,1.05506 -0.44124,0.23308 -0.7832,0.31722 -1.02588,0.1931 z"
       style="color:#000000;fill:#5f5f5f;fill-opacity:0.99990216;fill-rule:nonzero;stroke:none;stroke-width:4.47805357;marker:none;visibility:visible;display:inline;overflow:visible;enable-background:accumulate" />
    <path
       inkscape:connector-curvature="0"
       id="path9836"
       d="m 581.90788,569.66518 c -0.1103,-0.2374 -0.0414,-0.56702 0.24269,-0.96409 0.29093,-0.39705 0.808,-0.86141 1.58017,-1.297 0.77079,-0.43558 1.80079,-0.83996 3.05556,-1.06532 1.25615,-0.22537 2.73842,-0.26756 4.32687,0.022 1.59397,0.29569 3.2555,0.92463 4.78604,1.90301 1.52916,0.97837 2.9218,2.30547 3.99594,3.87914 1.04105,1.53528 1.7484,3.25734 2.10415,4.97553 0.35574,1.71819 0.36126,3.42784 0.0965,4.96392 -0.2675,1.54213 -0.79423,2.87619 -1.4092,3.9455 -0.61498,1.06932 -1.31543,1.87588 -1.95937,2.43932 -0.64392,0.56342 -1.2327,0.88693 -1.6891,1.02531 -0.4564,0.1384 -0.78043,0.094 -0.96521,-0.0865 -0.18614,-0.1805 -0.23302,-0.49694 -0.18339,-0.93007 0.0552,-0.43315 0.19581,-0.98472 0.36817,-1.65036 0.17235,-0.66565 0.37228,-1.44748 0.51707,-2.32518 0.14616,-0.8777 0.23716,-1.85201 0.19165,-2.86372 -0.0414,-1.00713 -0.22061,-2.07565 -0.5543,-3.12668 -0.33368,-1.05105 -0.82317,-2.08203 -1.45469,-2.99358 -0.64256,-0.93873 -1.46022,-1.78429 -2.35786,-2.48415 -0.89626,-0.69985 -1.87112,-1.25193 -2.8377,-1.64309 -0.95969,-0.3943 -1.93592,-0.63828 -2.8377,-0.79354 -0.90316,-0.15527 -1.73186,-0.22252 -2.43783,-0.27431 -0.70736,-0.0519 -1.29475,-0.0896 -1.73323,-0.18089 -0.43986,-0.0913 -0.73218,-0.23797 -0.84662,-0.47536 z"
       style="color:#000000;fill:#5f5f5f;fill-opacity:0.99990216;fill-rule:nonzero;stroke:none;stroke-width:4.47805357;marker:none;visibility:visible;display:inline;overflow:visible;enable-background:accumulate" />
    <path
       inkscape:connector-curvature="0"
       id="path9838"
       d="m 429.88409,559.76814 c -0.14753,-0.15896 -0.2992,-0.31366 -0.45364,-0.46396 -1.1155,-1.08026 -2.37992,-1.91601 -3.66364,-2.50843 -1.2851,-0.59242 -2.58951,-0.94203 -3.81118,-1.09407 -1.24925,-0.15411 -2.4006,-0.10383 -3.39476,0.0537 -0.99415,0.15757 -1.83113,0.42129 -2.48746,0.70095 -0.65634,0.27967 -1.13481,0.57422 -1.4354,0.81701 -0.3006,0.24279 -0.42469,0.43291 -0.37505,0.54176 0.0552,0.10879 0.27301,0.13044 0.63841,0.0994 0.36678,-0.0309 0.87834,-0.11307 1.51951,-0.18724 0.64117,-0.0742 1.41196,-0.13983 2.28477,-0.12864 0.87282,0.011 1.84768,0.0996 2.86942,0.33356 0.99967,0.22808 2.05037,0.59866 3.079,1.13842 1.02863,0.53975 2.03658,1.24838 2.93008,2.12633 0.1241,0.12175 0.24682,0.2468 0.36678,0.3752 0.848,0.90894 1.53054,1.92697 2.04623,2.96572 0.51432,1.03876 0.86179,2.09765 1.06586,3.1092 0.222,1.09456 0.27991,2.14079 0.25095,3.07534 -0.0275,0.93455 -0.14201,1.7582 -0.26197,2.4413 -0.1241,0.68311 -0.24544,1.22732 -0.30749,1.6179 -0.0689,0.39058 -0.0552,0.62936 0.0552,0.68937 0.11031,0.06 0.3199,-0.0635 0.59843,-0.37428 0.27853,-0.31074 0.62187,-0.81059 0.95555,-1.50453 0.33369,-0.69393 0.65634,-1.58375 0.86179,-2.64702 0.20407,-1.06327 0.29095,-2.30092 0.14754,-3.64203 -0.13789,-1.23894 -0.46743,-2.55404 -1.03966,-3.847 -0.57223,-1.29297 -1.38438,-2.56273 -2.4337,-3.68803 z"
       style="color:#000000;fill:#5f5f5f;fill-opacity:0.99990216;fill-rule:nonzero;stroke:none;stroke-width:5.45599985;marker:none;visibility:visible;display:inline;overflow:visible;enable-background:accumulate" />
    <path
       inkscape:connector-curvature="0"
       id="path9840"
       d="m 383.41089,565.59715 c -0.19717,0.0916 -0.39159,0.18759 -0.58188,0.28803 -1.37334,0.72441 -2.56054,1.66575 -3.52299,2.7026 -0.96245,1.03683 -1.69876,2.168 -2.2241,3.28271 -0.53363,1.13875 -0.84387,2.24969 -1.00382,3.24342 -0.15857,0.99375 -0.16821,1.87068 -0.1103,2.5817 0.0689,0.71102 0.19304,1.25718 0.33092,1.61843 0.13789,0.36126 0.27991,0.53876 0.39849,0.52453 0.1241,-0.0142 0.20821,-0.21828 0.29232,-0.57599 0.0827,-0.35771 0.16547,-0.87002 0.29508,-1.5024 0.12409,-0.63239 0.30611,-1.38585 0.5874,-2.21193 0.28128,-0.82608 0.66875,-1.72529 1.20788,-2.623 0.5281,-0.87967 1.20651,-1.76257 2.03934,-2.57319 0.83283,-0.81063 1.81872,-1.54852 2.93146,-2.12489 0.15443,-0.0803 0.31163,-0.15743 0.47019,-0.23145 1.12791,-0.52399 2.30684,-0.85624 3.45405,-1.0232 1.14859,-0.16695 2.26272,-0.16849 3.28722,-0.048 1.10998,0.12892 2.12206,0.39987 3.00177,0.71748 0.87835,0.31762 1.62569,0.6817 2.23791,1.00799 0.61221,0.32631 1.09067,0.61458 1.44228,0.79487 0.35299,0.18029 0.5805,0.25178 0.67151,0.16613 0.0965,-0.0856 0.0414,-0.32409 -0.1696,-0.68484 -0.20959,-0.36077 -0.57774,-0.84349 -1.13343,-1.3763 -0.55568,-0.53279 -1.30165,-1.11509 -2.24892,-1.64031 -0.94728,-0.52522 -2.09587,-0.99234 -3.41545,-1.27217 -1.21891,-0.25715 -2.57296,-0.34926 -3.97939,-0.20717 -1.40645,0.14209 -2.86666,0.51907 -4.26207,1.16695 z"
       style="color:#000000;fill:#5f5f5f;fill-opacity:0.99990216;fill-rule:nonzero;stroke:none;stroke-width:5.45599985;marker:none;visibility:visible;display:inline;overflow:visible;enable-background:accumulate" />
    <path
       inkscape:connector-curvature="0"
       id="path9844"
       d="m 404.63987,551.10733 c 0,15.80128 -0.0965,28.58153 2.37027,28.58153 l 0.0827,0 c 2.46679,0 2.60743,-12.94896 2.41301,-28.58153 l -0.26612,-21.14362 -2.18964,-174.03809 c 0,-12.6943 -1.55811,120.9792 -2.17033,174.03809 -0.14891,12.98641 -0.24267,21.14362 -0.24267,21.14362 z"
       style="color:#000000;fill:#5f5f5f;fill-opacity:0.99990216;fill-rule:nonzero;stroke:none;stroke-width:3.74297166;marker:none;visibility:visible;display:inline;overflow:visible;enable-background:accumulate" />
    <path
       inkscape:connector-curvature="0"
       id="path9846"
       d="m 398.79073,549.15732 c 0,15.80129 -0.0965,28.58154 2.37027,28.58154 l 0.0827,0 c 2.46679,0 2.60743,-12.94896 2.41301,-28.58154 l -0.26612,-21.14361 -2.19101,-174.03809 c 0,-12.6943 -1.55674,120.97919 -2.16895,174.03809 -0.1503,12.98641 -0.24406,21.14361 -0.24406,21.14361 z"
       style="color:#000000;fill:#5f5f5f;fill-opacity:0.99990216;fill-rule:nonzero;stroke:none;stroke-width:3.74297166;marker:none;visibility:visible;display:inline;overflow:visible;enable-background:accumulate" />
    <path
       inkscape:connector-curvature="0"
       id="path9848"
       d="m 409.02741,549.15732 c 0,15.80129 -0.0965,28.58154 2.37027,28.58154 l 0.0827,0 c 2.46679,0 2.60743,-12.94896 2.41301,-28.58154 l -0.26612,-21.14361 -2.18963,-174.03809 c 0,-12.6943 -1.55812,120.97919 -2.17033,174.03809 -0.14892,12.98641 -0.24268,21.14361 -0.24268,21.14361 z"
       style="color:#000000;fill:#5f5f5f;fill-opacity:0.99990216;fill-rule:nonzero;stroke:none;stroke-width:3.74297166;marker:none;visibility:visible;display:inline;overflow:visible;enable-background:accumulate" />
    <g
       id="g9850"
       transform="matrix(1.3788631,0,0,1.3788631,-10918.23,409.5139)">
      <path
         id="path9852"
         d="m 8212.8244,-69.309136 c -3.1452,0 -9.375,11.266836 -9.375,16.460301 l 0,24.280023 2.2681,-2.764984 0,-9.029404 c 0,-2.151387 1.0402,-4.608415 2.2898,-6.826057 0.6249,-1.108821 1.3046,-2.113036 2.0305,-2.916195 0.7257,-0.803159 1.4275,-1.598507 2.7866,-1.598507 1.3591,0 2.0609,0.795348 2.7866,1.598507 0.7259,0.803159 1.4056,1.807374 2.0305,2.916195 1.2497,2.217642 2.2898,4.67467 2.2898,6.826057 l 0,9.029404 2.2681,2.764984 0,-24.280023 c 0,-5.193465 -6.2297,-16.460301 -9.375,-16.460301 z"
         style="color:#000000;fill:#5f5f5f;fill-opacity:1;fill-rule:nonzero;stroke:none;stroke-width:0.83577561;marker:none;visibility:visible;display:inline;overflow:visible;enable-background:accumulate"
         inkscape:connector-curvature="0" />
      <path
         id="path9854"
         d="m 8197.833,-54.900973 c -1.2754,0 -3.8019,6.037518 -3.8019,8.143745 l 0,28.643516 7.2365,-6.350825 0.065,-0.0432 0.3024,-0.367224 0,-21.882264 c 0,-2.106227 -2.5264,-8.143745 -3.8019,-8.143745 z m -3.8019,56.5309821 0,3.0890061 -0.021,0 -2.333,6.3508248 2.3546,0 0,2.85139 7.6037,0 0,-2.85139 2.3546,0 -2.333,-6.3508248 -0.021,0 0,-3.0890061 -7.6037,0 z"
         style="color:#000000;fill:#5f5f5f;fill-opacity:1;fill-rule:nonzero;stroke:none;stroke-width:0.83577561;marker:none;visibility:visible;display:inline;overflow:visible;enable-background:accumulate"
         inkscape:connector-curvature="0" />
      <path
         id="path9856"
         d="m 8227.8158,-54.900973 c -1.2754,0 -3.8019,6.037518 -3.8019,8.143745 l 0,21.882264 0.3025,0.367224 0.065,0.0432 7.2364,6.350825 0,-28.643516 c 0,-2.106227 -2.5263,-8.143745 -3.8018,-8.143745 z m -3.8019,56.5309821 0,3.0890061 -0.021,0 -2.333,6.3508248 2.3546,0 0,2.85139 7.6037,0 0,-2.85139 2.3546,0 -2.333,-6.3508248 -0.021,0 0,-3.0890061 -7.6037,0 z"
         style="color:#000000;fill:#5f5f5f;fill-opacity:1;fill-rule:nonzero;stroke:none;stroke-width:0.83577561;marker:none;visibility:visible;display:inline;overflow:visible;enable-background:accumulate"
         inkscape:connector-curvature="0" />
      <path
         id="path9858"
         d="m 8212.6516,-49.262996 c -1.9321,0.399015 -5.4435,6.836018 -5.4435,9.850259 l 0,34.3895011 -16.5468,0 0,5.09794096 16.8924,0 -1.3177,1.33928904 0,3.8666587 13.1769,0 0,-3.8666587 -1.3177,-1.33928904 16.8923,0 0,-5.09794096 -16.5467,0 0,-34.3895011 c 0,-3.111472 -3.732,-9.850259 -5.6164,-9.850259 -0.059,0 -0.1104,-0.01286 -0.1728,0 z m -6.9341,22.184684 -3.2186,3.909862 -11.8376,10.368693 0,5.4435641 15.0994,0 c -0.028,-0.112991 -0.043,-0.229258 -0.043,-0.345623 l 0,-19.3764961 z m 14.2138,0 0,19.3764961 c 0,0.116365 -0.017,0.232632 -0.043,0.345623 l 15.0994,0 0,-5.4435641 -11.8376,-10.368693 -3.2186,-3.909862 z"
         style="color:#000000;fill:#5f5f5f;fill-opacity:1;fill-rule:nonzero;stroke:none;stroke-width:3.74297166;marker:none;visibility:visible;display:inline;overflow:visible;enable-background:accumulate"
         inkscape:connector-curvature="0" />
    </g>
  </g>
</svg>
