<?xml version="1.0" encoding="UTF-8" standalone="no"?>
<!-- Created with Inkscape (http://www.inkscape.org/) -->

<svg
   xmlns:dc="http://purl.org/dc/elements/1.1/"
   xmlns:cc="http://creativecommons.org/ns#"
   xmlns:rdf="http://www.w3.org/1999/02/22-rdf-syntax-ns#"
   xmlns:svg="http://www.w3.org/2000/svg"
   xmlns="http://www.w3.org/2000/svg"
   xmlns:sodipodi="http://sodipodi.sourceforge.net/DTD/sodipodi-0.dtd"
   xmlns:inkscape="http://www.inkscape.org/namespaces/inkscape"
   width="128.83328"
   height="333.44589"
   id="svg2888"
   version="1.1"
   inkscape:version="0.47 r22583"
   sodipodi:docname="Documento nuevo 3">
  <defs
     id="defs2890">
    <inkscape:perspective
       sodipodi:type="inkscape:persp3d"
       inkscape:vp_x="0 : 526.18109 : 1"
       inkscape:vp_y="0 : 1000 : 0"
       inkscape:vp_z="744.09448 : 526.18109 : 1"
       inkscape:persp3d-origin="372.04724 : 350.78739 : 1"
       id="perspective2896" />
    <inkscape:perspective
       id="perspective2883"
       inkscape:persp3d-origin="0.5 : 0.33333333 : 1"
       inkscape:vp_z="1 : 0.5 : 1"
       inkscape:vp_y="0 : 1000 : 0"
       inkscape:vp_x="0 : 0.5 : 1"
       sodipodi:type="inkscape:persp3d" />
  </defs>
  <sodipodi:namedview
     id="base"
     pagecolor="#ffffff"
     bordercolor="#666666"
     borderopacity="1.0"
     inkscape:pageopacity="0.0"
     inkscape:pageshadow="2"
     inkscape:zoom="0.35"
     inkscape:cx="64.41665"
     inkscape:cy="166.72294"
     inkscape:document-units="px"
     inkscape:current-layer="layer1"
     showgrid="false"
     inkscape:window-width="1366"
     inkscape:window-height="687"
     inkscape:window-x="0"
     inkscape:window-y="25"
     inkscape:window-maximized="1" />
  <metadata
     id="metadata2893">
    <rdf:RDF>
      <cc:Work
         rdf:about="">
        <dc:format>image/svg+xml</dc:format>
        <dc:type
           rdf:resource="http://purl.org/dc/dcmitype/StillImage" />
        <dc:title></dc:title>
      </cc:Work>
    </rdf:RDF>
  </metadata>
  <g
     inkscape:label="Capa 1"
     inkscape:groupmode="layer"
     id="layer1"
     transform="translate(-285.58335,-365.63924)">
    <path
       style="fill:#000000;fill-opacity:1;stroke:#16150e;stroke-width:0;stroke-linecap:round;stroke-miterlimit:4;stroke-opacity:1;stroke-dasharray:none;stroke-dashoffset:0"
       d="m 349.50897,365.63924 c -18.38163,0 -33.28772,14.99209 -33.28772,33.48737 0,14.38535 9.01734,26.64896 21.67257,31.39041 l 0,6.60223 c -30.17832,2.3566 -43.37224,14.38604 -45.26689,35.7858 l -7.04358,79.55655 c 7.34834,11.77326 14.69671,5.60234 22.04505,0 l 7.0436,-70.94891 c 0.31699,-3.19298 1.43394,-6.17647 3.87735,-8.61678 l -5.68904,91.31042 c -0.19736,3.16741 1.22083,6.12459 3.33031,8.61927 -0.36623,1.96678 -0.4586,4.12601 -0.57348,6.3883 l -5.04262,99.29383 c -0.53904,10.61472 3.86695,19.19063 8.67465,19.19063 l 11.15807,0 c 4.80771,0 8.52654,-8.56116 8.67465,-19.19063 l 1.36688,-98.09675 17.48676,0 c 0,0.004 -5e-5,0.007 0,0.0107 l 1.22165,99.4728 c 0.13054,10.62953 3.86693,19.19064 8.67466,19.19064 l 11.15808,0 c 4.80768,0 9.19729,-8.5752 8.67464,-19.19064 l -4.8974,-99.47274 c -0.14763,-2.99829 -0.35415,-5.80804 -0.97595,-8.2384 1.79095,-2.35354 2.99714,-5.07754 2.81719,-7.97715 l -5.68907,-91.66756 c -0.0479,-0.77308 -0.0882,-1.53206 -0.25397,-2.27095 4.4351,2.75637 6.74557,6.79433 7.22138,11.24486 l 7.5854,70.94891 c 9.30181,8.78418 15.75647,6.78974 20.9445,0 l -7.5854,-79.55649 c -2.08326,-21.84943 -15.75916,-33.93155 -47.26484,-35.91391 l 0,-5.93378 c 13.4649,-4.2903 23.22184,-16.9631 23.22184,-31.93066 0,-18.49528 -14.89762,-33.48737 -33.27927,-33.48737 z"
       id="path3873-3"
       inkscape:connector-curvature="0"
       sodipodi:nodetypes="ssccsccscscsssssccsssssscsscsccsccss" />
  </g>
</svg>
