<?xml version="1.0" encoding="UTF-8" standalone="no"?>
<!-- Created with Inkscape (http://www.inkscape.org/) -->

<svg
   xmlns:dc="http://purl.org/dc/elements/1.1/"
   xmlns:cc="http://creativecommons.org/ns#"
   xmlns:rdf="http://www.w3.org/1999/02/22-rdf-syntax-ns#"
   xmlns:svg="http://www.w3.org/2000/svg"
   xmlns="http://www.w3.org/2000/svg"
   xmlns:sodipodi="http://sodipodi.sourceforge.net/DTD/sodipodi-0.dtd"
   xmlns:inkscape="http://www.inkscape.org/namespaces/inkscape"
   width="431.14218"
   height="779.29456"
   id="svg2"
   version="1.1"
   inkscape:version="0.47 r22583"
   sodipodi:docname="Novo documento 1">
  <defs
     id="defs4">
    <inkscape:perspective
       sodipodi:type="inkscape:persp3d"
       inkscape:vp_x="0 : 526.18109 : 1"
       inkscape:vp_y="0 : 1000 : 0"
       inkscape:vp_z="744.09448 : 526.18109 : 1"
       inkscape:persp3d-origin="372.04724 : 350.78739 : 1"
       id="perspective10" />
    <inkscape:perspective
       id="perspective2824"
       inkscape:persp3d-origin="0.5 : 0.33333333 : 1"
       inkscape:vp_z="1 : 0.5 : 1"
       inkscape:vp_y="0 : 1000 : 0"
       inkscape:vp_x="0 : 0.5 : 1"
       sodipodi:type="inkscape:persp3d" />
    <inkscape:perspective
       id="perspective2840"
       inkscape:persp3d-origin="0.5 : 0.33333333 : 1"
       inkscape:vp_z="1 : 0.5 : 1"
       inkscape:vp_y="0 : 1000 : 0"
       inkscape:vp_x="0 : 0.5 : 1"
       sodipodi:type="inkscape:persp3d" />
  </defs>
  <sodipodi:namedview
     id="base"
     pagecolor="#ffffff"
     bordercolor="#666666"
     borderopacity="1.0"
     inkscape:pageopacity="0.0"
     inkscape:pageshadow="2"
     inkscape:zoom="0.35"
     inkscape:cx="751.17609"
     inkscape:cy="172.40946"
     inkscape:document-units="px"
     inkscape:current-layer="layer1"
     showgrid="false"
     inkscape:window-width="1600"
     inkscape:window-height="838"
     inkscape:window-x="-8"
     inkscape:window-y="-8"
     inkscape:window-maximized="1" />
  <metadata
     id="metadata7">
    <rdf:RDF>
      <cc:Work
         rdf:about="">
        <dc:format>image/svg+xml</dc:format>
        <dc:type
           rdf:resource="http://purl.org/dc/dcmitype/StillImage" />
        <dc:title></dc:title>
      </cc:Work>
    </rdf:RDF>
  </metadata>
  <g
     inkscape:label="Camada 1"
     inkscape:groupmode="layer"
     id="layer1"
     transform="translate(-123.96963,-61.097906)">
    <path
       style="fill:#000000;fill-opacity:1;stroke:#000000;stroke-width:1px;stroke-linecap:butt;stroke-linejoin:miter;stroke-opacity:1"
       d="m 481.9933,396.6942 c -19.1376,-21.41149 -38.87903,-42.72319 -50.9308,-69.16295 -14.95256,-21.42285 -30.68934,-42.97963 -41.22564,-66.89658 -2.78001,-12.5753 -5.05128,-18.14411 -7.11548,-2.09639 -3.71212,22.17344 -10.44617,45.3179 -4.69013,67.58672 9.81141,16.20766 18.92423,32.91955 21.0556,52.09834 6.95595,29.39443 10.49135,59.85284 3.98229,89.82484 -6.76245,31.13882 -12.97588,62.62666 -19.93007,93.5867 -2.70261,27.67933 3.30294,55.27526 0.42343,82.86512 -2.08332,11.38722 -6.1237,22.35633 -1.78349,33.66178 3.48353,14.14385 1.68431,29.97772 6.63441,43.32646 8.69054,7.22905 19.34456,16.93383 13.6611,29.45359 -6.05101,21.8945 12.88744,41.59061 10.08173,63.73058 3.66563,16.76191 -20.0267,23.69051 -28.9375,10.35884 -7.69703,-9.46028 -12.17136,-22.50236 -14.125,-34.09375 0.15394,-17.1127 6.33309,-34.75625 -3.23661,-50.48248 -2.21996,-13.63721 -5.33465,-19.45865 -9.54452,-2.67337 -9.68398,19.15152 -3.57651,41.0804 -9.00012,61.1871 0.0243,14.06751 2.53392,32.95674 -13.75,39.09375 -8.29661,-1.26334 -14.85343,1.46524 -22.8192,1.65504 -7.35072,1.06295 -17.67641,-2.62037 -11.19702,-13.76566 4.55263,-14.92171 13.58874,-28.412 16.12436,-44.15541 3.53815,-13.36265 6.94894,-26.37801 12.99899,-38.81684 4.55875,-30.78934 4.19485,-62.40795 4.51241,-93.44404 -4.64841,-16.16892 -12.99846,-31.12184 -16.85114,-47.63525 -4.35076,-18.56547 1.20011,-39.10223 -9.17346,-56.5499 -15.69295,-40.80066 -38.67776,-79.73942 -44.80386,-123.51141 -0.51502,-18.43278 5.6355,-35.85273 8.81868,-53.66986 1.17458,-20.69863 13.14113,-40.92811 6.67149,-61.70042 -5.91539,15.58403 -8.69577,33.0093 -21.92443,44.36195 -20.35705,23.40676 -38.33785,49.75504 -63.95057,67.7943 -9.37779,4.276 -22.36906,-0.39482 -26.96875,11.40625 -16.69964,10.91701 -3.07512,-13.51765 2.8616,-16.47545 -11.32875,-4.18735 -20.42347,7.45199 -32.15733,4.82816 -14.50893,3.09591 -15.38322,-6.80883 -0.17302,-6.38396 13.90946,-2.36915 25.92629,-12.29422 40.88532,-9.75579 16.18087,3.51704 22.06656,-15.67745 31.00232,-25.29967 14.51099,-19.86454 22.35545,-43.4431 35.78619,-63.88019 12.26351,-30.05 16.67398,-63.05575 18.32446,-95.33691 -0.70855,-11.38842 1.21862,-28.46118 16.87671,-26.78994 13.12718,-0.88786 27.31788,-1.58028 32.18995,-17.39384 3.67282,-10.84327 -3.90703,-20.40068 -6.50245,-30.29366 1.60185,-8.40407 -14.68562,-9.18053 -10.1425,-22.85801 -10.7025,-21.660489 5.58805,-46.267919 23.73625,-56.61074 15.35199,-2.196048 35.68567,-6.191911 45.875,8.75 7.86709,21.395604 15.05726,46.8273 0.90625,67.34375 -9.25555,0.94225 -10.87635,15.25671 -13.21875,23.03125 -3.15557,20.93538 22.91073,23.15436 38.73095,22.63781 16.53552,1.65267 17.14222,21.81053 22.80168,33.88913 9.45807,31.4165 22.6169,62.80969 45.62362,86.84806 8.88044,26.66206 18.0983,53.72848 35.125,76.4375 14.09332,-0.37151 28.80999,-0.57761 40.6875,8.40625 10.36049,-1.32169 33.45011,8.84696 10.71875,7.84375 -11.35503,2.5134 -19.99382,-6.09512 -30.72414,-5.53125 -11.30888,-0.74869 20.49955,22.39302 2.69289,19.46875 -6.51361,-7.91447 -13.4816,-12.61259 -24.22407,-12.09368 -3.79304,-0.86448 -7.42458,-1.93263 -10.68888,-4.11837 z"
       id="path2830"
       sodipodi:nodetypes="ccccccscccccccccccccccccccccccccccccccccccccccccccccccccc" />
  </g>
</svg>
